<?xml version="1.0" encoding="UTF-8"?>
<svg width="32px" height="32px" viewBox="0 0 32 32" version="1.1" xmlns="http://www.w3.org/2000/svg" xmlns:xlink="http://www.w3.org/1999/xlink">
    <!-- Generator: sketchtool 48.2 (47327) - http://www.bohemiancoding.com/sketch -->
    <title>84385D85-EC52-426A-941A-8FE43C45E792</title>
    <desc>Created with sketchtool.</desc>
    <defs></defs>
    <g id="Home-page-V2.3" stroke="none" stroke-width="1" fill="none" fill-rule="evenodd" transform="translate(-277.000000, -6974.000000)">
        <g id="Group-15" transform="translate(98.000000, 6931.000000)" fill="#FFFFFF" fill-rule="nonzero">
            <path d="M182,43 L207,43 C209.209139,43 211,44.790861 211,47 L211,71 C211,73.209139 209.209139,75 207,75 L183,75 C180.790861,75 179,73.209139 179,71 L179,46 C179,44.3431458 180.343146,43 182,43 Z M206.555556,51.9288889 C205.691683,52.3192968 204.773235,52.5754368 203.832,52.6884444 C204.827027,52.0802143 205.567767,51.1318272 205.916889,50.0191111 C204.988496,50.5804195 203.969879,50.9766485 202.906222,51.1902222 C202.041333,50.2533333 200.808889,49.6666667 199.445333,49.6666667 C196.827111,49.6666667 194.704,51.8266667 194.704,54.4915556 C194.704,54.8693333 194.745778,55.2373333 194.827111,55.5906667 C190.886222,55.3893333 187.392444,53.4688889 185.053778,50.5497778 C184.631339,51.2884708 184.41005,52.1250489 184.412,52.976 C184.406247,54.58125 185.196043,56.0851092 186.520889,56.9915556 C185.766731,56.9668217 185.02982,56.7595655 184.373333,56.3875556 L184.372889,56.4488889 C184.372889,58.7857778 186.007556,60.7355556 188.176444,61.1795556 C187.478541,61.3716916 186.745636,61.3996814 186.035111,61.2613333 C186.638667,63.1782222 188.389778,64.5737778 190.464,64.6124444 C188.793292,65.9507138 186.71617,66.6792507 184.575556,66.6777778 C184.193333,66.6777778 183.815556,66.6551111 183.444444,66.6102222 C185.543556,67.9795556 188.035556,68.7777778 190.712889,68.7777778 C199.434667,68.7777778 204.203111,61.4266667 204.203111,55.0506667 C204.203111,54.8417778 204.198667,54.6328889 204.189778,54.4257778 C205.120839,53.7410851 205.922029,52.8954932 206.555556,51.9288889 Z" id="Twitter"></path>
        </g>
    </g>
</svg>