<?xml version="1.0" encoding="UTF-8"?>
<svg width="20px" height="21px" viewBox="0 0 20 21" version="1.1" xmlns="http://www.w3.org/2000/svg" xmlns:xlink="http://www.w3.org/1999/xlink">
    <!-- Generator: Sketch 50 (54983) - http://www.bohemiancoding.com/sketch -->
    <title>Tweet</title>
    <desc>Created with Sketch.</desc>
    <defs></defs>
    <g id="Tweet" stroke="none" stroke-width="1" fill="none" fill-rule="evenodd">
        <g>
            <path d="M19.4741667,4.37916667 C19.3470132,4.24065644 19.142848,4.20446662 18.9758333,4.29083333 C18.8716667,4.34416667 18.6758333,4.41416667 18.4433333,4.48333333 C18.7366667,4.09333333 18.9725,3.65666667 19.0766667,3.26416667 C19.1216121,3.09503154 19.0560778,2.91583567 18.9126206,2.81560192 C18.7691633,2.71536816 18.57836,2.71546061 18.435,2.81583333 C18.2091667,2.97333333 17.1191667,3.44666667 16.43,3.6 C14.8725,2.23583333 13.06,2.09416667 11.1758333,3.19416667 C9.64416667,4.08833333 9.31083333,5.90666667 9.37583333,7.015 C5.87,6.6775 3.69083333,4.82583333 2.46416667,3.29333333 C2.37788906,3.18765556 2.246202,3.12971325 2.11,3.1375 C1.9734311,3.14743169 1.85027761,3.22331414 1.78,3.34083333 C1.2,4.32 1.03916667,5.4025 1.31666667,6.47166667 C1.46833333,7.055 1.73333333,7.56916667 2.04083333,7.98583333 C1.88980414,7.91129365 1.74753963,7.82017728 1.61666667,7.71416667 C1.4919171,7.61296559 1.32010244,7.59248972 1.17506344,7.66153897 C1.03002443,7.73058821 0.937595577,7.87686345 0.9375,8.0375 C0.9375,9.87333333 2.08583333,11.0983333 3.15833333,11.7383333 C2.97640779,11.7158737 2.79682125,11.6773908 2.62166667,11.6233333 C2.46514439,11.575416 2.29506573,11.6235869 2.18691767,11.746466 C2.07876962,11.8693452 2.05259067,12.0441647 2.12,12.1933333 C2.7225,13.5258333 3.86416667,14.4425 5.27666667,14.775 C4.04333333,15.4991667 2.3925,15.8541667 0.880833333,15.68 C0.685,15.6525 0.498333333,15.7766667 0.436666667,15.965 C0.375,16.1533333 0.455833333,16.36 0.628333333,16.4566667 C2.92166667,17.7441667 4.995,18.2041667 6.78666667,18.2041667 C9.39416667,18.2041667 11.4066667,17.2308333 12.6316667,16.4166667 C15.9341667,14.225 17.9925,10.29 17.7058333,6.76916667 C18.235,6.37833333 19.0266667,5.65666667 19.5175,4.88083333 C19.6189321,4.72324224 19.6011198,4.51703013 19.4741667,4.37916667 Z" id="Shape" fill="#8169CA" fill-rule="nonzero"></path>
            <rect id="Rectangle-10" x="0" y="0" width="20" height="21"></rect>
        </g>
    </g>
</svg>