<svg width="32" height="32" viewBox="0 0 32 32" fill="none" xmlns="http://www.w3.org/2000/svg">
<rect width="31.4042" height="24.6747" fill="black" fill-opacity="0" transform="translate(0 4)"/>
<rect width="31.4042" height="24.6747" fill="black" fill-opacity="0" transform="translate(0 4)"/>
<rect width="31.4042" height="24.6747" fill="black" fill-opacity="0" transform="translate(0 4)"/>
<rect width="31.4042" height="24.6747" fill="black" fill-opacity="0" transform="translate(0 4)"/>
<path d="M3.72393 9.03358C3.76295 8.65205 3.61594 8.27495 3.32808 8.01816L0.395851 4.52222V4H9.50042L16.5378 19.2748L22.7248 4H31.4042V4.52222L28.8971 6.9012C28.681 7.06425 28.5738 7.33224 28.6185 7.59749V25.0772C28.5738 25.3425 28.681 25.6104 28.8971 25.7735L31.3455 28.1525V28.6747H19.0302V28.1525L21.5665 25.7155C21.8158 25.4689 21.8158 25.3963 21.8158 25.0192V10.8903L14.7638 28.6167H13.8108L5.60056 10.8903V22.7708C5.5321 23.2702 5.69972 23.7731 6.05505 24.1343L9.35381 28.0945V28.6167H0V28.0945L3.29876 24.1343C3.6515 23.7725 3.80934 23.2663 3.72393 22.7708V9.03358Z" fill="white"/>
</svg>
