<?xml version="1.0" encoding="UTF-8"?>
<svg width="32px" height="26px" viewBox="0 0 32 26" version="1.1" xmlns="http://www.w3.org/2000/svg" xmlns:xlink="http://www.w3.org/1999/xlink">
    <!-- Generator: Sketch 50 (54983) - http://www.bohemiancoding.com/sketch -->
    <title>Shape</title>
    <desc>Created with Sketch.</desc>
    <defs></defs>
    <g id="Page-3" stroke="none" stroke-width="1" fill="none" fill-rule="evenodd">
        <g id="Home-page" transform="translate(-1057.000000, -7094.000000)" fill="#FFFFFF" fill-rule="nonzero">
            <g id="Group-15" transform="translate(98.000000, 6931.000000)">
                <path d="M991,166.744927 L989.734375,166.744927 C989.2645,166.744927 988.6,167.4249 988.6,167.860117 L988.6,183.637036 C988.6,184.072755 989.2645,184.666837 989.734375,184.666837 L991,184.666837 L991,188.411765 L979.533375,188.411765 L979.533375,184.666837 L981.933375,184.666837 L981.933375,168.082303 L981.81575,168.082303 L976.21125,188.411765 L971.87225,188.411765 L966.34,168.082303 L966.2,168.082303 L966.2,184.666837 L968.6,184.666837 L968.6,188.411765 L959,188.411765 L959,184.666837 L960.229375,184.666837 C960.7355,184.666837 961.4,184.072755 961.4,183.637036 L961.4,167.859992 C961.4,167.424774 960.7355,166.744802 960.229375,166.744802 L959,166.744802 L959,163 L971.00425,163 L974.9455,177.712008 L975.05425,177.712008 L979.031625,163 L991,163 L991,166.744927" id="Shape"></path>
            </g>
        </g>
    </g>
</svg>