<svg width="32" height="32" viewBox="0 0 32 32" fill="none" xmlns="http://www.w3.org/2000/svg">
<rect width="32" height="32" fill="black" fill-opacity="0"/>
<path d="M31.9149 5.40463L27.2125 27.387C27.0281 28.1705 26.7054 28.6774 26.2444 28.9078C25.8295 29.0922 25.2993 29 24.6539 28.6313L17.5312 23.3777L14.0736 26.6958C13.8431 26.9262 13.6587 27.0875 13.5204 27.1797C13.2899 27.3179 12.9902 27.387 12.6214 27.387L13.1746 20.1287L26.3827 8.16972C26.5671 8.03146 26.6132 7.91625 26.521 7.82408C26.4749 7.68583 26.3366 7.63974 26.1061 7.68583C25.9217 7.68583 25.7142 7.75495 25.4837 7.89321L9.1638 18.1931L2.11028 15.9811C1.32655 15.7506 0.95774 15.405 1.00384 14.9442C1.04994 14.4833 1.53401 14.0686 2.45604 13.6999L29.9095 3.12344C30.601 2.89302 31.1542 2.98519 31.5691 3.39995C31.984 3.76863 32.0993 4.43685 31.9149 5.40463Z" fill="white"/>
</svg>
