<svg width="12" height="12" viewBox="0 0 12 12" fill="none" xmlns="http://www.w3.org/2000/svg">
<path d="M5.11607 0.798165L5.70536 0.192661C5.83036 0.0642202 5.98214 0 6.16071 0C6.33929 0 6.49107 0.0642202 6.61607 0.192661L11.8125 5.53211C11.9375 5.66055 12 5.81651 12 6C12 6.18349 11.9375 6.33945 11.8125 6.46789L6.61607 11.8073C6.49107 11.9358 6.33929 12 6.16071 12C5.98214 12 5.83036 11.9358 5.70536 11.8073L5.11607 11.2018C4.97321 11.0734 4.90179 10.9174 4.90179 10.7339C4.91964 10.5505 4.99107 10.3945 5.11607 10.2661L8.33036 7.10092H0.642857C0.464286 7.10092 0.3125 7.0367 0.1875 6.90826C0.0625 6.77982 0 6.62385 0 6.44037V5.55963C0 5.37615 0.0625 5.22018 0.1875 5.09174C0.3125 4.9633 0.464286 4.89908 0.642857 4.89908H8.33036L5.11607 1.73394C4.99107 1.6055 4.91964 1.44954 4.90179 1.26605C4.90179 1.08257 4.97321 0.926605 5.11607 0.798165Z" fill="#8166CD"/>
</svg>
