<?xml version="1.0" encoding="UTF-8"?>
<svg width="32px" height="32px" viewBox="0 0 32 32" version="1.1" xmlns="http://www.w3.org/2000/svg" xmlns:xlink="http://www.w3.org/1999/xlink">
    <!-- Generator: sketchtool 48.2 (47327) - http://www.bohemiancoding.com/sketch -->
    <title>9A248EDE-1B88-45F8-8290-40E0BED63416</title>
    <desc>Created with sketchtool.</desc>
    <defs></defs>
    <g id="Home-page-V2.3" stroke="none" stroke-width="1" fill="none" fill-rule="evenodd" transform="translate(-277.000000, -7091.000000)">
        <g id="Group-15" transform="translate(98.000000, 6931.000000)" fill="#FFFFFF" fill-rule="nonzero">
            <path d="M183.8,160 C181.334062,160 179,162.400341 179,164.8 L179,187.2 C179,189.734903 181.377723,192 183.8,192 L206.2,192 C208.667903,192 211,189.626357 211,187.2 L211,164.8 C211,162.222485 208.671557,160 206.2,160 L183.8,160 Z M188.778989,186.705231 L183.997275,186.705231 L183.997275,172.416703 L188.778989,172.416703 L188.778989,186.705231 Z M186.388484,170.464703 L186.356484,170.464703 C184.752967,170.464703 183.713495,169.367912 183.713495,167.995077 C183.713495,166.594462 184.78356,165.52756 186.418725,165.52756 C188.054242,165.52756 189.060308,166.59411 189.091956,167.995077 C189.091956,169.368264 188.054593,170.464703 186.388484,170.464703 Z M206.016088,186.705231 L201.235429,186.705231 L201.235429,179.060747 C201.235429,177.139341 200.543033,175.829099 198.81433,175.829099 C197.491429,175.829099 196.706549,176.713143 196.361934,177.566593 C196.233934,177.871824 196.202637,178.298022 196.202637,178.72422 L196.202637,186.705231 L191.423385,186.705231 C191.423385,186.705231 191.485978,173.756484 191.423385,172.416352 L196.203341,172.416352 L196.203341,174.442198 C196.838066,173.468835 197.97178,172.080176 200.510681,172.080176 C203.656879,172.080176 206.016088,174.121143 206.016088,178.512527 L206.016088,186.705231 Z M196.172396,174.48756 C196.180484,174.474198 196.19244,174.458022 196.203341,174.442549 L196.203341,174.48756 L196.172396,174.48756 Z" id="Linkedin"></path>
        </g>
    </g>
</svg>