<?xml version="1.0" encoding="UTF-8"?>
<svg width="32px" height="32px" viewBox="0 0 32 32" version="1.1" xmlns="http://www.w3.org/2000/svg" xmlns:xlink="http://www.w3.org/1999/xlink">
    <!-- Generator: sketchtool 48.2 (47327) - http://www.bohemiancoding.com/sketch -->
    <title>12F68D68-1D28-4CCC-BE03-0CA7471448D4</title>
    <desc>Created with sketchtool.</desc>
    <defs></defs>
    <g id="Home-page-V2.3" stroke="none" stroke-width="1" fill="none" fill-rule="evenodd" transform="translate(-667.000000, -7091.000000)">
        <g id="Group-15" transform="translate(98.000000, 6931.000000)" fill-rule="nonzero">
            <g id="Slack" transform="translate(569.000000, 160.000000)">
                <g id="surface1">
                    <path d="M21.2292683,5.15278049 L16.0796098,6.94478049 L14.9845854,3.59180488 C14.5186341,2.18536585 15.2195122,0.624390244 16.702439,0.155317073 C18.1073171,-0.310634146 19.6682927,0.390243902 20.1381463,1.87239024 L21.2292683,5.15278049 Z M19.6682927,17.6405854 L24.8195122,15.8446829 L23.0243902,10.3016585 L17.8716098,12.097561 L19.6682927,17.6405854 Z M22.3227317,25.6 C22.7129756,26.691122 23.8040976,27.4716098 24.8952195,27.4716098 C25.2097561,27.4716098 25.5203902,27.3959024 25.7553171,27.3162927 C27.1601951,26.846439 27.9406829,25.2854634 27.4723902,23.8837073 L26.5365854,21.0731707 L21.3838049,22.8682927 L22.3227317,25.6 Z" id="Shape" fill="#FFFFFF"></path>
                    <path d="M10.302439,8.97560976 L5.15278049,10.7707317 L4.0577561,7.4942439 C3.59180488,6.08780488 4.29268293,4.52682927 5.77560976,4.0577561 C7.1804878,3.59180488 8.74146341,4.29268293 9.21131707,5.77482927 L10.302439,8.97560976 Z M11.3966829,29.502439 C11.7869268,30.595122 12.8780488,31.3756098 13.9691707,31.3756098 C14.2837073,31.3756098 14.5943415,31.299122 14.8292683,31.2195122 C16.2341463,30.7496585 17.0146341,29.1886829 16.5463415,27.7869268 L15.6097561,24.896 L10.4569756,26.6926829 L11.3966829,29.502439 Z M12.0179512,14.204878 L6.86907317,16 L8.66419512,21.5430244 L13.8146341,19.7463415 L12.0179512,14.204878 Z" id="Shape" fill="#FFFFFF"></path>
                    <path d="M22.9447805,10.3804878 L21.2292683,5.22926829 L24.4308293,4.13658537 C25.8357073,3.66829268 27.3966829,4.37229268 27.8634146,5.85365854 C28.3332683,7.25853659 27.6292683,8.8195122 26.147122,9.2862439 L22.9447805,10.3804878 Z M17.7959024,12.1771707 L16.0780488,7.02439024 L10.302439,9.05521951 L12.0195122,14.2040976 L17.7959024,12.1771707 Z M1.87160976,11.9414634 C0.469853659,12.4074146 -0.310634146,13.9683902 0.155317073,15.3740488 C0.525292167,16.485508 1.56034005,17.2392963 2.73170732,17.2503415 C3.04234146,17.2503415 3.35609756,17.1707317 3.59180488,17.091122 L6.78946341,16 L5.07317073,10.8472195 L1.87160976,11.9414634 Z" id="Shape" fill="#FFFFFF"></path>
                    <path d="M8.66497561,21.4634146 L10.3812683,26.6161951 L6.71297561,27.8626341 C6.39921951,27.9422439 6.08858537,28.0187317 5.85365854,28.0187317 C4.68292683,28.0187317 3.66829268,27.3170732 3.27804878,26.1463415 C2.81131707,24.7414634 3.51219512,23.1804878 4.99356098,22.7137561 L8.66497561,21.4634146 Z M30.9845854,16.6243902 C30.5186341,15.2195122 28.9576585,14.4390244 27.552,14.908878 L24.8195122,15.8439024 L26.5365854,21.0731707 L29.3479024,20.1365854 C30.7496585,19.5918049 31.5301463,18.0308293 30.9845854,16.6243902 Z M13.8138537,19.6682927 L15.5309268,24.8195122 L21.3080976,22.7902439 L19.5910244,17.6405854 L13.8138537,19.6682927 Z" id="Shape" fill="#FFFFFF"></path>
                    <polygon id="Shape" fill="#D1C6F5" points="22.9447805 10.3804878 21.2292683 5.15356098 16.0803902 6.94556098 17.7966829 12.1779512"></polygon>
                    <polygon id="Shape" fill="#D1C6F5" points="10.302439 8.97560976 5.15278049 10.7707317 6.86907317 16 12.0179512 14.204878"></polygon>
                    <polygon id="Shape" fill="#D1C6F5" points="19.6682927 17.6405854 21.3838049 22.8690732 26.5365854 21.0731707 24.8195122 15.8439024"></polygon>
                    <polygon id="Shape" fill="#D1C6F5" points="8.66497561 21.4634146 10.3812683 26.6926829 15.5301463 24.896 13.8146341 19.6682927"></polygon>
                </g>
            </g>
        </g>
    </g>
</svg>