<svg width="20" height="20" viewBox="0 0 20 20" fill="none" xmlns="http://www.w3.org/2000/svg">
<path d="M8.52679 1.33028L9.50893 0.321101C9.71726 0.107034 9.97024 0 10.2679 0C10.5655 0 10.8185 0.107034 11.0268 0.321101L19.6875 9.22018C19.8958 9.43425 20 9.69419 20 10C20 10.3058 19.8958 10.5657 19.6875 10.7798L11.0268 19.6789C10.8185 19.893 10.5655 20 10.2679 20C9.97024 20 9.71726 19.893 9.50893 19.6789L8.52679 18.6697C8.28869 18.4557 8.16964 18.1957 8.16964 17.8899C8.1994 17.5841 8.31845 17.3242 8.52679 17.1101L13.8839 11.8349H1.07143C0.77381 11.8349 0.520833 11.7278 0.3125 11.5138C0.104167 11.2997 0 11.0398 0 10.7339V9.26606C0 8.96024 0.104167 8.70031 0.3125 8.48624C0.520833 8.27217 0.77381 8.16514 1.07143 8.16514H13.8839L8.52679 2.88991C8.31845 2.67584 8.1994 2.4159 8.16964 2.11009C8.16964 1.80428 8.28869 1.54434 8.52679 1.33028Z" fill="#8166CD"/>
</svg>
