<?xml version="1.0" encoding="UTF-8"?>
<svg width="32px" height="32px" viewBox="0 0 32 32" version="1.1" xmlns="http://www.w3.org/2000/svg" xmlns:xlink="http://www.w3.org/1999/xlink">
    <!-- Generator: sketchtool 48.2 (47327) - http://www.bohemiancoding.com/sketch -->
    <title>FBACE76E-E0B0-4DC3-8E3A-23ABED92E329</title>
    <desc>Created with sketchtool.</desc>
    <defs></defs>
    <g id="Home-page-V2.3" stroke="none" stroke-width="1" fill="none" fill-rule="evenodd" transform="translate(-667.000000, -6974.000000)">
        <g id="Group-15" transform="translate(98.000000, 6931.000000)" fill="#FFFFFF" fill-rule="nonzero">
            <path d="M601,48.3336889 C601,45.5312 598.469867,43 595.666667,43 L574.333333,43 C571.530133,43 569,45.5312 569,48.3336889 L569,69.6663111 C569,72.4688 571.530133,75 574.333689,75 L585,75 L585,62.9111111 L581.088889,62.9111111 L581.088889,57.5777778 L585,57.5777778 L585,55.4999111 C585,51.9162667 587.690844,48.6888889 591,48.6888889 L595.311111,48.6888889 L595.311111,54.0222222 L591,54.0222222 C590.528178,54.0222222 589.977778,54.5950222 589.977778,55.4529778 L589.977778,57.5777778 L595.311111,57.5777778 L595.311111,62.9111111 L589.977778,62.9111111 L589.977778,75 L595.666667,75 C598.469867,75 601,72.4688 601,69.6663111 L601,48.3336889 Z" id="Facebook"></path>
        </g>
    </g>
</svg>