<?xml version="1.0" encoding="UTF-8"?>
<svg width="32px" height="32px" viewBox="0 0 32 32" version="1.1" xmlns="http://www.w3.org/2000/svg" xmlns:xlink="http://www.w3.org/1999/xlink">
    <!-- Generator: sketchtool 48.2 (47327) - http://www.bohemiancoding.com/sketch -->
    <title>350A150D-AC15-4560-B670-02504D42D411</title>
    <desc>Created with sketchtool.</desc>
    <defs></defs>
    <g id="Home-page-V2.3" stroke="none" stroke-width="1" fill="none" fill-rule="evenodd" transform="translate(-1057.000000, -6974.000000)">
        <g id="Group-15" transform="translate(98.000000, 6931.000000)" fill="#FFFFFF" fill-rule="nonzero">
            <path d="M975,43 C970.654667,43 970.11,43.0186667 968.403333,43.096 C966.7,43.174 965.536667,43.4446667 964.519333,43.84 C963.467333,44.2486667 962.574667,44.796 961.686,45.6853333 C960.796,46.5746667 960.248667,47.4673333 959.84,48.5193333 C959.444667,49.5373333 959.173333,50.7 959.096,52.4033333 C959.018667,54.11 959,54.6546667 959,59 C959,63.3453333 959.018667,63.89 959.096,65.5966667 C959.174,67.3 959.444667,68.4633333 959.84,69.4806667 C960.248667,70.5326667 960.796,71.4253333 961.685333,72.314 C962.574667,73.204 963.467333,73.7513333 964.519333,74.1606667 C965.537333,74.5553333 966.7,74.826 968.403333,74.904 C970.11,74.9813333 970.654667,75 975,75 C979.345333,75 979.89,74.9813333 981.596667,74.904 C983.3,74.826 984.463333,74.5553333 985.480667,74.16 C986.532667,73.7513333 987.425333,73.204 988.314,72.3146667 C989.204,71.4253333 989.751333,70.5326667 990.160667,69.4806667 C990.555333,68.4626667 990.826,67.3 990.904,65.5966667 C990.981333,63.89 991,63.3453333 991,59 C991,54.6546667 990.981333,54.11 990.904,52.4033333 C990.826,50.7 990.555333,49.5366667 990.16,48.5193333 C989.751333,47.4673333 989.204,46.5746667 988.314667,45.686 C987.425333,44.796 986.532667,44.2486667 985.480667,43.84 C984.462667,43.4446667 983.3,43.1733333 981.596667,43.096 C979.89,43.0186667 979.345333,43 975,43 Z M975,45.8826667 C979.272,45.8826667 979.778,45.8993333 981.465333,45.976 C983.025333,46.0473333 983.872,46.308 984.436667,46.5273333 C985.183333,46.8173333 985.716667,47.164 986.276667,47.724 C986.836,48.284 987.182667,48.8173333 987.472667,49.564 C987.692667,50.1273333 987.952667,50.9746667 988.024,52.5346667 C988.100667,54.2213333 988.117333,54.728 988.117333,59 C988.117333,63.272 988.100667,63.778 988.024,65.4653333 C987.952667,67.0253333 987.692,67.872 987.472667,68.4366667 C987.182667,69.1833333 986.836,69.7166667 986.276,70.2766667 C985.716,70.836 985.182667,71.1826667 984.436,71.4726667 C983.872667,71.6926667 983.025333,71.9526667 981.465333,72.024 C979.778667,72.1006667 979.272,72.1173333 975,72.1173333 C970.727333,72.1173333 970.221333,72.1006667 968.534667,72.024 C966.974667,71.9526667 966.128,71.692 965.563333,71.4726667 C964.816667,71.1826667 964.283333,70.836 963.723333,70.276 C963.164,69.716 962.817333,69.1826667 962.527333,68.436 C962.307333,67.8726667 962.047333,67.0253333 961.976,65.4653333 C961.899333,63.7786667 961.882667,63.272 961.882667,59 C961.882667,54.728 961.899333,54.222 961.976,52.5346667 C962.047333,50.9746667 962.308,50.128 962.527333,49.5633333 C962.817333,48.8166667 963.164,48.2833333 963.724,47.7233333 C964.284,47.164 964.817333,46.8173333 965.564,46.5273333 C966.127333,46.3073333 966.974667,46.0473333 968.534667,45.976 C970.221333,45.8993333 970.728,45.8826667 975,45.8826667 Z M975,50.784 C970.462,50.784 966.784,54.462 966.784,59 C966.784,63.538 970.462,67.216 975,67.216 C979.538,67.216 983.216,63.538 983.216,59 C983.216,54.462 979.538,50.784 975,50.784 Z M975,64.3333333 C972.054481,64.3333333 969.666667,61.9455187 969.666667,59 C969.666667,56.0544813 972.054481,53.6666667 975,53.6666667 C977.945519,53.6666667 980.333333,56.0544813 980.333333,59 C980.333333,61.9455187 977.945519,64.3333333 975,64.3333333 Z M985.460667,50.4593333 C985.460667,51.5197201 984.601053,52.3793333 983.540667,52.3793333 C982.48028,52.3793333 981.620667,51.5197201 981.620667,50.4593333 C981.620667,49.3989466 982.48028,48.5393333 983.540667,48.5393333 C984.601053,48.5393333 985.460667,49.3989466 985.460667,50.4593333 Z" id="Instagram"></path>
        </g>
    </g>
</svg>