<?xml version="1.0" encoding="UTF-8"?>
<svg width="110px" height="36px" viewBox="0 0 110 36" version="1.1" xmlns="http://www.w3.org/2000/svg" xmlns:xlink="http://www.w3.org/1999/xlink">
    <title>InOut Logo</title>
        <g id="InOut-Logo" fill="#8166cd">
            <path d="M56.7389565,1.03792 L56.7389565,3.88192 C56.7389565,4.36832 57.0769275,4.78272 57.5496087,4.89312 C63.264029,6.22672 67.5109855,11.36912 67.5109855,17.57472 C67.5109855,23.77712 63.2648261,28.90032 57.5504058,30.22592 C57.0777246,30.33632 56.7389565,30.75072 56.7389565,31.23792 L56.7389565,34.12432 C56.7389565,34.77952 57.3359855,35.26752 57.9768551,35.14272 C66.1176522,33.55152 72.3015652,26.26912 72.3015652,17.57472 C72.3015652,8.88832 66.1176522,1.60912 57.9768551,0.01952 C57.3359855,-0.10528 56.7389565,0.38352 56.7389565,1.03792" id="Fill-1"></path>
            <path d="M24.6307536,7.12384 C19.7947391,7.12384 15.7924928,11.11184 15.7924928,16.00784 L15.7924928,26.93424 C15.7924928,27.50704 16.2548116,27.97184 16.8255362,27.97184 L19.2806087,27.97184 C19.8521304,27.97184 20.3144493,27.50704 20.3144493,26.93424 L20.3144493,16.00784 C20.3144493,13.56624 22.2163333,11.63984 24.6307536,11.63984 C27.0387971,11.63984 28.9422754,13.56624 28.9422754,16.00784 L28.9422754,26.93424 C28.9422754,27.50704 29.4053913,27.97184 29.9761159,27.97184 L32.3897391,27.97184 C32.9604638,27.97184 33.4227826,27.50704 33.4227826,26.93424 L33.4227826,16.00784 C33.4227826,11.11184 29.4707536,7.12384 24.6307536,7.12384" id="Fill-4"></path>
            <path d="M37.1532174,17.70976 C37.1532174,26.39536 43.3371304,33.67696 51.4707536,35.26656 C52.1116232,35.39216 52.7086522,34.90336 52.7086522,34.24816 L52.7086522,31.41456 C52.7086522,30.92816 52.3698841,30.51296 51.898,30.40336 C46.1883623,29.07056 41.9334348,23.91776 41.9334348,17.70976 C41.9334348,11.50496 46.1883623,6.39216 51.8972029,5.06336 C52.3698841,4.95376 52.7086522,4.53856 52.7086522,4.05216 L52.7086522,1.17056 C52.7086522,0.51536 52.1108261,0.02656 51.4699565,0.15216 C43.3371304,1.74496 37.1532174,9.02496 37.1532174,17.70976" id="Fill-6"></path>
            <path d="M99.2718116,12.01488 L100.675507,12.01488 C101.247029,12.01488 101.709348,12.47888 101.709348,13.05168 L101.709348,34.76768 C101.709348,35.34048 102.171667,35.80448 102.742391,35.80448 L105.138478,35.80448 C105.71,35.80448 106.172319,35.34048 106.172319,34.76768 L106.172319,13.05168 C106.172319,12.47888 106.634638,12.01488 107.205362,12.01488 L108.627391,12.01488 C109.198116,12.01488 109.661232,11.55008 109.661232,10.97808 L109.661232,8.27408 C109.661232,7.70128 109.198116,7.23728 108.627391,7.23728 L99.2718116,7.23728 C98.701087,7.23728 98.237971,7.70128 98.237971,8.27408 L98.237971,10.97808 C98.237971,11.55008 98.701087,12.01488 99.2718116,12.01488" id="Fill-8"></path>
            <path d="M103.209094,0.61016 L99.9425725,3.91576 C99.2969203,4.57016 99.758442,5.68296 100.676703,5.68296 L107.208949,5.68296 C108.12721,5.68296 108.589529,4.57016 107.942283,3.91496 L104.676558,0.61016 C104.27163,0.20056 103.613225,0.20136 103.209094,0.61016" id="Fill-10"></path>
            <path d="M10.3895797,23.02544 L8.98508696,23.02544 C8.41436232,23.02544 7.95204348,22.56064 7.95204348,21.98864 L7.95204348,1.16944 C7.95204348,0.59664 7.48972464,0.13264 6.919,0.13264 L4.52211594,0.13264 C3.9513913,0.13264 3.48907246,0.59664 3.48907246,1.16944 L3.48907246,21.98864 C3.48907246,22.56064 3.02675362,23.02544 2.45523188,23.02544 L1.0332029,23.02544 C0.462478261,23.02544 0.00015942029,23.48944 0.00015942029,24.06224 L0.00015942029,26.76544 C0.00015942029,27.33824 0.462478261,27.80304 1.0332029,27.80304 L10.3895797,27.80304 C10.9603043,27.80304 11.4226232,27.33824 11.4226232,26.76544 L11.4226232,24.06224 C11.4226232,23.48944 10.9603043,23.02544 10.3895797,23.02544" id="Fill-12"></path>
            <path d="M6.4522971,34.42968 L9.71802174,31.12488 C10.364471,30.46968 9.90294928,29.35768 8.98468841,29.35768 L2.45244203,29.35768 C1.53418116,29.35768 1.07186232,30.46968 1.7191087,31.12488 L4.98483333,34.42968 C5.38896377,34.83928 6.04816667,34.83928 6.4522971,34.42968" id="Fill-14"></path>
            <path d="M89.2139058,19.17696 C89.2139058,21.62096 87.314413,23.54336 84.8991957,23.54336 C82.4887609,23.54336 80.588471,21.61376 80.588471,19.17696 L80.588471,8.25696 C80.588471,7.68416 80.1261522,7.22016 79.5554275,7.22016 L77.1386159,7.22016 C76.5678913,7.22016 76.1055725,7.68416 76.1055725,8.25696 L76.1055725,19.17696 C76.1055725,24.08336 80.0623841,28.06656 84.8991957,28.06656 C89.7431812,28.06656 93.7398478,24.08176 93.7398478,19.17696 L93.7398478,8.25696 C93.7398478,7.68416 93.277529,7.22016 92.7060072,7.22016 L90.2477464,7.22016 C89.6770217,7.22016 89.2139058,7.68416 89.2139058,8.25696 L89.2139058,19.17696 Z" id="Fill-16"></path>
        </g>
</svg>