<?xml version="1.0" encoding="UTF-8"?>
<!-- Generator: Adobe Illustrator 16.0.0, SVG Export Plug-In . SVG Version: 6.00 Build 0)  -->
<!DOCTYPE svg PUBLIC "-//W3C//DTD SVG 1.1//EN" "http://www.w3.org/Graphics/SVG/1.1/DTD/svg11.dtd">
<svg version="1.1" id="balsamiq-logo-print" xmlns="http://www.w3.org/2000/svg" xmlns:xlink="http://www.w3.org/1999/xlink" x="0px" y="0px" width="360px" height="115px" viewBox="0 0 360 115" enable-background="new 0 0 360 115" xml:space="preserve">
<g>
	<path fill-rule="evenodd" clip-rule="evenodd" fill="#CC0000" d="M0,103c0,6.627,5.373,12,12,12h336c6.627,0,12-5.373,12-12V12   c0-6.627-5.373-12-12-12H12C5.373,0,0,5.373,0,12V103z"/>
	<g>
		<path fill="#FFFFFF" d="M57.416,76.436c0.128-2.112,0.256-5.248,0.256-8V31h5.567v19.455h0.128    c1.984-3.456,5.568-5.696,10.559-5.696c7.68,0,13.119,6.399,13.055,15.807c0,11.071-6.976,16.575-13.887,16.575    c-4.48,0-8.063-1.728-10.367-5.824h-0.192l-0.256,5.12H57.416z M63.239,64.021c0,0.704,0.128,1.408,0.256,2.048    c1.088,3.904,4.352,6.592,8.447,6.592c5.888,0,9.408-4.8,9.408-11.903c0-6.208-3.2-11.52-9.215-11.52    c-3.84,0-7.424,2.624-8.576,6.912c-0.128,0.64-0.32,1.408-0.32,2.304V64.021z"/>
		<path fill="#FFFFFF" d="M112.684,76.436l-0.448-3.904h-0.192c-1.728,2.432-5.056,4.608-9.472,4.608    c-6.271,0-9.471-4.416-9.471-8.896c0-7.487,6.656-11.583,18.623-11.519v-0.64c0-2.56-0.704-7.167-7.039-7.167    c-2.88,0-5.888,0.896-8.063,2.304l-1.28-3.711c2.56-1.664,6.271-2.752,10.175-2.752c9.472,0,11.775,6.463,11.775,12.671v11.583    c0,2.688,0.128,5.311,0.512,7.423H112.684z M111.852,60.629c-6.144-0.128-13.119,0.96-13.119,6.975    c0,3.648,2.432,5.375,5.312,5.375c4.032,0,6.591-2.56,7.487-5.183c0.192-0.576,0.32-1.216,0.32-1.792V60.629z"/>
		<path fill="#FFFFFF" d="M127.315,31h5.631v45.437h-5.631V31z"/>
		<path fill="#FFFFFF" d="M142.271,70.676c1.664,1.088,4.607,2.24,7.423,2.24c4.096,0,6.016-2.048,6.016-4.608    c0-2.688-1.6-4.16-5.76-5.696c-5.567-1.983-8.191-5.055-8.191-8.767c0-4.992,4.032-9.087,10.688-9.087    c3.136,0,5.887,0.896,7.615,1.92l-1.408,4.096c-1.216-0.768-3.456-1.792-6.335-1.792c-3.328,0-5.184,1.92-5.184,4.224    c0,2.56,1.855,3.712,5.887,5.248c5.376,2.048,8.127,4.736,8.127,9.344c0,5.439-4.224,9.279-11.583,9.279    c-3.392,0-6.527-0.832-8.704-2.111L142.271,70.676z"/>
		<path fill="#FFFFFF" d="M187.153,76.436l-0.448-3.904h-0.192c-1.728,2.432-5.056,4.608-9.471,4.608    c-6.271,0-9.471-4.416-9.471-8.896c0-7.487,6.656-11.583,18.623-11.519v-0.64c0-2.56-0.704-7.167-7.04-7.167    c-2.879,0-5.887,0.896-8.063,2.304l-1.28-3.711c2.56-1.664,6.272-2.752,10.175-2.752c9.472,0,11.775,6.463,11.775,12.671v11.583    c0,2.688,0.128,5.311,0.512,7.423H187.153z M186.321,60.629c-6.144-0.128-13.119,0.96-13.119,6.975    c0,3.648,2.432,5.375,5.312,5.375c4.031,0,6.592-2.56,7.487-5.183c0.192-0.576,0.32-1.216,0.32-1.792V60.629z"/>
		<path fill="#FFFFFF" d="M201.74,53.846c0-3.2-0.064-5.824-0.256-8.383h4.928l0.256,4.992h0.191    c1.729-2.944,4.608-5.696,9.728-5.696c4.224,0,7.424,2.56,8.768,6.208h0.128c0.96-1.728,2.176-3.072,3.456-4.032    c1.855-1.408,3.903-2.176,6.847-2.176c4.096,0,10.176,2.688,10.176,13.439v18.239h-5.504V58.901c0-5.952-2.176-9.535-6.72-9.535    c-3.199,0-5.695,2.368-6.655,5.12c-0.256,0.768-0.448,1.792-0.448,2.815v19.135h-5.503V57.877c0-4.928-2.176-8.511-6.464-8.511    c-3.52,0-6.079,2.815-6.976,5.631c-0.319,0.832-0.448,1.792-0.448,2.752v18.687h-5.503V53.846z"/>
		<path fill="#FFFFFF" d="M262.309,36.759c0.063,1.92-1.344,3.456-3.584,3.456c-1.983,0-3.392-1.536-3.392-3.456    c0-1.984,1.472-3.52,3.52-3.52C260.965,33.239,262.309,34.775,262.309,36.759z M256.037,76.436V45.462h5.632v30.974H256.037z"/>
		<path fill="#FFFFFF" d="M293.276,71.636h-0.128c-1.664,3.072-5.119,5.504-10.111,5.504c-7.231,0-13.119-6.271-13.119-15.679    c0-11.583,7.487-16.703,14.016-16.703c4.799,0,7.999,2.368,9.535,5.375h0.128l0.191-4.671h5.312    c-0.128,2.624-0.191,5.312-0.191,8.511v35.133h-5.632V71.636z M293.276,58.005c0-0.768-0.063-1.664-0.256-2.368    c-0.832-3.456-3.84-6.4-8.063-6.4c-5.823,0-9.344,4.928-9.344,11.903c0,6.144,2.944,11.52,9.151,11.52    c3.648,0,6.784-2.24,8.063-6.144c0.256-0.768,0.448-1.856,0.448-2.688V58.005z"/>
	</g>
	<g>
		<path fill="#FFFFFF" d="M315.458,49.334c0,2.688-2.184,4.845-4.955,4.845c-2.772,0-4.984-2.156-4.984-4.845    c0-2.66,2.212-4.815,4.984-4.815C313.275,44.519,315.458,46.674,315.458,49.334z M307.003,49.362c0,2.016,1.483,3.612,3.5,3.612    c2.016,0,3.5-1.597,3.5-3.641c0-1.988-1.484-3.612-3.528-3.612C308.487,45.722,307.003,47.346,307.003,49.362z M309.887,51.63    h-1.372v-4.452c0.308-0.056,1.036-0.14,1.96-0.14c1.008,0,1.456,0.14,1.792,0.336c0.28,0.196,0.476,0.532,0.476,0.98    s-0.42,0.84-1.036,1.008v0.056c0.505,0.168,0.784,0.504,0.925,1.148c0.14,0.644,0.224,0.896,0.308,1.063h-1.54    c-0.14-0.168-0.224-0.56-0.308-0.951c-0.084-0.448-0.309-0.673-0.756-0.673h-0.448V51.63z M309.943,49.082h0.393    c0.504,0,0.84-0.195,0.84-0.531c0-0.364-0.309-0.561-0.784-0.561c-0.168,0-0.336,0.028-0.448,0.028V49.082z"/>
	</g>
</g>
</svg>