<svg width="518" height="208" viewBox="0 0 518 208" fill="none" xmlns="http://www.w3.org/2000/svg">
<path fill-rule="evenodd" clip-rule="evenodd" d="M278.445 134.018C275.771 133.895 273.209 134.353 270.866 135.261C268.449 130.477 266.365 126.135 266.808 126.16C267.789 126.197 271.689 126.366 271.689 126.366C271.689 126.366 272.346 120.326 272.094 117.006C271.852 113.667 270.68 113.606 270.68 113.606L266.308 114.977C261.146 116.719 260.383 116.299 260.383 116.299C260.383 116.299 260.444 111.145 259.464 111.101C258.488 111.062 253.718 109.858 253.718 109.858C253.321 109.078 250.109 107.376 248.432 106.131C246.561 104.004 240.035 99.286 235.32 95.997C235.948 96.1705 236.61 96.2895 237.293 96.3109C241.975 96.5183 245.949 92.8828 246.156 88.195C246.346 83.5007 242.709 79.5448 238.022 79.3375C233.324 79.1249 229.355 82.7714 229.154 87.4605C229.065 89.4937 229.709 91.3878 230.824 92.901C230.416 92.6202 230.185 92.4636 230.185 92.4636C229.052 91.4379 227.753 92.7879 227.753 92.7879C227.753 92.7879 216.838 114.417 216.189 115.756C215.545 117.094 218.162 119.946 218.162 119.946L203.273 120.282C200.728 120.365 198.799 128.886 198.799 128.886C188.933 130.611 183.132 142.683 183.132 142.683L185.592 144.549L185.419 148.644L180.923 148.447C179.291 150.129 180.804 151.181 180.804 151.181L185.294 151.383V151.457L185.266 152.161H185.283C185.272 162.374 193.321 170.871 203.63 171.314C213.95 171.757 222.712 163.975 223.569 153.792C225.643 153.77 235.089 153.697 241.161 153.792C247.999 153.887 249.736 149.853 249.736 149.853L250.353 135.609C250.353 135.609 254.654 135.798 256.654 134.903C258.639 134.017 261.593 129.255 261.593 129.255L266.443 137.704C262.087 140.952 259.166 146.061 258.914 151.91C258.466 162.24 266.487 170.978 276.823 171.426C287.16 171.875 295.912 163.864 296.353 153.523C296.802 143.193 288.78 134.461 278.445 134.018ZM211.26 140.931C214.361 142.925 216.519 146.219 216.971 150.01L211.239 149.765C210.766 148.46 209.932 147.318 208.845 146.482L211.26 140.931ZM205.016 138.936C205.61 138.958 206.181 139.047 206.759 139.16L204.965 145.008C204.893 145.002 204.825 144.997 204.746 144.992C201.736 144.863 199.069 146.6 197.88 149.177L192.15 148.93C193.39 143.003 198.759 138.667 205.016 138.936ZM203.929 164.105C197.202 163.808 191.95 158.307 191.882 151.663L197.224 151.887C197.045 155.876 200.139 159.237 204.124 159.416C208.122 159.59 211.483 156.498 211.653 152.514L216.994 152.75C216.35 159.36 210.65 164.39 203.929 164.105ZM256.296 115.923C244.782 115.039 234.792 119.884 234.792 119.884C234.792 119.884 234.456 120.338 234.108 119.857C232.107 116.999 231.877 114.872 231.877 114.872L236.67 103.735C240.375 108.396 256.401 113.382 256.401 113.382L256.296 115.923ZM277.279 165.018C270.315 164.727 264.912 158.84 265.204 151.876C265.367 148.313 266.998 145.153 269.475 142.98L272.357 147.989C271.196 149.131 270.446 150.689 270.373 152.443C270.215 156.124 273.07 159.227 276.745 159.384C280.416 159.54 283.523 156.689 283.686 153.019C283.843 149.345 280.991 146.236 277.312 146.085C277.039 146.073 276.768 146.085 276.499 146.096C275.828 144.824 274.767 142.818 273.585 140.545C275.076 140.012 276.685 139.749 278.367 139.816C285.329 140.113 290.734 146.006 290.436 152.964C290.126 159.932 284.242 165.326 277.279 165.018Z" fill="#8DC63F"/>
<path fill-rule="evenodd" clip-rule="evenodd" d="M88.2218 99.8294C87.9024 100.026 87.4757 100.126 86.9202 100.126H86.5749C83.7428 99.9698 80.2057 99.7741 75.9629 99.5388C71.724 99.3035 67.0831 99.1852 62.0545 99.1852C59.6947 99.1852 57.5534 99.4998 55.6366 100.127C53.7074 100.756 52.0826 101.83 50.7433 103.365C49.4021 104.899 48.3822 106.956 47.6765 109.549C46.9701 112.138 46.6169 115.359 46.6169 119.207V133.928C46.6169 138.012 47.0273 141.35 47.8554 143.932C48.6808 146.532 49.7449 148.572 51.0354 150.061C52.335 151.552 53.7698 152.577 55.3387 153.126C56.9089 153.68 58.4055 153.949 59.8189 153.949C63.036 153.949 66.0625 153.831 68.8939 153.597V126.507C68.8939 125.879 69.1138 125.329 69.5437 124.86C69.9697 124.389 70.5037 124.153 71.1295 124.153H86.2152C86.8428 124.153 87.3925 124.389 87.8686 124.86C88.3402 125.33 88.5756 125.879 88.5756 126.507V166.083C88.5756 167.573 87.7899 168.48 86.2152 168.783C82.9974 169.422 79.2632 169.993 75.0269 170.497C70.7776 171.008 65.71 171.266 59.8183 171.266C57.6211 171.266 55.2392 171.024 52.6868 170.555C50.1306 170.084 47.6199 169.305 45.1476 168.201C42.67 167.104 40.2933 165.613 38.0116 163.731C35.7357 161.837 33.7128 159.53 31.9417 156.773C30.1757 154.029 28.7799 150.752 27.76 146.948C26.7394 143.139 26.2288 138.758 26.2288 133.817V119.208C26.2288 111.668 27.2871 105.49 29.4134 100.654C31.5306 95.826 34.3008 92.006 37.7202 89.1713C41.1395 86.3477 44.9843 84.3867 49.2668 83.2836C53.5506 82.191 57.8169 81.6352 62.0532 81.6352C67.9501 81.6352 72.9793 81.9667 77.1376 82.633C81.3089 83.3051 84.4869 83.8712 86.6848 84.3412C88.0247 84.5758 88.6914 85.1699 88.6914 86.1118V98.5976C88.6927 99.219 88.5359 99.6337 88.2218 99.8294Z" fill="black"/>
<path fill-rule="evenodd" clip-rule="evenodd" d="M172.25 133.458C172.25 140.287 171.353 146.096 169.544 150.89C167.739 155.675 165.272 159.585 162.133 162.609C158.993 165.629 155.304 167.83 151.071 169.203C146.834 170.575 142.288 171.259 137.428 171.259C132.557 171.259 128.011 170.575 123.779 169.203C119.54 167.831 115.857 165.629 112.712 162.609C109.579 159.585 107.107 155.675 105.302 150.89C103.503 146.096 102.6 140.287 102.6 133.458V119.442C102.6 112.613 103.504 106.805 105.302 102.009C107.106 97.2261 109.578 93.3151 112.712 90.2958C115.857 87.2701 119.54 85.0685 123.779 83.6977C128.011 82.3249 132.557 81.6404 137.428 81.6404C142.288 81.6404 146.834 82.3242 151.071 83.6977C155.304 85.0685 158.993 87.2701 162.133 90.2958C165.271 93.3144 167.738 97.2261 169.544 102.009C171.353 106.804 172.25 112.613 172.25 119.442V133.458ZM152.098 119.409C152.098 112.238 150.899 107.067 148.506 103.919C146.107 100.765 142.435 99.1846 137.485 99.1846C132.537 99.1846 128.88 100.765 126.525 103.919C124.165 107.067 122.989 112.237 122.989 119.409V133.492C122.989 140.662 124.165 145.826 126.525 148.986C128.88 152.133 132.536 153.714 137.485 153.714C142.435 153.714 146.107 152.133 148.506 148.986C150.9 145.826 152.098 140.662 152.098 133.492V119.409Z" fill="black"/>
<path fill-rule="evenodd" clip-rule="evenodd" d="M398.214 171.696C394.789 172.054 389.901 172.233 383.538 172.233C379.767 172.233 376.144 171.914 372.675 171.281C369.198 170.659 366.145 169.444 363.493 167.635C360.842 165.825 358.734 163.26 357.153 159.922C355.572 156.589 354.782 152.253 354.782 146.902V107.807C354.782 102.469 355.572 98.1433 357.153 94.8491C358.734 91.5497 360.842 89.001 363.493 87.1973C366.145 85.3877 369.215 84.1728 372.73 83.5449C376.245 82.9177 379.884 82.6037 383.657 82.6037C386.801 82.6037 389.565 82.6603 391.964 82.7779C394.363 82.8949 396.46 83.0295 398.269 83.192C400.075 83.3441 401.628 83.5007 402.923 83.6619C404.223 83.8134 405.383 83.9752 406.404 84.1325C407.974 84.3685 408.758 85.1524 408.758 86.4797V97.4374C408.758 98.0705 408.528 98.6145 408.051 99.0845C407.58 99.5655 407.026 99.7897 406.404 99.7897H382.48C379.728 99.7897 377.782 100.36 376.643 101.504C375.506 102.641 374.933 104.741 374.933 107.807V118.523H405.462C406.089 118.523 406.64 118.758 407.11 119.229C407.581 119.699 407.816 120.254 407.816 120.876V132.068C407.816 132.696 407.581 133.239 407.11 133.715C406.64 134.187 406.089 134.422 405.462 134.422H374.933V146.902C374.933 149.966 375.506 152.067 376.643 153.209C377.782 154.342 379.727 154.918 382.48 154.918H406.404C407.026 154.918 407.581 155.148 408.051 155.624C408.527 156.095 408.758 156.643 408.758 157.27V168.222C408.758 169.634 407.974 170.463 406.404 170.698C404.359 171.011 401.628 171.349 398.214 171.696Z" fill="black"/>
<path fill-rule="evenodd" clip-rule="evenodd" d="M492.08 84.9567C492.08 85.4273 491.884 85.9772 491.498 86.6097L463.441 126.411L491.611 168.694C491.924 169.091 492.081 169.522 492.081 169.993C492.081 170.777 491.532 171.17 490.434 171.17H470.157C469.451 171.17 468.924 171.012 468.572 170.698C468.213 170.386 467.881 169.993 467.562 169.523L443.649 130.652V168.805C443.649 169.444 443.412 169.993 442.942 170.463C442.465 170.934 441.909 171.169 441.289 171.169H425.844C425.217 171.169 424.667 170.933 424.197 170.463C423.726 169.992 423.491 169.444 423.491 168.805V85.8986C423.491 85.27 423.726 84.7442 424.197 84.308C424.667 83.881 425.217 83.658 425.844 83.658H441.289C441.909 83.658 442.465 83.881 442.942 84.308C443.412 84.7442 443.649 85.27 443.649 85.8986V123.352L469.574 85.0685C470.118 84.128 470.986 83.658 472.164 83.658H490.198C491.448 83.6574 492.08 84.0948 492.08 84.9567Z" fill="black"/>
<path fill-rule="evenodd" clip-rule="evenodd" d="M197.56 53.6033C200.688 51.6761 237.736 25.6781 275.843 55.357C275.843 55.357 279.992 54.3703 279.728 51.6488C279.465 48.9149 240.607 17.3431 193.054 49.3069C191.635 50.2702 194.427 55.5247 197.56 53.6033Z" fill="#8DC63F"/>
<path fill-rule="evenodd" clip-rule="evenodd" d="M206.49 65.5016C208.877 63.9507 237.131 43.0773 266.19 66.9127C266.19 66.9127 269.537 66.1236 269.335 63.9383C269.132 61.7426 239.502 36.3946 203.239 62.0559C202.156 62.8301 204.102 67.0427 206.49 65.5016Z" fill="#8DC63F"/>
<path fill-rule="evenodd" clip-rule="evenodd" d="M216.776 76.1674C218.352 75.0579 236.968 60.0286 256.111 77.1873C256.111 77.1873 258.197 76.3644 258.068 74.7901C257.933 73.2158 238.404 54.9592 214.512 73.44C213.8 73.9945 215.205 77.2822 216.776 76.1674Z" fill="#8DC63F"/>
<path fill-rule="evenodd" clip-rule="evenodd" d="M338.681 163.707C337.797 165.808 336.609 167.477 335.101 168.698C333.587 169.919 331.815 170.789 329.764 171.292C327.729 171.797 325.515 172.048 323.132 172.048C322.051 172.048 320.637 172.256 319.791 172.188C318.945 172.12 309.051 172.435 307.79 172.306C306.854 172.178 306.388 171.646 306.388 170.698L306.102 155.192C306.102 154.884 306.197 154.588 306.394 154.308C306.573 154.017 306.827 153.877 307.146 153.877L315.845 153.939C316.922 153.939 317.589 153.669 317.879 153.137C318.161 152.605 318.3 151.738 318.3 150.544L318.121 85.7809C318.121 85.2824 318.306 84.8501 318.681 84.5089C319.069 84.1611 319.506 83.9941 320.004 83.9941L337.64 84.1117C338.139 84.1117 338.587 84.2853 338.963 84.6265C339.337 84.9684 339.528 85.3935 339.528 85.8986V154.677C339.528 157.87 339.556 161.6 338.681 163.707Z" fill="black"/>
</svg>
