<svg width="111" height="43" viewBox="0 0 111 43" version="1.1" xmlns="http://www.w3.org/2000/svg" xmlns:xlink="http://www.w3.org/1999/xlink">
<title>Matic Logo</title>
<desc>Created using Figma</desc>
<g id="Canvas" transform="translate(-39 -43)">
<g id="Matic Logo">
<g id="Rectangle 2">
<use xlink:href="#path0_fill" transform="translate(39 43)"/>
</g>
<g id="MATIC">
<use xlink:href="#path1_fill" transform="translate(51 50)" fill="#FFFFFF"/>
</g>
</g>
</g>
<defs>
<path id="path0_fill" d="M 0 0L 111 0L 111 43L 0 43L 0 0Z"/>
<path id="path1_fill" d="M 1.61209 6.176L 6.96409 6.176L 11.4761 15.512L 15.9641 6.176L 21.3161 6.176L 21.3161 23L 16.9241 23L 16.9241 13.016L 13.0841 21.344L 9.84409 21.344L 6.00409 13.016L 6.00409 23L 1.61209 23L 1.61209 6.176ZM 38.391 23L 37.407 20.312L 30.615 20.312L 29.607 23L 24.471 23L 31.647 6.176L 36.783 6.176L 43.719 23L 38.391 23ZM 32.007 16.664L 36.087 16.664L 34.071 11.168L 32.007 16.664ZM 43.7192 6.176L 58.5032 6.176L 58.5032 10.16L 53.6072 10.16L 53.6072 23L 48.5912 23L 48.5912 10.16L 43.7192 10.16L 43.7192 6.176ZM 61.9815 6.176L 66.9735 6.176L 66.9735 23L 61.9815 23L 61.9815 6.176ZM 83.8976 12.296C 83.3696 11.592 82.7376 11.04 82.0016 10.64C 81.2816 10.224 80.5776 10.016 79.8896 10.016C 79.1376 10.016 78.4576 10.208 77.8496 10.592C 77.2416 10.976 76.7616 11.512 76.4096 12.2C 76.0576 12.872 75.8816 13.632 75.8816 14.48C 75.8816 15.328 76.0576 16.096 76.4096 16.784C 76.7616 17.456 77.2416 17.992 77.8496 18.392C 78.4576 18.776 79.1376 18.968 79.8896 18.968C 80.5296 18.968 81.2096 18.792 81.9296 18.44C 82.6656 18.088 83.3216 17.608 83.8976 17L 86.7776 20.072C 85.8656 21.064 84.7616 21.856 83.4656 22.448C 82.1856 23.04 80.9136 23.336 79.6496 23.336C 77.9696 23.336 76.4496 22.96 75.0896 22.208C 73.7456 21.44 72.6896 20.384 71.9216 19.04C 71.1536 17.696 70.7696 16.192 70.7696 14.528C 70.7696 12.896 71.1616 11.424 71.9456 10.112C 72.7296 8.784 73.8096 7.744 75.1856 6.992C 76.5616 6.24 78.1056 5.864 79.8176 5.864C 81.0816 5.864 82.3456 6.136 83.6096 6.68C 84.8736 7.224 85.9296 7.952 86.7776 8.864L 83.8976 12.296Z"/>
</defs>
</svg>