<svg width="224" height="88" viewBox="0 0 224 88" fill="none" xmlns="http://www.w3.org/2000/svg">
<path d="M90.8 26.8L96.6 25.4V53.4C96.6 56.5 97.5 58.3 99.3 58.9C98.4 60.6 96.9 61.5 94.7 61.5C92.1 61.5 90.7 59.7 90.7 56V26.8H90.8Z" fill="black"/>
<path d="M105.4 61V40.8H102.2V36H111.3V61H105.4ZM108.4 26.4C109.3 26.4 110.1 26.7 110.8 27.4C111.5 28.1 111.8 28.9 111.8 29.8C111.8 30.7 111.5 31.5 110.8 32.2C110.1 32.9 109.3 33.2 108.4 33.2C107.5 33.2 106.7 32.9 106 32.2C105.3 31.5 105 30.7 105 29.8C105 28.9 105.3 28.1 106 27.4C106.7 26.7 107.5 26.4 108.4 26.4Z" fill="black"/>
<path d="M134.1 61V46.6C134.1 44.5 133.7 42.9 132.9 42C132.1 41 130.8 40.5 128.9 40.5C128 40.5 127.1 40.7 126.2 41.2C125.2 41.7 124.5 42.3 123.9 43V61H118.1V36.1H122.3L123.4 38.4C125 36.5 127.3 35.6 130.4 35.6C133.4 35.6 135.7 36.5 137.4 38.3C139.1 40.1 140 42.6 140 45.7V61H134.1Z" fill="black"/>
<path d="M144.5 48.5C144.5 44.7 145.6 41.6 147.8 39.2C150 36.8 152.9 35.6 156.5 35.6C160.3 35.6 163.2 36.7 165.3 39C167.4 41.3 168.4 44.4 168.4 48.4C168.4 52.4 167.3 55.5 165.2 57.9C163.1 60.2 160.2 61.4 156.4 61.4C152.6 61.4 149.7 60.2 147.6 57.9C145.6 55.5 144.5 52.4 144.5 48.5ZM150.6 48.5C150.6 54 152.6 56.7 156.5 56.7C158.3 56.7 159.7 56 160.8 54.6C161.9 53.2 162.4 51.1 162.4 48.5C162.4 43.1 160.4 40.4 156.5 40.4C154.7 40.4 153.2 41.1 152.2 42.5C151.1 43.9 150.6 45.9 150.6 48.5Z" fill="black"/>
<path d="M189.1 61V59.5C188.6 60 187.8 60.5 186.7 60.9C185.6 61.3 184.4 61.5 183.1 61.5C179.6 61.5 176.9 60.4 174.9 58.2C172.9 56 171.9 52.9 171.9 49C171.9 45.1 173 41.9 175.3 39.4C177.6 36.9 180.4 35.7 183.9 35.7C185.8 35.7 187.5 36.1 189.1 36.9V26.9L194.9 25.5V61H189.1ZM189.1 42C187.9 41 186.6 40.5 185.2 40.5C182.9 40.5 181.1 41.2 179.8 42.6C178.5 44 177.9 46.1 177.9 48.7C177.9 53.9 180.4 56.5 185.4 56.5C186 56.5 186.6 56.3 187.5 56C188.3 55.7 188.8 55.3 189.1 55V42V42Z" fill="black"/>
<path d="M223 50.3H205.2C205.3 52.3 206 53.8 207.2 54.9C208.5 56 210.1 56.6 212.3 56.6C214.9 56.6 217 55.9 218.3 54.5L220.6 58.9C218.6 60.6 215.5 61.4 211.4 61.4C207.6 61.4 204.6 60.3 202.4 58.1C200.2 55.9 199.1 52.8 199.1 48.8C199.1 44.9 200.3 41.7 202.7 39.3C205.1 36.9 208 35.7 211.4 35.7C215 35.7 217.9 36.8 220.1 38.9C222.3 41.1 223.4 43.8 223.4 47.1C223.5 47.8 223.3 48.8 223 50.3ZM205.4 45.9H217.6C217.2 42.3 215.2 40.4 211.6 40.4C208.3 40.5 206.2 42.3 205.4 45.9Z" fill="black"/>
<path d="M62.9 46.4L61.9 57.9L58.6 55.6L59 49.8C59 49.8 59 49.8 59 49.7V49.6L58.9 49.5C58.9 49.5 58.9 49.5 58.8 49.4L51.7 44.7L51.8 39.6L62.9 46.4ZM45.5 58.9L40.4 55V55.9C40.4 56.1 40.3 56.3 40.2 56.4L36.4 59L40.6 62.4C40.6 62.4 40.6 62.4 40.7 62.5C40.7 62.5 40.7 62.5 40.7 62.6V62.7L40.9 66.7L45.6 70.6L45.5 58.9ZM13.4 63.9L15.8 75.4L25.7 85.9L24 74.3L13.4 63.9ZM22.7 65.6L20.3 49.5L8.29999 39.5L11.5 55.1L22.7 65.6ZM18.9 39.6L15.6 16.8L1.79999 8.2L6.29999 29.7L18.9 39.6Z" fill="#004712"/>
<path d="M72.7 40.2L71.2 51.1L63 57.7L64 46.5L72.7 40.2ZM46.6 58.9L46.7 70.7L57.2 62.3L57.9 50.8L46.6 58.9ZM39.8 63.7L25 74.3L26.8 86.5L40.2 75.8L39.8 63.7ZM39.4 55.7L38.7 39.7L21.4 49.6L23.8 66.2L39.4 55.7ZM38.3 30.4L37.4 8.8L16.6 16.8L20 40L38.3 30.4Z" fill="#00B259"/>
<path d="M73.9 39C73.9 38.9 73.9 38.9 73.9 39C73.9 38.9 73.9 38.9 73.9 38.8C73.9 38.8 73.9 38.7 73.8 38.7C73.8 38.7 73.7 38.7 73.7 38.6L61.7 31.9C61.5 31.8 61.3 31.8 61.2 31.9L51 38.1C51 38.1 51 38.1 50.9 38.1C50.9 38.1 50.9 38.1 50.9 38.2C50.9 38.2 50.9 38.2 50.9 38.3C50.9 38.3 50.9 38.3 50.9 38.4C50.9 38.4 50.9 38.4 50.9 38.5V38.6C50.9 38.6 50.9 38.6 50.9 38.7L50.8 44.1L46.7 41.4C46.5 41.3 46.3 41.3 46.1 41.4L40 44.8L39.7 38.8V38.7C39.7 38.7 39.7 38.7 39.7 38.6C39.7 38.6 39.7 38.6 39.7 38.5C39.7 38.5 39.7 38.5 39.7 38.4C39.7 38.4 39.7 38.4 39.7 38.3C39.7 38.3 39.7 38.3 39.6 38.3L33.4 34.2L39.2 31.2C39.4 31.1 39.5 30.9 39.5 30.7L38.4 8V7.9C38.4 7.9 38.4 7.8 38.3 7.8C38.3 7.8 38.3 7.7 38.2 7.7L22.5 0.1C22.4 2.23517e-08 22.3 0 22.2 0L0.900012 6.6C0.900012 6.6 0.800012 6.6 0.800012 6.7C0.800012 6.7 0.700012 6.7 0.700012 6.8C0.700012 6.8 0.700012 6.8 0.700012 6.9C0.700012 6.9 0.700012 6.9 0.700012 7V7.1C0.700012 7.1 0.700012 7.1 0.700012 7.2V7.3C0.700012 7.3 0.700012 7.3 0.700012 7.4L5.40001 30.3C5.40001 30.4 5.50001 30.5 5.60001 30.6L12 35.6L7.30001 37.8C7.30001 37.8 7.20001 37.8 7.20001 37.9C7.20001 37.9 7.20001 38 7.10001 38V38.1V38.2L10.7 55.4C10.7 55.5 10.8 55.6 10.9 55.7L15.4 59.9L12.4 61.7L12.3 61.8C12.3 61.8 12.3 61.9 12.2 61.9V62C12.2 62.1 12.2 62.1 12.2 62.2L15 75.5C15 75.6 15.1 75.7 15.1 75.8L26 87.8C26 87.8 26 87.8 26.1 87.8C26.1 87.8 26.2 87.8 26.2 87.9C26.3 87.9 26.3 87.9 26.4 87.9C26.5 87.9 26.5 87.9 26.6 87.9C26.6 87.9 26.6 87.9 26.7 87.9L41.1 76.4C41.2 76.3 41.3 76.1 41.3 76L41 68.1L45.8 72.1C45.8 72.1 45.9 72.1 45.9 72.2C46 72.2 46 72.2 46.1 72.2C46.2 72.2 46.2 72.2 46.3 72.2C46.3 72.2 46.3 72.2 46.4 72.2L58 63C58.1 62.9 58.2 62.8 58.2 62.6L58.6 56.8L62.1 59.2C62.1 59.2 62.1 59.2 62.2 59.2H62.3C62.4 59.2 62.4 59.2 62.5 59.2C62.5 59.2 62.6 59.2 62.6 59.1L72 51.6C72.1 51.5 72.2 51.4 72.2 51.3L73.9 39C73.9 39.1 73.9 39.1 73.9 39ZM63 57.7L64 46.5L72.8 40.2L71.3 51.1L63 57.7ZM58.6 55.6L59 49.8C59 49.8 59 49.8 59 49.7V49.6L58.9 49.5C58.9 49.5 58.9 49.5 58.8 49.4L51.7 44.7L51.8 39.6L62.9 46.5L61.9 58L58.6 55.6ZM57.1 62.3L46.6 70.7L46.5 58.9L57.8 50.8L57.1 62.3ZM40.3 75.8L26.8 86.5L25 74.3L39.7 63.8L40.3 75.8ZM15.7 75.4L13.3 63.9L24 74.3L25.7 85.9L15.7 75.4ZM15.5 16.8L18.8 39.6L6.30001 29.7L1.80001 8.2L15.5 16.8ZM37.4 8.8L38.3 30.4L20 40L16.6 16.8L37.4 8.8ZM39.4 55.7L23.8 66.1L21.4 49.5L38.7 39.6L39.4 55.7ZM20.3 49.6L22.7 65.7L11.5 55.1L8.30001 39.5L20.3 49.6ZM40.8 62.7C40.8 62.6 40.8 62.6 40.8 62.6V62.5C40.8 62.5 40.8 62.5 40.7 62.4L36.5 59L40.3 56.4C40.5 56.3 40.5 56.1 40.5 55.9V55L45.6 58.9L45.7 70.7L41 66.8L40.8 62.7Z" fill="black"/>
</svg>
