<svg width="805" height="267" viewBox="0 0 805 267" fill="none" xmlns="http://www.w3.org/2000/svg">
<path d="M110.2 216.375V182.175C146.4 182.175 174.5 146.275 160.6 108.175C155.5 94.175 144.2 82.875 130.1 77.775C92 63.975 56.1 91.975 56.1 128.175H22C22 70.475 77.8 25.475 138.3 44.375C164.7 52.675 185.8 73.675 194 100.075C212.9 160.575 167.9 216.375 110.2 216.375Z" fill="#0080FF"/>
<path fill-rule="evenodd" clip-rule="evenodd" d="M110.3 182.375H76.2V148.275H110.3V182.375Z" fill="#0080FF"/>
<path fill-rule="evenodd" clip-rule="evenodd" d="M76.2 208.475H50.1V182.375H76.2V208.475Z" fill="#0080FF"/>
<path fill-rule="evenodd" clip-rule="evenodd" d="M50.1 182.375H28.2V160.475H50.1V182.375Z" fill="#0080FF"/>
<path d="M285.357 101.904C278.676 97.1671 270.174 94.875 260.457 94.875H239.2V162.875H260.608C270.326 162.875 278.828 160.43 285.509 155.387C289.153 152.79 292.038 149.122 294.163 144.538C296.137 139.954 297.2 134.452 297.2 128.493C297.2 122.533 296.137 117.185 294.163 112.601C292.038 108.017 289.153 104.349 285.357 101.904ZM251.65 106.336H258.331C265.771 106.336 271.844 107.864 276.551 110.767C281.713 113.976 284.294 119.936 284.294 128.493C284.294 137.356 281.713 143.621 276.551 146.983C272.148 149.886 266.074 151.414 258.483 151.414H251.65V106.336Z" fill="#0080FF"/>
<path d="M311.7 93.875C309.557 93.875 307.873 94.6482 306.343 96.0399C304.965 97.4317 304.2 99.1327 304.2 101.298C304.2 103.463 304.965 105.164 306.343 106.71C307.72 108.102 309.557 108.875 311.7 108.875C313.69 108.875 315.526 108.102 317.057 106.71C318.435 105.318 319.2 103.463 319.2 101.298C319.2 99.1327 318.435 97.4317 317.057 96.0399C315.526 94.6482 313.69 93.875 311.7 93.875Z" fill="#0080FF"/>
<path d="M318.2 114.875H306.2V162.875H318.2V114.875Z" fill="#0080FF"/>
<path d="M361.527 119.024C357.84 115.844 353.847 113.875 349.393 113.875C342.635 113.875 337.105 116.147 332.805 120.69C328.504 125.082 326.2 130.837 326.2 137.804C326.2 144.467 328.35 150.222 332.651 154.766C336.952 159.158 342.635 161.43 349.239 161.43C353.847 161.43 357.994 160.218 361.22 157.643V158.703C361.22 162.641 360.144 165.67 357.994 167.79C355.844 169.911 352.925 170.971 349.239 170.971C343.71 170.971 340.177 168.85 335.876 163.095L327.582 170.971L327.736 171.274C329.579 173.697 332.19 176.12 335.876 178.392C339.409 180.663 344.017 181.875 349.393 181.875C356.612 181.875 362.448 179.755 366.749 175.363C371.05 170.971 373.2 165.216 373.2 158.098V114.935H361.22V119.024H361.527ZM358.301 147.193C356.151 149.617 353.386 150.677 350.007 150.677C346.474 150.677 343.863 149.465 341.713 147.193C339.563 144.77 338.641 141.741 338.641 137.955C338.641 134.018 339.716 130.989 341.713 128.565C343.71 126.142 346.628 125.082 350.007 125.082C353.54 125.082 356.151 126.294 358.301 128.565C360.452 130.989 361.527 134.169 361.527 137.955C361.527 141.741 360.452 144.77 358.301 147.193Z" fill="#0080FF"/>
<path d="M395.2 114.875H383.2V162.875H395.2V114.875Z" fill="#0080FF"/>
<path d="M389.7 93.875C387.557 93.875 385.873 94.6482 384.343 96.0399C382.965 97.4317 382.2 99.1327 382.2 101.298C382.2 103.463 382.965 105.164 384.343 106.71C385.72 108.102 387.557 108.875 389.7 108.875C391.69 108.875 393.526 108.102 395.057 106.71C396.435 105.318 397.2 103.463 397.2 101.298C397.2 99.1327 396.435 97.4317 395.057 96.0399C393.526 94.6482 391.843 93.875 389.7 93.875Z" fill="#0080FF"/>
<path d="M421.931 101.875H410.053V114.87H403.2V125.877H410.053V145.752C410.053 152.02 411.271 156.454 413.708 159.053C416.144 161.652 420.56 162.875 426.652 162.875C428.631 162.875 430.611 162.875 432.439 162.722H433.048V151.715L428.936 151.867C426.043 151.867 424.215 151.409 423.301 150.339C422.388 149.268 421.931 147.128 421.931 143.918V125.725H433.2V114.717H421.931V101.875Z" fill="#0080FF"/>
<path d="M501.2 94.875H489.2V162.875H501.2V94.875Z" fill="#0080FF"/>
<path d="M622.214 145.582C620.063 148.021 617.76 150.155 616.07 151.223C614.381 152.29 612.231 152.899 609.773 152.899C606.241 152.899 603.323 151.68 601.019 148.936C598.715 146.344 597.487 142.838 597.487 138.875C597.487 134.759 598.715 131.405 601.019 128.814C603.323 126.223 606.241 124.851 609.773 124.851C613.613 124.851 617.76 127.29 621.292 131.405L629.278 123.783C624.057 117.076 617.453 113.875 609.466 113.875C602.862 113.875 597.026 116.314 592.265 121.04C587.504 125.765 585.2 131.71 585.2 138.875C585.2 146.04 587.657 151.985 592.265 156.71C597.026 161.436 602.708 163.875 609.466 163.875C618.22 163.875 625.285 160.064 630.2 153.204L622.214 145.582Z" fill="#0080FF"/>
<path d="M671.328 121.649C669.653 119.21 667.37 117.381 664.477 116.009C661.584 114.637 658.235 113.875 654.581 113.875C647.882 113.875 642.401 116.314 638.29 121.192C634.331 126.07 632.2 132.015 632.2 139.18C632.2 146.497 634.484 152.442 638.747 157.015C643.162 161.588 648.947 163.875 656.103 163.875C664.172 163.875 670.871 160.521 675.895 154.119L676.2 153.814L668.283 146.192C667.522 147.107 666.456 148.021 665.543 148.936C664.325 150.003 663.259 150.918 662.041 151.527C660.214 152.442 658.235 152.899 655.951 152.899C652.601 152.899 649.861 151.985 647.729 150.003C645.75 148.174 644.532 145.735 644.228 142.686H676.048L676.2 138.265C676.2 135.216 675.743 132.168 674.982 129.424C674.221 126.68 673.003 124.088 671.328 121.649ZM644.989 132.93C645.598 130.643 646.664 128.662 648.186 127.29C649.861 125.613 651.992 124.851 654.428 124.851C657.321 124.851 659.605 125.613 661.127 127.29C662.498 128.814 663.411 130.643 663.563 132.93H644.989Z" fill="#0080FF"/>
<path d="M717.256 118.615C713.598 115.557 708.568 113.875 702.319 113.875C698.356 113.875 694.546 114.792 691.193 116.474C687.992 118.003 684.943 120.756 682.962 124.12L683.114 124.273L690.888 131.612C694.088 126.566 697.594 124.731 702.319 124.731C704.91 124.731 706.891 125.343 708.568 126.719C710.092 128.095 711.007 129.777 711.007 131.918V134.211C707.958 133.294 705.062 132.835 702.167 132.835C696.222 132.835 691.345 134.211 687.687 136.964C684.029 139.716 682.2 143.844 682.2 149.043C682.2 153.63 683.724 157.147 686.925 159.899C690.126 162.499 693.936 163.875 698.509 163.875C703.081 163.875 707.349 162.04 711.311 158.829V162.805H723.2V131.918C722.743 126.26 720.914 121.673 717.256 118.615ZM695.917 144.609C697.289 143.691 699.271 143.233 701.709 143.233C704.605 143.233 707.654 143.844 710.854 144.915V149.655C708.263 152.101 704.758 153.325 700.49 153.325C698.356 153.325 696.832 152.866 695.613 151.948C694.546 151.031 693.936 149.961 693.936 148.432C693.936 146.75 694.546 145.526 695.917 144.609Z" fill="#0080FF"/>
<path d="M769.096 119.523C765.693 115.707 760.898 113.875 754.865 113.875C750.07 113.875 746.049 115.249 743.11 117.996V115.096H731.2V162.875H743.419V136.467C743.419 132.803 744.347 129.903 746.049 127.919C747.75 125.934 750.07 124.866 753.319 124.866C756.103 124.866 758.114 125.781 759.66 127.613C761.207 129.445 761.98 132.04 761.98 135.093V162.875H774.2V135.093C774.2 128.529 772.498 123.186 769.096 119.523Z" fill="#0080FF"/>
<path d="M474.256 118.615C470.598 115.557 465.568 113.875 459.319 113.875C455.356 113.875 451.546 114.792 448.193 116.474C444.992 118.003 441.943 120.756 439.962 124.12L440.114 124.273L447.888 131.612C451.088 126.566 454.594 124.731 459.319 124.731C461.91 124.731 463.891 125.343 465.568 126.719C467.092 128.095 468.007 129.777 468.007 131.918V134.211C464.958 133.294 462.062 132.835 459.167 132.835C453.222 132.835 448.345 134.211 444.687 136.964C441.029 139.716 439.2 143.844 439.2 149.043C439.2 153.63 440.724 157.147 443.925 159.899C447.126 162.499 450.936 163.875 455.509 163.875C460.081 163.875 464.349 162.04 468.311 158.829V162.805H480.2V131.918C479.743 126.26 477.914 121.673 474.256 118.615ZM452.917 144.609C454.289 143.691 456.271 143.233 458.709 143.233C461.605 143.233 464.653 143.844 467.854 144.915V149.655C465.263 152.101 461.758 153.325 457.49 153.325C455.356 153.325 453.832 152.866 452.613 151.948C451.546 151.031 450.936 149.961 450.936 148.432C450.936 146.75 451.546 145.526 452.917 144.609Z" fill="#0080FF"/>
<path d="M544.2 163.875C524.874 163.875 509.2 148.201 509.2 128.875C509.2 109.549 524.874 93.875 544.2 93.875C563.526 93.875 579.2 109.549 579.2 128.875C579.2 148.201 563.526 163.875 544.2 163.875ZM544.2 106.201C531.722 106.201 521.526 116.397 521.526 128.875C521.526 141.353 531.722 151.549 544.2 151.549C556.678 151.549 566.874 141.353 566.874 128.875C566.874 116.397 556.678 106.201 544.2 106.201Z" fill="#0080FF"/>
</svg>
