<svg id="Layer_1" xmlns="http://www.w3.org/2000/svg" viewBox="0 0 878 342"><style>.st0{fill:#ffe94d}.st1{fill:#ff9c92}.st2{fill:#53d3e0}.st3{fill:#5a9ded}.st4,.st5{opacity:.75;fill:#88d848}.st5{fill:#cc71c3}.st6{fill:#22222d}</style><path class="st0" d="M134.7 219.9V38L58 171.1z"/><path class="st1" d="M134.7 38l76.6 133.1-76.6 48.8z"/><path class="st2" d="M58 186.8l76.7 48.9v63.1"/><path class="st3" d="M211.3 186.8l-76.6 48.9v63.1"/><path class="st4" d="M134.7 127.5L58 171.1l76.7 48.8z"/><path class="st5" d="M134.7 127.5l76.6 43.6-76.6 48.8z"/><path class="st6" d="M261 123c.3 9.4 7.1 13.9 14.9 13.9 5 0 9.9-2 11.9-6.6h13c-2.9 12.2-14 18.6-25.5 18.6-13.9 0-27.7-9.4-27.7-29.9 0-19.8 13.1-30 27.8-30 14 0 25.9 9.3 25.9 28.3v5.7H261zm.4-10.2h26.2c0-7.6-5.3-11.9-12.4-11.9-6.4 0-12.6 3.5-13.8 11.9zm83.9 34.8h-9.1c-10.9 0-17.7-3.4-17.7-18.8v-26.3H308V90h10.5V77l13.9-3.8V90h11.5v12.5h-11.5v25.9c0 4 1.1 6.9 6.9 6.9h5.9v12.3zm64-37.2v37.2h-13.9v-36c0-6.5-3.9-10.3-10.8-10.3-8.3 0-12.7 5.7-12.7 15.1v31.1H358V68h14v30.5c3.2-5.5 7.7-9.5 17.5-9.5 13.1-.1 19.8 7.7 19.8 21.4zm26.9 12.6c.3 9.4 7.1 13.9 14.9 13.9 5 0 9.9-2 11.9-6.6h13c-2.9 12.2-14 18.6-25.5 18.6-13.9 0-27.7-9.4-27.7-29.9 0-19.8 13.1-30 27.8-30 14 0 25.9 9.3 25.9 28.3v5.7h-40.3zm.3-10.2h26.2c0-7.6-5.3-11.9-12.4-11.9-6.4 0-12.5 3.5-13.8 11.9zm86.5-10h-3.7c-9.7 0-15 5.3-15 16.6v28.2h-13.9V90h13.8v8.5c2.9-6.3 8.3-9.2 15-9.2h3.8v13.5zm20.2 20.2c.3 9.4 7.1 13.9 14.9 13.9 5 0 9.9-2 11.9-6.6h13c-2.9 12.2-14 18.6-25.5 18.6-13.9 0-27.7-9.4-27.7-29.9 0-19.8 13.1-30 27.8-30 14 0 25.9 9.3 25.9 28.3v5.7h-40.3zm.3-10.2h26.2c0-7.6-5.3-11.9-12.4-11.9-6.4 0-12.6 3.5-13.8 11.9zm103.6 34.8h-13.6v-8.2c-3.4 5.4-8.1 8.8-16 8.8-12.1 0-20.7-7.7-20.7-22.5V90h13.9v34.8c0 7.8 4.1 11.2 10.1 11.2 6.5 0 12.4-4.8 12.4-18.1V90h13.9v57.6zm100.1-38.8v38.9h-13.9v-36.2c0-6.8-3.2-10-9.2-10-6.6 0-11.1 4-11.1 13.8v32.4h-13.9v-36.2c0-6.8-3.5-10-9.3-10-6.5 0-11 4.1-11 13.7v32.5H665V90h13.7v8.5c1.8-4.6 6.4-9.5 15.1-9.5 7.7 0 13.4 3.5 16.1 9.5 2.2-4.1 6.6-9.5 17-9.5 12.5-.1 20.3 7.3 20.3 19.8zm-474.1 79.5c-4.9 0-5.8 2.5-5.8 5.8v3.8h10.6v12.5h-10.6v45.1h-13.9v-45.1h-8.6V198h8.6v-3.1c0-15.5 6.8-18.8 17.6-18.8h8.4v12.3h-6.3zm69.7 38.5c0 18.8-11.8 30-28.7 30-16.8 0-28.6-11.2-28.6-30 0-18.7 11.8-29.9 28.6-29.9 16.9 0 28.7 11.2 28.7 29.9zm-43 0c0 11.6 6.2 17.1 14.6 17.1 9 0 14.2-6.3 14.2-17.1 0-11.5-6.2-17-14.6-17-9 0-14.2 6.3-14.2 17zm106.7 28.8H393v-8.2c-3.4 5.4-8.1 8.8-16 8.8-12.1 0-20.7-7.7-20.7-22.5V198h13.9v34.8c0 7.8 4.1 11.2 10.1 11.2 6.5 0 12.4-4.8 12.4-18.1V198h13.9v57.6zm69.1-37.2v37.2h-13.9v-36c0-6.5-3.9-10.3-10.8-10.3-8.3 0-12.7 5.7-12.7 15.1v31.1h-13.9V198h13.8v8.4c3.2-5.4 8-9.4 17.6-9.4 13.2-.1 19.9 7.7 19.9 21.4zm71.3 37.2h-13.7v-8.8c-3.1 6.6-10.3 10.1-18.3 10.1-14.1 0-25.9-9.9-25.9-30.1 0-19.9 11.8-29.8 25.9-29.8 7.5 0 14.6 3 18 8.6V176h13.9v79.6zm-13.6-28.9c0-11.9-7.6-17.5-15.1-17.5-8.1 0-15 5.7-15 17.5 0 11.6 6.9 17.4 15 17.4 7.5 0 15.1-5.6 15.1-17.4zm77.8-9.8v38.8h-13.6v-8.4c-4.5 7.4-12 9.6-18.1 9.6-9.2 0-18.6-4.9-18.6-17.1 0-14.4 13.1-16.9 18.4-17.7l12-1.7c2.6-.3 6.8-1.5 6.8-6.2 0-4.6-4.1-6.3-9.4-6.3-7.7 0-11.5 3.6-12.1 8.5h-13.3c1.5-13.4 13-19.5 26-19.5 13.7 0 21.9 6.4 21.9 20zm-13.4 14.5v-3c-1.8.8-3.7 1.2-6.9 1.7l-6.8.9c-3.6.4-9.3 2-9.3 7.7 0 4.4 3.4 6.6 8.4 6.6 8.1 0 14.6-5.9 14.6-13.9zm60.3 24.2h-9.1c-10.9 0-17.7-3.4-17.7-18.8v-26.3h-10.5V198h10.5v-13l13.9-3.8V198h11.5v12.5h-11.5v25.9c0 4 1.1 6.9 6.9 6.9h5.9v12.3zm12.1-81.1h14.8v15.8h-14.8v-15.8zm.4 81.1h13.9V198h-13.9v57.6zm84.8-28.8c0 18.8-11.8 30-28.7 30-16.8 0-28.6-11.2-28.6-30 0-18.7 11.8-29.9 28.6-29.9 16.9 0 28.7 11.2 28.7 29.9zm-43 0c0 11.6 6.2 17.1 14.6 17.1 9 0 14.2-6.3 14.2-17.1 0-11.5-6.2-17-14.6-17-9 0-14.2 6.3-14.2 17zm108.2-8.4v37.2h-13.9v-36c0-6.5-3.9-10.3-10.8-10.3-8.3 0-12.7 5.7-12.7 15.1v31.1h-13.9V198H783v8.4c3.2-5.4 8-9.4 17.6-9.4 13.1-.1 19.9 7.7 19.9 21.4z"/></svg>