<svg version="1" xmlns="http://www.w3.org/2000/svg" width="3544" height="832" viewBox="0 0 2658.000000 624.000000"><g fill="#455BA8"><path d="M339.5 1c.3.5 1 1 1.6 1 .5 0 .9-.5.9-1 0-.6-.7-1-1.6-1-.8 0-1.2.4-.9 1zm28.9 8.1c-.9 1.6 1.2 3.3 3.1 2.5 1.4-.5 1.5-.9.5-2.1-1.5-1.8-2.6-1.9-3.6-.4zm28.3 10.6c-.4.3-.7 1.7-.7 3 0 1.8.5 2.3 2.5 2.3 1.4 0 2.8-.7 3.1-1.5 1.1-2.7-3-5.8-4.9-3.8zM257.3 26c-4.3 1.7-4.1 8.4.3 10 3.2 1.2 7-.3 7.7-3 .6-2.5-.8-7-2.2-7-.5 0-1.5-.2-2.3-.4-.7-.3-2.3-.1-3.5.4zm30.1.8c-2.6 1.7-3.5 5.1-2.2 7.9 3 6.3 11.8 4.8 11.8-2.1 0-1.9-.8-4-1.8-4.9-1.9-1.8-5.9-2.2-7.8-.9zm-61.7 3c-2.2 2.4-2.1 4.5.1 6.5 2.4 2.2 4.5 2.1 6.5-.1 2.1-2.3 2.2-4.6.1-6.6-2.1-2.1-4.7-2-6.7.2zm90.9 1.8c-5.7 5.6-.2 14 7.9 12 4.4-1.1 5.5-8.4 1.9-12.1-2-2-7.8-1.9-9.8.1zm-120.4 3.3c-.8.5-1.2 2.1-1 3.7.3 2.5.7 2.9 3.3 2.9 2.6 0 3-.4 3.3-2.9.3-2.7-1-4.6-3.3-4.6-.5 0-1.6.4-2.3.9zm226.2.5c-1.2 3.1.1 5.1 3.2 5.4 3.4.3 4.9-1.6 3.9-4.9-.8-2.3-6.3-2.6-7.1-.5zM346 39.8c-3.6 3.7-3.9 7.1-.6 10.8 1.7 2.1 3.3 2.8 5.9 2.8 5.1 0 7.7-2.7 7.7-7.9 0-4.8-1.9-7.1-6.8-8.1-2.6-.5-3.6-.1-6.2 2.4zm-178.7 3.9c-.7.2-1.3 1.6-1.3 2.9 0 1.9.5 2.4 2.5 2.4 3 0 4.3-2.4 2.5-4.5-1.3-1.6-1.7-1.7-3.7-.8zm206.2 7.8c-3.8 3.7-3.5 9.5.7 13 6 5 14.3 1.3 14.3-6.4 0-8.3-9.3-12.3-15-6.6zm73.4 1.6c-1.8 3.4.3 6.9 4.1 6.9 2.2 0 3.3-.6 4.1-2.4 1.6-3.5-.3-6.6-4.1-6.6-2 0-3.3.7-4.1 2.1zm-182.7 1.4c-1.8.8-4.6 2.4-6.2 3.5-2 1.4-3.1 1.7-3.6.9-1.3-2.1-8.9-4.9-13.7-4.9-6 0-10.7 2.1-14.7 6.6l-3 3.5-2.8-2.1c-3.3-2.5-9.5-3.5-14.7-2.6-4.3.8-10.3 5.9-12.2 10.3L192 73l-2.9-2.1c-6.1-4.5-15.3-3.4-21.1 2.6-2.6 2.7-3.4 4.4-3.8 8.4l-.4 5-3.2-2.3c-6.6-5-15.1-4.2-20.5 1.9-2.7 3.1-3.1 4.3-3.1 9.2 0 9.5 5.6 15.3 14.7 15.3 7.3 0 14.3-6.8 14.3-13.9v-3.3l3.5 3c6.2 5.5 14.9 5.5 21.1 0 2-1.8 4-4.3 4.5-5.6.9-2.3 1.1-2.3 2.7-.9 2.7 2.4 8.7 4.7 12.4 4.7 4.4-.1 11-3.1 13.5-6.4 1.9-2.4 2.2-2.4 3.4-.9 2.3 2.7 9.1 5.3 14 5.3 3 0 6.2-.9 9.3-2.5l4.7-2.5 3.7 3c5.6 4.5 13.9 5.4 23 2.5 1.4-.5 2.2-.3 2.2.4 0 .6-.8 1.1-1.7 1.1-1 0-3.5 1.1-5.6 2.3l-3.9 2.3-4.5-2.3c-3.3-1.6-6.4-2.3-10.5-2.3-6.6 0-10.8 1.5-15.4 5.3-3 2.5-3.4 2.6-6 1.3-8.2-4.3-18.9-2.3-25.1 4.7-3.7 4.2-3.9 4.3-6.8 3.1-9-3.9-21.9 1-25.5 9.5-1 2.6-1.3 2.6-9.9 2.6-8.5 0-9.1.2-12.8 3.1-2.4 2-4.5 4.9-5.8 8.2l-2 5.1-4.2-.6c-5.9-.8-10.7.4-14.4 3.4-3.7 3.2-6.8 9.5-6.9 13.9 0 3.1-.1 3.2-3.5 2.4-6.7-1.5-14 1.5-17.6 7.3-1.6 2.6-1.9 4.5-1.7 9.8l.4 6.6-2.9-1c-3.4-1.2-9-.4-12.4 1.8-9.2 6.1-8.2 21.7 1.7 26.7 4.7 2.4 8.7 2.3 14-.5 5.8-3 8.3-7.5 7.7-14.4-.4-5.6-.3-5.7 6.2-3.7 2.7.8 9.6-1.9 12.7-5 3.2-3.2 6-10.6 5-13.2-.4-1.1-.1-1.2 1.4-.4 2.7 1.5 11.7 1.2 14.8-.4 3.7-2 7.8-6.5 8.9-10.1.9-2.5 1.5-3 3.9-2.7 5.3.5 5.5.8 2.9 5.4-1.4 2.4-2.5 5-2.5 5.9 0 1.2-1.3 1.8-5.1 2.2-10.4 1.3-17.8 8.3-18.7 17.8-.4 4.8-.5 4.9-3.9 4.9-10.1 0-19.7 11.9-17.7 21.9.6 2.8.4 3.1-1.7 3.1-4.1 0-10.9 4.1-13.7 8.2-2 3.1-2.6 5.3-2.6 9.6-.1 3.2.2 6.7.7 7.8.7 1.9.3 2.2-3.2 2.8-10.4 1.6-16 15.2-10.5 25.7 1.3 2.7 1.3 2.8-1.6 3.4-11.7 2.6-15.9 18.6-7.4 27.6l2.5 2.6-3.2.7c-1.7.3-4.9 2.3-7 4.5-3.6 3.6-3.9 4.3-3.9 9.5 0 6.5 1.7 10.6 5.8 13.5 4.6 3.2 10.1 3.7 15.5 1.3 5.9-2.6 8.7-7 8.7-13.5 0-5.1-1-7.8-4.2-11.3l-1.9-2.2 3.5-.6c9.7-1.8 15.3-13.3 11.2-23.1-1.5-3.4-1.5-3.5 1.2-4.1 1.5-.4 3.8-1.3 5-2.1 1.3-.8 2.5-1.3 2.5-1.1.1.2.9 2.4 1.8 4.9l1.6 4.7-2.9 1.7c-7 4.1-10.5 14.8-7.4 22.9.9 2.5 2.4 5 3.1 5.6 1.3 1.1.9 1.8-2.4 5-7.3 7.1-7.6 18.1-.7 25.8l3.4 3.7-2.5 1.9c-8 6-6.7 22.1 2.2 27.6l3.5 2.2-2.9 3.4c-4.8 5.4-5.3 13.3-1.3 19.9 1.7 2.7 5.9 5.5 10.4 6.9 1.6.5 1.5.8-.7 3.2-5.1 5.5-5.3 14.6-.5 20.7 2.7 3.4 10 6.1 14.1 5.3l3.2-.6-2.7 2.1c-7.9 6.2-7.4 19.1 1 24.5 3.6 2.4 11.2 2.3 15.4-.2 8.7-5.1 9.3-18.5.9-24.5-2.4-1.7-4.7-2.3-8.4-2.4h-5.2l2.8-1.7c3.8-2.3 6.2-7.4 6.3-12.9v-4.7l1.9 2.4c2.1 2.7 8.7 6.4 11.3 6.4 1.1 0 1.4.5.9 1.7-.4 1-.9 3.2-1.2 5-1.7 10.3 6.7 20.3 17 20.3h3.4l-1 3.9c-1.5 5.4.5 11.6 4.9 15.8 3.8 3.6 8.5 4.9 14.3 3.9l3.9-.6-.8 3.5c-2.2 9.9 4.9 18.9 14.9 18.9 2.5 0 6-.8 7.6-1.6l3-1.6-.3 5.9c-.4 7.1 2 11.8 7.2 14.3 6.5 3.1 13.4 1.7 18.5-3.8 3.5-3.7 4.1-12.2 1.3-17l-2-3.4 3.5-.7c1.9-.3 4-.8 4.8-1.1.8-.4 1.7.7 2.5 3 1.5 4.6 7.9 10.3 12.5 11.2 5.2.9 11.4-.1 14.7-2.6 2.8-2.1 2.8-2.1 2.8 0 0 3.3 6.7 9.8 11.3 11.1 6 1.6 12.1.3 16.4-3.4 2.8-2.5 3.7-2.9 4.1-1.7.3.8 2.1 3.1 4.1 5.2 4.3 4.2 10.7 5.7 16.3 3.9 3.4-1.1 9.2-6.3 10-9 .3-.9 1.2-.1 2.5 2.2 2.7 4.5 7.5 7 13.4 7.1 6.6 0 10.9-2.8 14-9.3 2.2-4.4 2.8-5 3.3-3.4.3 1.1 2 3.2 3.6 4.8 2.4 2.3 4.1 2.9 8.7 3.2 6.5.5 10.8-1.5 14-6.3 2.3-3.6 2.3-12.2 0-15.8-2.3-3.5-7.5-6.6-11-6.6h-2.8l2.6-3.7c1.4-2.1 2.5-4.3 2.5-5.1 0-1 .5-.9 2.3.2 9 6 23.6.3 26.8-10.4.9-3.1 1.6-3.9 2.8-3.4 6.8 2.7 16.1.6 20.5-4.7 2.7-3.2 5-10.1 4.3-12.9-.4-1.5.1-1.5 3.9-.7 11.9 2.8 22.8-8 19.7-19.4-.6-2.1-1-3.9-.9-3.9.1 0 1.6.4 3.5 1 5.1 1.4 10.8-.3 14.9-4.4 3.1-3.1 3.6-4.2 4-9.5.3-4.5 0-6.7-1.2-8.6-.9-1.3-1.6-2.6-1.6-2.7 0-.2 2.9-.2 6.4 0 5.9.3 6.6.2 10-2.8 8.1-7.2 6.9-19.7-2.4-24.5-4.5-2.3-11.1-1.9-15.4 1l-3.6 2.4v-3.5c0-1.9-.4-4.4-1-5.4-.8-1.5-.5-1.9 1.8-2.5 6.9-1.7 13.1-10 13.2-17.5 0-2-1-5.6-2.2-8l-2.3-4.5 4-2c9.8-4.9 12.1-17.9 4.7-26.6-1.7-2.1-2.2-3.4-1.5-3.6.7-.3 2.4-1.3 3.8-2.5 8.2-6.5 7.6-20.5-1.1-26.3l-3.1-2 4.5-4.1c4.3-3.8 4.6-4.4 4.9-10 .6-8-1.6-12.1-8.4-15.4l-5.1-2.5 2.9-1.7c4.7-2.7 7.1-7.5 6.6-13.4-.4-6.6-3.4-10.7-9.2-12.9-6.1-2.4-10.9-1.3-15.6 3.4-4.7 4.7-5.8 9.5-3.4 15.6 1.8 4.9 5.1 7.8 10.5 9.3 1.9.6 2.7 1.1 1.8 1.1-2.3.1-7.6 4.7-9.3 8.2-1.9 3.6-1.9 10.2-.1 13.7 1.6 3 5.3 6.7 7.6 7.4 1 .3.5 1-1.7 2.1-9.2 4.8-11.7 17.4-4.9 25.4l2.4 2.9-3.9 2.2c-7 4-10.1 15-6.4 22.3 1.6 3 1.3 4.9-.7 4.9s-7.8 5-9.4 8.2c-1.7 3.4-2.3 10.7-1.1 15 .7 2.5.5 2.8-1.6 2.8-3.3 0-10.3 5.2-12.3 9.2-1 1.8-1.8 5.7-1.8 8.5-.1 2.9-.5 5.3-1.1 5.3-3 0-8.8 2.4-11.6 4.7-3.6 3.1-6.8 9.4-6.9 13.5 0 2.6-.3 2.8-4 2.8-7.6 0-17 7.2-18.6 14.2-.5 2.6-.9 2.9-3.5 2.3-4.6-1-13 2-17.2 6.1-2 2.1-3.7 4.1-3.7 4.6s-1.5.1-3.2-.8c-4.2-2.2-13.3-2.2-17.4-.1-1.8.9-4.3 3-5.7 4.7l-2.6 3.1-3.8-1.9c-2.1-1.1-5.2-2.3-6.9-2.6-4.8-1.1-12.1 1.2-16 5l-3.5 3.3-3.5-2.4c-6.2-4.2-14.5-4.4-21.1-.4l-3.1 2-2.1-3c-3.3-4.6-10.2-7.5-16.4-6.8-2.9.4-6.1.9-7.3 1.2-1.7.5-2.4 0-3.4-2.4-2.7-6.5-10.7-10.7-18.9-9.9l-4.7.5-1.9-5c-2.7-6.8-7.8-10.8-14.5-11.5l-5-.5v-3.9c0-8-6-16-13.6-18l-4-1.1.4-5.3c.6-7.1-2.5-13.6-8.2-17.3-3.9-2.5-4.1-2.7-2.9-5.1 1.7-3.3 1.6-12.3-.1-16.3-.7-1.8-2.5-4.3-3.9-5.6l-2.6-2.4 2.7-3.5c2.4-3.1 2.7-4.4 2.7-11.1 0-6.2-.4-8.2-2.2-10.7l-2.2-3.1 3.5-3.4c1.9-1.8 3.9-5 4.5-7 1.1-3.6.8-12.1-.5-15-.6-1.3.3-2.3 3.4-4 5.8-3.3 9-9 9-16v-5.5l4.4-1.2c7.8-2.1 14.5-10.1 14.6-17.5 0-2.5.3-2.7 3.8-2.7 7.6-.1 16.6-6.6 17.9-13 .5-2.7.6-2.7 6.8-2.2 9.2.7 14.7-2.2 20-10.6.1-.1 1.6.5 3.3 1.4 7.3 3.6 15.7 2.6 21.6-2.6 3.1-2.7 3.5-2.9 4.7-1.3 2.2 2.6 9 5.3 13.5 5.3 2.3 0 6-1 8.7-2.3l4.5-2.3 1.1 2.2c.5 1.2 2.6 3.5 4.7 5 3.3 2.6 4.6 2.9 10.8 2.9 3.9 0 7.8-.4 8.8-.8 1.2-.6 1.8-.3 2.3 1.5 2.2 7 7.9 11 17 11.8 5.6.5 6 .7 6.5 3.5.9 4.4 2.7 7.4 8.2 13.4 17.2 18.9 25.8 39.8 24.3 59.3-.6 7.9-.5 8.8 1.4 10.7 2.5 2.5 2.9 2.6 6.3.3 8.2-5.1 22.4-29.4 27.2-46.3 4.5-15.8 5.9-34.5 3.5-47.4-.6-3.3-1.2-9.4-1.4-13.5-.3-9.1-3.1-16.2-8.1-21.1-3.1-3-3.4-3.8-3.4-9.3-.1-9.9-5.3-19.4-13.5-24.2-3.5-2-4.5-3.2-4.5-5.2 0-7.9-9.9-19.8-18.4-22.3-3.8-1.1-4.5-1.8-5.6-5.2-.6-2.1-3-5.9-5.3-8.5-4.5-4.8-9.7-7.6-16.4-8.7-3.6-.6-4.6-1.3-6.5-4.8-4.4-8-16.5-14-24.6-12.2-2.3.5-3 .1-4.6-2.5-4.4-7.5-15.1-11.8-24.7-10-5.1 1-5.2 1-9.4-2.9-2.3-2.1-5.9-4.4-7.9-5.1-4.7-1.5-13.1-.9-17.5 1.3-3.3 1.7-3.4 1.6-6.7-1.3-5.6-4.8-14.6-6.3-21.2-3.5zM497.5 396c1.6 1.7 1.5 1.7-2.9.2-3.6-1.3-5.3-1.4-8.3-.6-2.1.6-4.4 1.3-5.2 1.5-.8.2-1.7-.4-1.9-1.4-.3-1.3.3-1.7 2.3-1.7 3.2 0 7.3-2.1 9.9-4.9l1.9-2.1 1.3 3.5c.7 2 2 4.5 2.9 5.5zm-352.6 6.7c.2.1-.5 2.2-1.4 4.7-1.2 3.1-1.6 6-1.2 8.8.4 3 .3 3.8-.4 2.6-1.3-2.4-7.2-5.8-10-5.8h-2.4l2.7-2.3c2.8-2.4 5.8-7.6 5.8-10.2 0-1.4.3-1.4 3.3.2 1.7 1 3.4 1.9 3.6 2zm86.1 77.8c0 2.8 2.3 7.9 4.8 10.7 1.3 1.6 1.3 1.8-.4 2.3-1.1.3-3.1 1.2-4.6 2-2.6 1.3-2.7 1.3-1.7-1.1 1.3-3.6 1.1-7.9-.5-11.9-1.1-2.5-1.1-3.5-.3-3.9 2.3-.9 2.7-.6 2.7 1.9zm151.8 12.2c4.8.5 5.1.7 3.8 2.2-.9 1-2 3.5-2.5 5.7-.6 2.6-.9 3.1-1 1.5-.1-2.9-7.1-10.1-9.8-10.1-2.6 0-3.5-1-2.2-2.6.9-1.1 1.6-.9 3.8.7 1.4 1 5 2.2 7.9 2.6zM138.4 57.1c-1 1.7 1.3 3.6 2.7 2.2 1.2-1.2.4-3.3-1.1-3.3-.5 0-1.2.5-1.6 1.1zm262.4 8.4c-4 2.2-5.4 8.7-2.8 13.5 3.1 5.7 13.6 5.7 16.5 0 5-9.6-4.2-18.6-13.7-13.5zm70.4 6.1c-2.4 1.7-3 6.2-1 8.2 2 2 7.6 1.5 8.8-.7 1.5-2.9 1.2-4.9-1-7.1-2.4-2.4-3.8-2.5-6.8-.4zm-360 .5c.2.6.8 1 1.3 1s1.1-.4 1.3-1c.2-.6-.4-1.1-1.3-1.1s-1.5.5-1.3 1.1zm316.1 10.6c-1.2.2-3.4 1.8-4.8 3.4-3.6 4.3-3.4 9.8.4 14.1 2.5 2.8 3.6 3.3 7.6 3.3 4 0 5.1-.5 7.6-3.3 7.2-8.1.1-19.7-10.8-17.5zm63.9 10.9c-1.5 1-2.2 2.5-2.2 4.8 0 8 10.7 9.2 12.5 1.4.5-2.1.1-3.3-1.9-5.2-2.9-3-5.2-3.3-8.4-1z"/><path d="M118.1 99.8c-9.6 5.2-9.2 18.5.5 23.3 7.7 3.7 16.1 0 18.5-8 3.3-11-9-20.9-19-15.3zm328.4 5.4c-3.8 2-5.5 5.1-5.5 10 0 3.9.6 5.4 2.9 8 2.6 2.9 3.5 3.3 8.1 3.3s5.5-.4 8.1-3.3c5.1-5.6 3.7-14.8-2.8-18.1-2.7-1.4-8.2-1.4-10.8.1zm105.1 5.6c-.3.6-.1 1.4.5 1.7 1.5 1 2.5-.3 1.2-1.6-.7-.7-1.3-.7-1.7-.1zm-41.4 6.2c-2.2.9-4.2 4.6-4.2 7.6 0 2.4 4.7 6.4 7.5 6.4 3.3 0 7.5-4.1 7.5-7.3 0-5.1-5.9-8.7-10.8-6.7zm-416.4 2.6c-5 2.7-7.3 10.5-4.7 15.7 2.1 4 5.1 5.7 10.4 5.7 7.3 0 11.5-4.1 11.5-11 0-9.1-9.3-14.7-17.2-10.4zm370 10.2c-3.3 2-5.8 6.8-5.8 11 0 4.3 3.9 9.5 8.4 11 13.4 4.4 22.3-12.2 11.5-21.3-3.7-3-9.9-3.3-14.1-.7zm101.6 8.3c-1 1.7 1.3 3.6 2.7 2.2 1.2-1.2.4-3.3-1.1-3.3-.5 0-1.2.5-1.6 1.1zm-495.8 5.5c-2 2.1-2.6 3.7-2.6 7 0 5.7 3.1 9.3 8.6 10.1 7.8 1 13.6-7.5 10-14.5-2-3.9-4.4-5.2-9.4-5.2-2.9 0-4.6.7-6.6 2.6zM523 145c-3.1 3.1-2.7 9.3.6 11.9 4.3 3.4 10.2 2.1 12.3-2.6 1.6-3.5 1.4-5.7-1-8.7-2.6-3.3-8.8-3.7-11.9-.6zm-43.9 10.8c-3.7 2-7.1 7.3-7.1 11 0 3.6 2.5 8.7 5.5 11 4.1 3.3 12.3 3.1 16.4-.4 11.8-9.9-1.3-29.1-14.8-21.6zm97.1 11.9c.3 3.2 4.1 4.5 5.1 1.9s-.3-4.6-3-4.6c-2.1 0-2.4.4-2.1 2.7zM50 168c-1.3 1.3-2 3.3-2 6 0 5.3 2.7 8 7.9 8 5.6 0 8.6-2.7 8.6-7.8 0-5.6-2.6-8.2-8.2-8.2-3 0-4.9.6-6.3 2zm483.5 5.5c-4.5 4.4-2.9 11.6 3.1 14.1 8.9 3.7 16.7-7.3 9.9-14.1-3.4-3.5-9.6-3.5-13 0zm-43.4 10.2c-9.5 4.7-9.5 19.9 0 24.9 4.8 2.4 12.2 1.5 15.9-2.1 12-11.5-1.1-30.1-15.9-22.8zM33.5 194.5c-3 3-3.1 5.4-.4 8.9 3.9 4.9 11.9 2.2 11.9-4.2 0-3.3-.8-4.5-3.7-6.1-3.3-1.7-5.1-1.4-7.8 1.4zm549.9 2.1c-1 3.8 1.7 6.1 5.1 4.6 4.2-2 2.7-7.2-2.2-7.2-1.6 0-2.5.8-2.9 2.6zm-40.9 4.6c-3.3 1.9-4.4 4.1-4.5 8.6 0 6 3.2 9.2 9.5 9.2s9.5-3.2 9.5-9.2c0-2.4-.6-5-1.3-5.9-2.8-3.7-9.2-5-13.2-2.7zm-477 6.9c-8.9 7.8-5.2 22.4 6.2 24.5 14.2 2.7 22.7-14.9 11.8-24.5-3.1-2.7-4.4-3.1-9-3.1s-5.9.4-9 3.1zm763.5 3.5c-27.9 4-46.8 12.8-64.9 29.9-35.3 33.5-45 84.9-24.5 129.4 7.7 16.6 23.2 34.9 38.3 45.1 43.1 29 104.4 23.3 139.4-12.9 7.3-7.5 8.8-11.5 6.8-18.1-1.6-5.3-5.2-8-10.8-8-5.4 0-8.6 1.6-13.8 7-19.9 20.8-53.7 29.5-82.5 21.3-34.4-9.8-59.5-41.2-61.7-77.3-1.6-27.1 10.8-55.1 32.1-72.1 8-6.4 22.1-13.4 32.1-16 10.4-2.7 28.1-3 37.5-.6 9.4 2.4 27.1 11.6 37.4 19.4 11.7 8.9 12.4 9.3 17.4 9.3 9.3 0 14.5-6.5 12.1-15.2-2.9-10.9-29.9-30.2-51.4-36.8-12.8-3.9-32.7-5.9-43.5-4.4zm474.4.8c-9.4 1.8-13.4 3.2-21.9 7.3-21.4 10.6-35.8 28.2-43.1 52.8-1.6 5.5-1.8 12.5-2.1 79.2-.4 65.5-.2 73.5 1.2 76.3 4 7.7 14.7 9.3 20.8 3.1l3.2-3.1.5-72.8.5-72.7 2.6-6.6c7.2-18.5 19.5-30.4 37.9-36.5 8-2.6 22.4-2.4 31 .5 18 6.2 31.3 20.1 37.6 39.1 1.7 5.1 1.8 11.2 2.2 76.4.4 77.5.2 75 6.2 78.1 6 3.1 13.9 1.3 17.6-4.2 1.8-2.7 1.9-5.7 1.9-75.8-.1-71.9-.1-73.1-2.2-80.7-6.8-24.2-24.2-44.8-45.9-54.4-14.3-6.3-33.7-8.7-48-6zm209.1.1c-27.7 5.1-49.6 22.2-55.1 43-4.9 18.2 2.2 36.4 19 49.2 11.5 8.6 31.1 16.3 45.8 17.8 29.3 3 53.1 17.7 59.3 36.6 2.3 6.9 1.7 16.8-1.5 23.4-7.4 15.4-30.2 27.5-51.6 27.5-15.4 0-32.1-6.5-42-16.4-7.5-7.6-11-14.7-12.3-25.2-.8-6.9-1.3-8.2-4-10.6-4.2-3.7-9-4.5-13.8-2.2-5.6 2.8-7.6 7.3-6.8 15.4 1.7 18.5 10 33.6 24.8 45.6 37.5 30 98.6 22 123.8-16.3 6.7-10.2 9-17.6 9.6-30.3.7-13-.6-19.6-5.7-29.8-11.2-22.2-36-37.3-69.5-42.2-23.4-3.5-44.7-14.2-49.1-24.7-5.4-12.8 6.7-27.4 28.2-33.9 9.3-2.9 28.6-2.6 38.4.5 10.1 3.1 14.4 5.4 20.2 10.9 5.6 5.2 8.8 10.7 8.8 14.9 0 4.1 4 11.6 7 13 3.4 1.7 9.5 1.6 13-.2 4.8-2.5 6.3-6.7 5.7-15.6-1.6-24.5-26.2-45.8-58.7-50.9-8.7-1.3-24.9-1.1-33.5.5zm157-.1c-1.6.7-3.9 2.3-5 3.6-2 2.2-2 3.8-2.3 106.6L1662 427l3.4 3.7 3.4 3.8 64.9.3c47.2.2 65.5-.1 67.6-.9 8.6-3.6 9.7-17.3 1.8-22.6l-3.4-2.3H1688v-74h81.8l3.1-2.6c7.7-6.4 5.3-18.7-4.2-22.3-1.8-.7-16.6-1.1-41.8-1.1H1688v-72h113.2l3.2-3.3c4.4-4.3 5.3-9.3 2.8-15-3.6-8-.5-7.7-71.9-7.7-49.9.1-63.4.4-65.8 1.4zm247.2.2c-23.6 4.3-46.3 21.2-57.1 42.6-9.3 18.4-8.9 14.3-9.3 96.5-.4 79.8-.6 77.3 5.9 81.3 3.9 2.4 8.8 2.6 13.2.5 6.4-3.1 6.1 1 6.6-78l.5-72 2.7-7.5c7.3-19.8 22.7-33.4 42.9-37.6 26-5.5 54.1 11.6 63.1 38.5 2.2 6.5 2.3 7.6 2.8 78.8l.5 72.3 3.2 3.1c6.3 6.3 17.5 4.4 20.9-3.6 1.2-2.9 1.4-14.5 1.4-71.2 0-37.9-.5-70.7-1-74.4-2.6-17.8-10.5-33.6-23.4-46.5-19.5-19.5-45.8-27.7-72.9-22.8zm212-.6c-21.9 3.7-43.2 16.8-52.4 32.2-9.6 15.9-7.9 36.4 4.1 50.8 11.6 13.8 35.2 25.4 55.8 27.5 35.2 3.6 60.9 23.2 61 46.5.1 5.9-.4 8-3.1 13.4-5.4 11.1-18 20.5-33.7 25.2-4.3 1.4-9.1 1.8-17.9 1.8-10.3 0-13.2-.4-20.2-2.7-19.6-6.5-32.4-20.8-34-38.1-.7-7.6-2.8-11.1-8-13.3-4.6-1.9-9.7-.8-13.3 2.9-3.1 3-3.4 4.5-3.1 13.3.9 23.6 20 47.4 46.1 57.4 11.6 4.5 24.2 6.5 37.5 5.8 14.3-.8 21.5-2.7 35.4-9.4 10.2-4.9 12.4-6.5 20.1-14.2 13.5-13.6 19.1-26.6 19.2-44.3 0-10.8-1.4-17.2-5.9-26.5-10.5-21.6-37.2-37.9-69.3-42.3-18.6-2.6-35.9-9.7-44.6-18.5-8.6-8.6-8.4-17 .8-27.1 17.1-18.6 56.1-20.6 78.7-3.9 6.4 4.7 9.9 9.9 11.2 17 1.9 10.5 5.6 14.5 13.4 14.5 8.3 0 12.5-4.8 12.5-14.4 0-25.1-23.7-47.4-56.6-53.1-9.2-1.6-25.7-1.8-33.7-.5zm133.7.9c-1.8 1.1-3.9 3-4.8 4.2-2.1 3.1-2.1 10.8.1 13.9.9 1.4 21.6 28.3 46 59.7L2348 348v38.7c0 36.7.1 39 2 42 4.5 7.5 14.8 8.4 20.7 1.9l3.3-3.6v-78.6l44.1-56c24.3-30.7 45.5-57.7 47-59.8 8.6-11.7-3.4-26.7-15.8-19.9-1.9 1.1-19.3 22.2-45.3 55-23.2 29.3-42.5 53.3-42.8 53.3-.4 0-19.4-24.1-42.2-53.5-29-37.3-42.5-53.9-44.7-55-4.2-2-8.1-1.9-11.9.4zm300.1-.4c-25 4.6-44.4 18.1-53.2 37-2.6 5.5-2.8 7-2.8 17.5 0 10.3.3 12.1 2.6 17 9.7 20.5 34.5 35.1 66.3 39 11.2 1.4 25.3 5.9 33.5 10.7 8.5 5 17.3 14 20.8 21.1 2.4 4.9 2.8 6.9 2.8 14.2 0 7-.4 9.4-2.4 13.5-5.8 11.7-21.8 22.6-38.3 25.9-32.8 6.7-64.7-11.7-67.6-39.1-.9-8.2-3-11.9-7.9-14-7.2-3-15.4 1.4-16.8 9.1-.4 2-.2 7.1.4 11.2 3.9 26 24 47 53.8 56.1 7.9 2.4 10.4 2.6 24.8 2.6 14.6.1 16.8-.2 25-2.7 33.9-10.3 54.5-34.9 54.5-65.1 0-35.4-29-61.7-75.5-68.5-22.8-3.4-43.7-13.7-49.1-24.1-5-9.8 3-23.4 18-30.5 23.2-11 54.8-7.1 70.3 8.8 4.7 4.8 6.7 9 7.8 16.2 1 7.1 5.6 11.6 11.9 11.6 5.9 0 9.2-1.6 11.8-5.7 1.7-2.9 2-4.5 1.6-10.6-1.6-21.7-18.5-39.7-45.8-48.5-13.2-4.3-32.1-5.4-46.5-2.7zm-1501.7.5c-29.9 3.5-59.4 21.4-76.8 46.6-7 10.1-13.6 24.3-16.7 36.1-2.4 8.9-2.6 11.5-2.6 27.8s.2 18.9 2.6 28c11.4 42.6 47.7 75.3 90.6 81.5 12.9 1.9 34.3.8 46.1-2.5 38.4-10.5 68.4-40.8 78.7-79.3 2.4-8.7 2.6-11.5 2.6-27.7 0-16.3-.2-18.9-2.6-27.8-5.3-20-15.8-37.7-30.7-52.1-24.7-23.8-56.8-34.6-91.2-30.6zm34.8 28c39.2 10 66.5 47.1 64 87-.7 12.7-2.8 20.5-8.6 32.5-8.5 17.7-20.5 29.6-38.5 38.5-12.9 6.3-19.4 8-33.6 8.7-28.5 1.4-54.8-10.8-71.6-33.1-31.9-42.6-17.5-103.3 30.2-127.4 17.6-8.8 38.8-11.1 58.1-6.2zM19.2 222.2c-1.5 1.5-1.5 6.1 0 7.6.7.7 2.4 1.2 3.8 1.2 3.3 0 5-1.7 5-5s-1.7-5-5-5c-1.4 0-3.1.5-3.8 1.2zM588 226c-2.2 4.1 2 8.4 6.5 6.7 2-.8 3-5.4 1.5-7.2-1.9-2.2-6.7-1.9-8 .5zm-44.2 6.9c-2.8 2.5-3.3 3.6-3.3 7.6 0 4 .5 5.1 3.3 7.6 6 5.4 14.7 3.1 17.2-4.5 1.5-4.5.4-8.1-3.2-11.1-4.2-3.6-9.7-3.4-14 .4zm-489.5.2c-4.9 1.4-8.3 6.2-8.3 11.5 0 8.3 4.7 13.4 12.5 13.4S71 252.9 71 244.6c0-5.5-3.5-10.1-8.8-11.6-2-.5-3.9-1-4.2-.9-.3 0-1.9.5-3.7 1zM8.1 252.4c-2.1 2.6-.9 5.1 2.4 5.1 2.7 0 3-.3 3-3 0-2.3-.5-3.1-2.1-3.3-1.1-.2-2.6.4-3.3 1.2zm581.3 4.1c-1.9 2.8-1.1 6 1.8 7.6 5.1 2.7 10.5-2.9 7.3-7.7-2.1-3.3-6.9-3.3-9.1.1zm-47 6.9c-2.6 2.6-3.4 4.2-3.4 6.9 0 5.3 1.6 8.5 5.2 10.7 10.3 6.3 21.8-4.3 16.3-15-2.1-4.2-5.3-6-10.3-6-3.7 0-5 .6-7.8 3.4zm-501-.4c-5.7 2.3-8.2 10.7-5 16.9 3 5.8 12.8 7.1 17.6 2.2 3.7-3.6 4.6-7.2 3.1-12.2-1.9-6.4-9.2-9.6-15.7-6.9zM.7 282.7c-.4.3-.7 1.2-.7 2 0 1.5 2.6 1.8 3.4.4.7-1.1-1.8-3.3-2.7-2.4zm586.9 3.5c-2.3 3.2-2 5.5 1 8.4 4.2 4.3 10.4 1.5 10.4-4.6 0-5.6-8.3-8.3-11.4-3.8zm-49.5 6.4c-8.9 7.5-3.8 21.4 7.8 21.4 8.2 0 12.9-5.8 11.8-14.3-.8-6.1-5.1-9.7-11.6-9.7-3.8 0-5.6.6-8 2.6zm-507.3 3.3c-2.8 2.5-3.3 3.6-3.3 7.4 0 3.4.6 5.2 2.4 7.1 4.7 5 13.7 4.2 16.6-1.5 5.7-10.9-6.7-21-15.7-13zm551.9 19.9c-2.3 2.5-2.1 7.8.3 10.2 4.5 4.5 12 1.1 12-5.3 0-2-.8-4.1-1.8-5-2.5-2.3-8.5-2.2-10.5.1zm-54.3 6.5c-9.5 8.6-2.3 23.7 10.6 22.4 3.5-.4 5.1-1.3 7.7-4.1 2.9-3.1 3.3-4.3 3.3-9.1 0-4.9-.3-5.8-3.5-9s-4.1-3.5-9-3.5c-4.8 0-6 .4-9.1 3.3zm-500 3.9c-1.2.5-2.7 2.1-3.3 3.4-3.1 7 .6 13.4 7.9 13.4 5.6 0 9-3.4 9-9 0-7.1-6.9-11.1-13.6-7.8zM67.2 341c-8.3 5.1-8.1 18.8.5 24.1 4.7 2.9 13.1 2.3 16.9-1.2 3-2.7 5.4-7.7 5.4-11.1 0-3.6-3.8-10.2-6.9-12.1-4-2.4-11.7-2.2-15.9.3zm555.8-1c0 .5.5 1 1 1 .6 0 1-.5 1-1 0-.6-.4-1-1-1-.5 0-1 .4-1 1zm-45.6 2.8c-6 .9-7.9 9.7-3 13.8 1.5 1.3 3.8 2.4 5.1 2.4 3.9 0 7.9-4.2 7.9-8.3 0-5.7-4-8.8-10-7.9zm-59.3 5c-9.3 5-9.3 19.9-.2 24.7 6.7 3.4 15.9.8 19.3-5.6 6.6-12.3-6.8-25.7-19.1-19.1zM26.5 359.5c-3.5 3.4-3.4 8.6.1 11.4 7.2 5.7 16.2-1.6 12-9.7-2.4-4.7-8.3-5.6-12.1-1.7zm586.8 9.1c-.8 2.1 1.3 4.2 2.8 2.7 1.3-1.3.5-4.3-1.1-4.3-.6 0-1.3.7-1.7 1.6zm-52 3.8c-2.2 1.9-2.8 3.2-2.8 6.6 0 7.3 6.7 11 13.4 7.5 3.2-1.6 4.1-3.3 4.1-7.5s-.9-5.9-4.1-7.5c-4-2.1-7.4-1.8-10.6.9zm-495.7 2c-2.4 2.2-3.7 4.3-3.8 6.2-.6 11.4 4.5 17.1 14.5 16.1 6.6-.6 10.7-4.6 11.4-10.9 1-9-4.3-14.8-13.5-14.8-4.4 0-5.6.5-8.6 3.4zm-35.1 15.8c-2.7 1.5-3.5 2.8-3.5 6 0 3.6 4.5 7.2 8 6.3 3.9-1 5-2.4 5-6.6 0-5.7-4.6-8.5-9.5-5.7zm569.9 6.3c-.9 2.3.3 4.5 2.5 4.5 2.5 0 3.4-1.4 2.6-4-.7-2.3-4.3-2.7-5.1-.5zm-55.1 1c-3.4 2.4-4.7 7.6-2.9 11.8 1.7 4.3 4.1 5.7 9.4 5.7 3.3 0 4.5-.6 6.6-3.1 3.6-4.3 3.5-9.1-.3-13-3.4-3.3-9.1-4-12.8-1.4zm-471.8 5.9c-5.2 2.3-7 5.2-7 11.1 0 4.6.4 5.8 2.9 8.4 5.1 5.3 12.5 5.3 17.7.1 2.5-2.4 2.9-3.6 2.9-8.3 0-4.8-.4-5.9-2.9-8.5-1.7-1.6-4.4-3.2-6.2-3.6-4-.8-3.8-.8-7.4.8zm453.6 16.8c-3.9 2.1-6.4 7.2-5.6 11.4 1 5.4 4.8 8.4 10.5 8.4 5.4 0 9.4-3 10.5-8 .7-3.1-1.3-8.8-3.8-10.8-2.3-2-8.8-2.5-11.6-1zm-492.8 3.4c-1.5 2.4-1.5 2.9-.2 5.3 2.9 5.2 9.9 3.5 9.9-2.4 0-5.7-6.6-7.6-9.7-2.9zm550.9-1.7c-.8.5-1.2 2.1-1 3.7.3 2.5.7 2.9 3.3 2.9 2.6 0 3-.4 3.3-2.9.3-2.7-1-4.6-3.3-4.6-.5 0-1.6.4-2.3.9zm-507.3 15c-2.4 2.5-2.9 3.7-2.9 7.8.1 5.1 1 6.8 5 9.6 8.7 6 20.8-5 15.9-14.6-2-3.9-5.1-5.7-10.2-5.7-4 0-5.3.5-7.8 2.9zm424.9 5.1c-10.7 8.3-1 24.9 11.5 19.7 4.2-1.8 6.7-6 6.7-11.3 0-2.8-.8-4.4-3.4-7-2.9-2.9-4.1-3.4-7.9-3.4-2.9 0-5.3.7-6.9 2zm62.6 6.6c-.9 3.4.6 5.8 3.8 6.2 3.1.4 5-1.9 4.6-5.5-.3-2.4-.8-2.8-4-3.1-3.3-.3-3.8 0-4.4 2.4zm-521.2 4.6c-2 2-1.4 5.8 1.1 6.7 3.2 1.2 5.7-.4 5.7-3.8 0-3.8-4.1-5.6-6.8-2.9zm435.1 5.3c-4.2 1.8-6.6 5.8-6.6 10.8 0 5.3 1.5 8.3 5.6 10.7 4.1 2.5 9.4 2.5 13.1.1 8.4-5.6 7.3-17.8-2-21.7-4.1-1.7-6-1.7-10.1.1zM93.4 464c-6.2 2.5-8.2 10.7-3.9 15.8 3 3.6 6.6 4.7 11 3.2 4.1-1.4 6.5-4.8 6.5-9.5 0-4.6-2.3-8.1-6.2-9.4-3.6-1.3-4.5-1.3-7.4-.1zm451.8 5.2c-1.7 1.7-1.5 7.3.2 8.7 2.4 2 6.9.9 8.5-2 1.3-2.4 1.3-2.9-.2-5.3-1.9-2.8-6.3-3.6-8.5-1.4zm-393.7 1.5c-5.9 1.5-9.5 6.7-9.5 13.5 0 5.4 2.7 10 7.3 12.1 4.6 2.2 7.2 2.1 12.3-.3 14.5-7.1 5.7-29.3-10.1-25.3zM454 472c-1.9.5-4.7 2.2-6.2 3.9-2.3 2.6-2.8 4.1-2.8 8.5 0 5.9 2.1 9.6 7 12.1 9 4.7 19.7-3 18.7-13.3-.9-8.1-8.2-13.1-16.7-11.2zM56.4 483.5c-.9 2.3.3 4.5 2.5 4.5 2.3 0 3.5-2.8 2-4.6-1.5-1.8-3.8-1.8-4.5.1zm365.7.2c-6.7 3.4-9.3 13.2-5.2 19.9 4 6.6 15.3 8.4 20.8 3.3 7-6.7 7-15.2-.1-21.8-3.4-3.2-10.8-3.8-15.5-1.4zm99.6 6.1c-3.9 4.3-.8 11.2 4.9 11.2 3.2 0 6.7-4.7 5.9-8-1.2-4.9-7.6-6.8-10.8-3.2zm-415.4 3.7c-2.7 1.9-3.8 7-2.4 10.7 3.3 8.7 17.1 6.1 17.1-3.2 0-5.7-3.1-9-8.4-9-2.3 0-5.1.7-6.3 1.5zm61 4.5c-8.8 5.3-8 18.7 1.4 22.6 4.6 1.9 9.3 1.2 13.2-2.2 6.8-5.7 5.6-17.1-2.3-20.8-4.5-2.1-8.4-2-12.3.4zm328.3 10.2c-3.6 5.2-.4 11.8 5.8 11.8 5.2 0 8.9-5.7 6.5-10.2-1.6-3.2-2.8-3.8-7.1-3.8-2.7 0-4.1.6-5.2 2.2zm-237.5 3.6c-9.3 5-9.3 19.9-.2 24.7 1.7.8 4.9 1.5 7.2 1.5 14.7 0 19.1-19.6 5.9-26.2-4.5-2.3-8.7-2.3-12.9 0zm-186.6.1c-.7 1.2 1.2 2.4 2.5 1.6 1.1-.7.4-2.5-1-2.5-.5 0-1.1.4-1.5.9zm53.2 7.9c-2.3 2.6-2.2 9.4.1 11.5 1.1 1 3.5 1.7 5.9 1.7 4.9 0 7.7-2.7 7.7-7.5 0-4.9-2.8-7.5-7.9-7.5-2.8 0-4.7.6-5.8 1.8zm65.3.9c-7.6 3.9-8.8 13.6-2.4 19.3 7.8 6.8 19.4 1.3 19.4-9 0-8.7-9.2-14.3-17-10.3zm278.5 1.8c-7.3 7.2 2.8 17.8 10.9 11.4 3.3-2.6 3.7-8.8.6-11.9-2.9-2.9-8.4-2.7-11.5.5zm-179.2 1.2c-3.4.6-8.1 5.9-8.9 9.8-2.6 13.8 14.1 22 23.1 11.4 3.4-4.1 3.6-12.3.3-16.4-3.4-4.4-8.4-6-14.5-4.8zm151.6 7.8c-7.8 4.2-4.3 16.5 4.6 16.5 5 0 8.5-3.3 8.5-8 0-5.2-.8-6.8-4.1-8.5-3.5-1.8-5.6-1.8-9 0zm-126.5 4.9c-3 3-3.4 4-3.4 8.6s.4 5.6 3.4 8.6 4 3.4 8.6 3.4 5.6-.4 8.6-3.4 3.4-4 3.4-8.6c0-7.5-4.5-12-12-12-4.6 0-5.6.4-8.6 3.4zm94.7 3.2c-2.5 2.1-3.1 3.3-3.1 6.6 0 5.3 1.4 7.7 5.7 9.4 2.7 1.2 4.2 1.3 6.9.4 7-2.3 8.8-10.8 3.5-16.1-3.9-3.8-8.7-3.9-13-.3zm-61.8.4c-3.6 2.1-6 8.2-4.9 12.4 1.2 4.9 4.8 7.8 10.4 8.4 4.9.4 5.4.2 8.7-3.1 2.9-2.9 3.5-4.2 3.5-7.9 0-5-1.8-8.2-6-10.3-3.9-2-7.9-1.9-11.7.5zm-135.4 2.9c-2.4 2.4-2.9 3.8-2.9 7.6 0 6.6 3.9 10.5 10.5 10.5s10.5-3.9 10.5-10.5-3.9-10.5-10.5-10.5c-3.8 0-5.2.5-7.6 2.9zm165.6-.6c-2 1.7-2.8 3.5-3.2 7-.5 4.3-.3 4.9 3 8.2 2.5 2.5 4.4 3.5 6.7 3.5 6.6 0 10.9-4.3 11-10.8 0-3.5-.6-4.9-2.9-7.3-3.8-3.8-10.6-4.1-14.6-.6zm-228.5-.6c-4.1 1.5-5.5 8.7-2.2 11.6 2.5 2.2 7.5 2.1 9.5-.1s2.2-7.1.5-9.5c-1.4-1.8-5.5-2.9-7.8-2zM512 552c0 .5.7 1 1.5 1s1.5-.5 1.5-1c0-.6-.7-1-1.5-1s-1.5.4-1.5 1zm-273.4 8.1c-1.7 1.9-2.6 4.3-2.6 6.4 0 2.1.9 4.5 2.6 6.4 3.8 4.5 11 4.5 14.8 0 1.7-1.9 2.6-4.3 2.6-6.4 0-2.1-.9-4.5-2.6-6.4-2.2-2.7-3.2-3.1-7.4-3.1s-5.2.4-7.4 3.1zm-67.9 4.7c-2.5 2.8-2.1 6.9.8 8.8 5.1 3.3 10.7-1.3 8.6-7-1.5-3.9-6.6-4.9-9.4-1.8zm312.9.1c-1 1.6.6 4.2 2.3 3.9.9-.2 1.7-1.3 1.9-2.6.3-1.6-.2-2.2-1.7-2.2-1.1 0-2.2.4-2.5.9zm-215.2 7.5c-5.3 4.5-2.8 13.9 4 15.1 3.8.8 9-1.4 10-4 .3-.9.6-3.4.6-5.5 0-7.3-8.8-10.7-14.6-5.6zm186.8 2.5c-.8.4-1.2 1.9-1 3.2.4 3.4 5.2 3.4 5.6 0 .3-2-1.1-4.1-2.8-4.1-.3 0-1.1.4-1.8.9zm-154.8 5.3c-2.3 1.1-4.4 4.8-4.4 7.7 0 1 .9 3 2.1 4.5 1.6 2 2.9 2.6 6 2.6 5.2 0 7.9-2.7 7.9-7.9 0-6.3-5.8-9.8-11.6-6.9zM196 583.9c-1.6 3.1-1.2 4.9 1.5 6.7 2.3 1.5 2.7 1.5 5 0 1.4-.9 2.5-2.5 2.5-3.6 0-4.5-6.9-6.9-9-3.1zm228.1-.5c-.7.8-1.1 2.5-.9 3.8.2 1.9.9 2.3 3.8 2.3 3.3 0 3.5-.2 3.5-3.5 0-3-.4-3.5-2.6-3.8-1.4-.2-3.1.4-3.8 1.2zm-94.4 3.4c-2.3 2.5-2.1 7.8.3 10.2 4.3 4.3 12 1.1 12-5 0-1.7-.9-3.9-2-5-2.6-2.6-8.1-2.6-10.3-.2zm62.9 1.5c-2 3-1 6.6 2.2 7.8 5.2 2 9.6-4.6 5.6-8.5-2.3-2.3-6.1-2-7.8.7zm-30.9.5c-2 2.2-2.2 7.3-.5 9 1.7 1.7 7.4 1.5 9.2-.4 2.2-2.1 2-6-.4-8.4-2.5-2.5-6.2-2.6-8.3-.2zm-137.5 10.4c-2.8 2.8-.1 7.5 3.7 6.3 1.1-.3 2.3-1.5 2.6-2.6 1.2-3.8-3.5-6.5-6.3-3.7zm29 15c.2 1.5 1 2.3 2.3 2.3 1.3 0 2.1-.8 2.3-2.3.3-1.8-.1-2.2-2.3-2.2-2.2 0-2.6.4-2.3 2.2zm30.3 8.8c-.3.5.3 1 1.5 1s1.8-.5 1.5-1c-.3-.6-1-1-1.5-1s-1.2.4-1.5 1z"/></g></svg>