<svg id="Layer_1" xmlns="http://www.w3.org/2000/svg" viewBox="0 0 201.1 33.9"><style>.st0{fill:#0080FF;}</style><path class="st0" d="M16.9 33.9v-6.6c7 0 12.4-6.9 9.7-14.2-1-2.7-3.1-4.9-5.9-5.9C13.5 4.6 6.6 10 6.6 16.9H0C0 5.9 10.7-2.8 22.4.8c5.1 1.6 9.1 5.6 10.7 10.7 3.6 11.7-5.1 22.4-16.2 22.4z"/><path class="st0" d="M17 27.3h-6.6v-6.5H17m-6.6 11.6h-5v-5.1h5v5.1m-5-5.1H1.2v-4.2h4.2M60.3 9.8c-1.9-1.3-4.4-2-7.2-2H47v19.5h6.1c2.8 0 5.2-.7 7.2-2.1 1.1-.8 1.9-1.8 2.5-3.1.6-1.3.9-2.9.9-4.6s-.3-3.3-.9-4.5c-.6-1.5-1.4-2.5-2.5-3.2zm-9.7 1.3h1.9c2.1 0 3.9.4 5.3 1.3 1.5.9 2.2 2.6 2.2 5.1s-.8 4.3-2.2 5.3c-1.3.8-3 1.3-5.2 1.3h-2v-13zM68 7.5c-.6 0-1.1.2-1.5.6-.5.4-.7.9-.7 1.5s.2 1.1.6 1.5.9.6 1.5.6 1.1-.2 1.5-.6c.4-.4.6-.9.6-1.5s-.2-1.1-.6-1.5c-.3-.4-.8-.6-1.4-.6zm-1.8 6h3.5v13.7h-3.5V13.5zm16 1.2c-1-.9-2.2-1.5-3.5-1.5-1.9 0-3.5.7-4.7 2s-1.9 2.9-1.9 4.9c0 1.9.6 3.6 1.8 4.9 1.2 1.3 2.8 1.9 4.7 1.9 1.3 0 2.5-.4 3.4-1.1v.3c0 1.1-.3 2-.9 2.6s-1.4.9-2.5.9c-1.6 0-2.6-.6-3.8-2.3l-2.4 2.3.1.1c.5.7 1.3 1.4 2.3 2.1s2.3 1 3.8 1c2.1 0 3.7-.6 4.9-1.9 1.2-1.3 1.9-2.9 1.9-5V13.5H82v1.2h.2zm-.9 8.1c-.6.7-1.4 1-2.4 1s-1.8-.3-2.4-1-.9-1.6-.9-2.7.3-2 .9-2.7 1.4-1 2.4-1 1.8.3 2.4 1 .9 1.6.9 2.7-.3 2-.9 2.7zm7.3-9.3h3.5v13.7h-3.5V13.5zm1.7-6c-.6 0-1.1.2-1.5.6-.4.4-.6.9-.6 1.5s.2 1.1.6 1.5.9.6 1.5.6 1.1-.2 1.5-.6c.4-.4.6-.9.6-1.5s-.2-1.1-.6-1.5c-.4-.4-.9-.6-1.5-.6zm9.3 2.3h-3.4v3.7h-2v3.1h2v5.7c0 1.8.4 3.1 1.1 3.8.7.7 2 1.1 3.7 1.1.6 0 1.1 0 1.7-.1h.2V24l-1.2.1c-.8 0-1.4-.1-1.6-.4-.3-.3-.4-.9-.4-1.8v-5.2h3.2v-3.1h-3.2l-.1-3.8zm19.4-2h3.5v19.5H119V7.8zm38.4 14.6c-.6.7-1.3 1.3-1.7 1.6-.5.3-1.1.5-1.8.5-1 0-1.8-.4-2.5-1.1-.7-.8-1-1.7-1-2.9s.3-2.1 1-2.9 1.5-1.1 2.5-1.1c1.1 0 2.3.7 3.3 1.9l2.3-2.2c-1.5-1.9-3.4-2.8-5.7-2.8-1.9 0-3.5.7-4.9 2.1-1.3 1.4-2 3.1-2 5.1s.7 3.8 2 5.1c1.3 1.4 3 2.1 4.9 2.1 2.5 0 4.5-1.1 5.9-3.1l-2.3-2.3zm14.1-6.9c-.5-.7-1.2-1.2-2-1.6-.8-.4-1.8-.6-2.9-.6-1.9 0-3.5.7-4.7 2.1-1.1 1.4-1.7 3.1-1.7 5.1 0 2.1.6 3.8 1.9 5.1 1.3 1.3 2.9 2 5 2 2.3 0 4.2-.9 5.7-2.8l.1-.1-2.3-2.2c-.2.3-.5.5-.8.8s-.7.6-1 .7c-.5.3-1.1.4-1.7.4-1 0-1.7-.3-2.4-.8-.6-.5-.9-1.2-1-2.1h9.2v-1.3c0-.9-.1-1.8-.4-2.6-.1-.7-.5-1.5-1-2.1zm-7.5 3.2c.2-.7.5-1.2.9-1.6.5-.5 1.1-.7 1.8-.7.8 0 1.5.2 1.9.7.4.4.6 1 .7 1.6H164zm20.8-4.1c-1-.9-2.5-1.3-4.3-1.3-1.1 0-2.2.3-3.2.7-.9.5-1.8 1.2-2.3 2.2l2.2 2.1c.9-1.5 1.9-2 3.3-2 .7 0 1.3.2 1.8.6s.7.9.7 1.5v.7c-.9-.3-1.7-.4-2.5-.4-1.7 0-3.1.4-4.2 1.2-1.1.8-1.6 2-1.6 3.4 0 1.3.4 2.3 1.3 3.1.9.8 2 1.1 3.3 1.1s2.5-.5 3.7-1.4v1.1h3.4v-8.8c0-1.6-.5-2.9-1.6-3.8zm-6.1 7.4c.4-.3.9-.4 1.6-.4.8 0 1.7.2 2.6.5v1.3c-.8.7-1.8 1.1-3 1.1-.6 0-1.1-.1-1.4-.4-.3-.3-.5-.6-.5-1 .1-.5.3-.8.7-1.1zm21-7.2c-1-1.1-2.3-1.6-4-1.6-1.4 0-2.5.4-3.3 1.2v-.8H189v13.7h3.5v-7.6c0-1 .2-1.9.7-2.5s1.2-.9 2-.9 1.4.3 1.8.8c.4.5.7 1.3.7 2.2v8h3.5v-8c-.1-1.9-.6-3.4-1.5-4.5zm-85-.2c-1-.9-2.5-1.3-4.3-1.3-1.1 0-2.2.3-3.2.7-.9.5-1.8 1.2-2.3 2.2l2.2 2.1c.9-1.5 1.9-2 3.3-2 .7 0 1.3.2 1.8.6s.7.9.7 1.5v.7c-.9-.3-1.7-.4-2.5-.4-1.7 0-3.1.4-4.2 1.2-1.1.8-1.6 2-1.6 3.4 0 1.3.4 2.3 1.3 3.1.9.8 2 1.1 3.3 1.1s2.5-.5 3.7-1.4v1.1h3.4v-8.8c0-1.6-.6-2.9-1.6-3.8zm-6.2 7.4c.4-.3.9-.4 1.6-.4.8 0 1.7.2 2.6.5v1.3c-.8.7-1.8 1.1-3 1.1-.6 0-1.1-.1-1.4-.4s-.5-.6-.5-1c.2-.5.4-.8.7-1.1zm26.5 5.6c-5.5 0-10-4.5-10-10s4.5-10 10-10 10 4.5 10 10-4.5 10-10 10zm0-16.6c-3.6 0-6.5 2.9-6.5 6.5s2.9 6.5 6.5 6.5 6.5-2.9 6.5-6.5-2.9-6.5-6.5-6.5z"/></svg>