<svg xmlns="http://www.w3.org/2000/svg" width="321" height="374" viewBox="0 0 321 374">
  <g fill="none" transform="matrix(1 0 0 -1 0 373.24)">
    <path fill="#F47216" d="M225.561328,373.233324 L16.9182662,373.233324 C7.57030648,373.233324 0,365.659991 0,356.323991 L0,102.611997 C0,93.2718643 7.57030648,85.7015979 16.9182662,85.7015979 L270.619993,85.7015979 C279.95866,85.7015979 287.530659,93.2718643 287.530659,102.611997 L287.530659,315.066659 C287.530659,318.813325 286.499993,320.150659 284.74266,321.915992 C274.947993,331.709325 242.518661,364.141324 238.769327,367.887991 C234.349327,372.309324 232.361328,373.233324 225.561328,373.233324"/>
    <path fill="#FFF" d="M215.583995 130.943997C200.325328 130.943997 187.947995 143.307996 187.947995 158.581329 187.947995 173.849329 200.325328 186.213329 215.583995 186.213329 230.851994 186.213329 243.227994 173.849329 243.227994 158.581329 243.227994 143.307996 230.851994 130.943997 215.583995 130.943997M215.583995 211.970661C186.099995 211.970661 162.187996 188.063995 162.187996 158.581329 162.187996 129.10413 186.099995 105.189597 215.583995 105.189597 245.085327 105.189597 268.971993 129.10413 268.971993 158.581329 268.971993 188.063995 245.085327 211.970661 215.583995 211.970661M130.617197 147.243996C129.24893 146.323996 127.163063 144.28933 126.25933 142.939996 121.34533 135.642663 112.860397 130.943997 103.385464 130.943997 88.1250645 130.943997 75.7489314 143.307996 75.7489314 158.581329 75.7489314 173.849329 88.1250645 186.213329 103.385464 186.213329 112.860397 186.213329 121.34533 181.514662 126.25933 174.217329 127.163063 172.863996 129.24893 170.835996 130.617197 169.911996 137.179997 165.498663 147.40533 165.585329 156.147996 166.355996 152.374663 192.142662 130.215063 211.970661 103.385464 211.970661 73.8817315 211.970661 49.9911988 188.063995 49.9911988 158.581329 49.9911988 129.10413 73.8817315 105.189597 103.385464 105.189597 130.215063 105.189597 152.374663 125.01613 156.147996 150.803996 147.40533 151.58133 137.179997 151.67733 130.617197 147.243996M43.2021323 123.283864C43.2021323 116.480264 37.6811991 110.961464 30.8765326 110.961464 24.0745327 110.961464 18.5573329 116.480264 18.5573329 123.283864 18.5573329 130.089597 24.0745327 135.606663 30.8765326 135.606663 37.6811991 135.606663 43.2021323 130.089597 43.2021323 123.283864"/>
    <polyline fill="#F47216" points="301.117 85.932 301.117 95.86 297.571 95.86 297.571 97.884 307.065 97.884 307.065 95.86 303.528 95.86 303.528 85.932 301.117 85.932"/>
    <polyline fill="#F47216" points="308.585 85.932 308.585 97.884 312.2 97.884 314.365 89.733 316.512 97.884 320.128 97.884 320.128 85.932 317.888 85.932 317.888 95.343 315.517 85.932 313.191 85.932 310.831 95.343 310.831 85.932 308.585 85.932"/>
    <path fill="#7E7E7F" d="M85.8130645 35.5453324C85.8130645 33.5587992 86.3234645 32.0306659 87.3458645 30.9614659 88.3671978 29.8921326 89.8327978 29.3573326 91.7426644 29.3573326 95.6385309 29.3573326 97.5863976 31.4385325 97.5863976 35.6026658 97.5863976 37.6650657 97.1041309 39.2546657 96.1401309 40.3718657 95.1750643 41.489599 93.7098643 42.0478656 91.7426644 42.0478656 89.7947978 42.0478656 88.3197311 41.493199 87.3171978 40.386399 86.3145312 39.2786657 85.8130645 37.6650657 85.8130645 35.5453324zM82.9197313 9.19062644C82.9197313 7.74010647 83.5734646 6.62395983 84.8822645 5.84010652 86.1901312 5.05729321 88.0281311 4.66510655 90.3963977 4.66510655 94.0630643 4.66510655 96.7937309 5.19062654 98.5890642 6.24010651 100.384397 7.29062648 101.281731 8.68541312 101.281731 10.4229331 101.281731 11.797333 100.789597 12.7770663 99.8067975 13.3587997 98.8229309 13.9426663 96.9942642 14.233333 94.3207976 14.233333L89.2218644 14.233333C87.2931978 14.233333 85.7603979 13.7802663 84.6245312 12.8718663 83.4874646 11.9655997 82.9197313 10.7374664 82.9197313 9.19062644L82.9197313 9.19062644zM107.813064 45.7999989L107.813064 42.1051989 102.398931 41.1026656C102.895331 40.4333323 103.306264 39.613599 103.630664 38.6385324 103.955197 37.6650657 104.117731 36.6333324 104.117731 35.5453324 104.117731 32.2802659 102.991197 29.7109326 100.737464 27.8401326 98.4838642 25.966666 95.3806643 25.0317327 91.4275977 25.0317327 90.4155977 25.0317327 89.4989311 25.107866 88.6775978 25.261466 87.2259978 24.3625327 86.5005312 23.3135994 86.5005312 22.1103994 86.5005312 21.3838661 86.8390645 20.8401328 87.5177311 20.4775995 88.1953311 20.1145328 89.4417311 19.9333328 91.2557311 19.9333328L96.7843976 19.9333328C100.279197 19.9333328 102.933864 19.1879995 104.747864 17.6983996 106.561997 16.2093329 107.469331 14.0614663 107.469331 11.2530664 107.469331 7.66406648 105.989064 4.89478654 103.029197 2.94687993 100.069331.998439975 95.7911976.0239599994 90.1958644.0239599994 85.8797312.0239599994 82.5854646.789586647 80.3130647 2.31614661 78.0406647 3.84530657 76.9041314 6.02135985 76.9041314 8.84687978 76.9041314 10.7947997 77.5202647 12.433333 78.7521314 13.7598663 79.9838647 15.0863996 81.7073313 16.0093329 83.9223979 16.5239996 83.0250646 16.9051996 82.2843979 17.5213329 81.7026646 18.3718662 81.1197313 19.2213329 80.8286646 20.1145328 80.8286646 21.0505328 80.8286646 22.2349328 81.1630646 23.2359994 81.831198 24.0587994 82.4994646 24.878666 83.4926646 25.690666 84.8103979 26.4931993 83.1682646 27.1983993 81.835998 28.349466 80.8145313 29.9453326 79.7921313 31.5385325 79.2817314 33.4051992 79.2817314 35.5453324 79.2817314 38.982799 80.3650647 41.6469323 82.5333313 43.5374656 84.7005312 45.4281322 87.7895978 46.3734655 91.7999977 46.3734655 92.697331 46.3734655 93.6379977 46.3109322 94.6218643 46.1863988 95.6046643 46.0625322 96.3453309 45.9333322 96.8417309 45.7999989L107.813064 45.7999989 107.813064 45.7999989zM117.260397 30.0161326C117.260397 22.7015994 119.96253 19.0453329 125.367197 19.0453329 130.713997 19.0453329 133.387997 22.7015994 133.387997 30.0161326 133.387997 37.2530657 130.69533 40.8734656 125.309864 40.8734656 122.48333 40.8734656 120.43493 39.9374657 119.165597 38.0666657 117.89533 36.1931991 117.260397 33.5119992 117.260397 30.0161326L117.260397 30.0161326zM140.319996 30.0161326C140.319996 24.8411994 138.99333 20.8015995 136.338663 17.8999996 133.683997 14.9958663 129.98853 13.545333 125.252664 13.545333 122.29213 13.545333 119.675997 14.2135996 117.403597 15.5505329 115.130664 16.8863996 113.38333 18.8051995 112.161464 21.3078661 110.939064 23.8093327 110.328131 26.7119993 110.328131 30.0161326 110.328131 35.1530658 111.645864 39.163999 114.281197 42.0478656 116.916664 44.9306655 120.630664 46.3734655 125.42453 46.3734655 130.007863 46.3734655 133.635997 44.8983989 136.30933 41.9478656 138.982663 38.9973324 140.319996 35.0187991 140.319996 30.0161326L140.319996 30.0161326zM145.58533 17.6983996C145.58533 19.0921329 145.946663 20.1625328 146.67333 20.9067995 147.399996 21.6521328 148.44933 22.0239994 149.823996 22.0239994 151.21733 22.0239994 152.27733 21.6374661 153.003996 20.8639995 153.730663 20.0906662 154.091996 19.0349329 154.091996 17.6983996 154.091996 16.3426663 153.725329 15.2682663 152.990663 14.4759996 152.25333 13.6838663 151.198663 13.2879997 149.823996 13.2879997 148.44933 13.2879997 147.399996 13.6802663 146.67333 14.4614663 145.946663 15.2442663 145.58533 16.3239996 145.58533 17.6983996M174.025329 13.545333C169.230662 13.545333 165.587996 14.943733 163.095996 17.7411996 160.603996 20.5385328 159.358663 24.5546661 159.358663 29.7879993 159.358663 35.1161325 160.661329 39.211999 163.267996 42.0759989 165.874663 44.9411989 169.641329 46.3734655 174.569329 46.3734655 177.910662 46.3734655 180.918662 45.7521322 183.591995 44.5119989L181.558662 39.0973324C178.711996 40.2041323 176.363996 40.758799 174.511996 40.758799 169.030662 40.758799 166.290663 37.1213324 166.290663 29.8453326 166.290663 26.2921327 166.973329 23.6239994 168.338662 21.8385328 169.702662 20.0521328 171.703996 19.1598662 174.339996 19.1598662 177.337329 19.1598662 180.173329 19.9041328 182.847995 21.3947995L182.847995 15.5213329C181.643995 14.814533 180.359995 14.3078663 178.994662 14.004133 177.629329 13.6983997 175.973329 13.545333 174.025329 13.545333M193.870662 30.0161326C193.870662 22.7015994 196.573328 19.0453329 201.977328 19.0453329 207.323995 19.0453329 209.998661 22.7015994 209.998661 30.0161326 209.998661 37.2530657 207.306661 40.8734656 201.919995 40.8734656 199.093328 40.8734656 197.045328 39.9374657 195.775995 38.0666657 194.505328 36.1931991 193.870662 33.5119992 193.870662 30.0161326L193.870662 30.0161326zM216.930661 30.0161326C216.930661 24.8411994 215.602661 20.8015995 212.949328 17.8999996 210.294661 14.9958663 206.598662 13.545333 201.863995 13.545333 198.902662 13.545333 196.286662 14.2135996 194.014662 15.5505329 191.741329 16.8863996 189.993329 18.8051995 188.771995 21.3078661 187.549329 23.8093327 186.938662 26.7119993 186.938662 30.0161326 186.938662 35.1530658 188.255995 39.163999 190.891995 42.0478656 193.527995 44.9306655 197.241328 46.3734655 202.034662 46.3734655 206.618662 46.3734655 210.246661 44.8983989 212.919995 41.9478656 215.593328 38.9973324 216.930661 35.0187991 216.930661 30.0161326L216.930661 30.0161326z"/>
  </g>
</svg>
