<svg viewBox="0 0 274 116" xmlns="http://www.w3.org/2000/svg" fill-rule="evenodd" clip-rule="evenodd"><path d="M37.302 96.018c.136.041.278.061.406.121.129.058.237.151.356.229l.022.02.115.102.198.178c.291.263.578.532.862.804.529.507 1.048 1.028 1.552 1.56.55.582 1.085 1.177 1.597 1.791.332.399.653.804.963 1.22.296.398.581.805.85 1.224.24.373.466.755.672 1.147.181.344.346.696.49 1.056.25.623.437 1.278.5 1.949l.021.373-.002.329-.033.556c-.067.744-.237 1.479-.518 2.17-.192.473-.434.925-.724 1.346-.236.342-.503.665-.795.962-.233.236-.481.456-.744.658-.209.163-.426.315-.651.455-.183.114-.37.222-.562.321-1.12.585-2.361.916-3.615 1.04l-.582.043-.644.014c-.443-.002-.886-.028-1.326-.08-.734-.086-1.46-.243-2.16-.483-.6-.206-1.181-.473-1.724-.803-.58-.353-1.116-.779-1.583-1.273-.31-.327-.59-.684-.831-1.065-.229-.36-.425-.74-.584-1.135-.268-.658-.435-1.355-.509-2.06-.022-.221-.037-.444-.043-.667-.004-.177-.004-.355.007-.533.02-.324.071-.647.144-.964.081-.35.19-.692.318-1.028.131-.339.281-.672.446-.997.199-.394.42-.778.654-1.152.249-.401.516-.792.794-1.175.428-.588.883-1.158 1.356-1.713.496-.584 1.013-1.151 1.543-1.704.471-.493.955-.975 1.448-1.446l.622-.583.487-.437.023-.02c.354-.229.357-.23.761-.35h.423zm152.59-52.587v37.966c0 14.919-9.648 21.976-22.065 21.976-6.164 0-13.31-2.769-15.365-4.467-.625-.536-.804-1.429-.447-2.322l3.127-7.504c.357-.804 1.519-1.34 2.412-.804 1.965 1.161 5.36 3.305 10.005 3.305 5.092 0 8.755-1.965 8.755-8.219v-2.144c-.076.061-.144.004-.204-.158-2.327 1.488-5.242 2.66-8.729 2.66-12.06 0-15.812-7.951-15.812-19.653v-20.636c0-1.162.893-1.966 1.876-1.966h9.737c1.072 0 1.965.804 1.965 1.966v20.368c0 4.645 1.34 7.146 5.539 7.146 2.69 0 4.3-1.24 5.07-3.157.132-9.621.558-20.873.558-20.873v-3.484c0-1.698 1.25-1.966 2.233-1.966h9.38c1.072 0 1.965.804 1.965 1.966zm-151.92-43.415l.994.024.442.027 2.699.218 3.725.521.271.06 3.613.888 1.019.301 1.157.393 1.408.528 1.093.457 1.698.795.95.48 1.923 1.119.588.354 2.624 1.896.64.558 1.809 1.633 1.551 1.649.427.471 1.82 2.394.273.429 1.404 2.344.393.747.791 1.742.823 2.03.273.787.879 3.169.685 4.284.119 1.332.11 1.913.008.279-.04 2.139-.025.402-.104.844-.603 3.415-.091.415-1.389 4.289-1.289 3.091-1.642 3.252-2.942 5.079-1.513 2.287-1.832 2.715-1.322 1.793-2.579 3.417-1.767 2.203-2.615 3.155-1.827 2.115-2.839 3.168-1.787 1.942-5.283 5.466-.12.122-2.829 2.755-1.564 1.473-.097.089-.121.113-.155.11-.113.051-.309.102-.738-.031-.066-.023-.401-.251-.051-.047-.053-.047-.211-.196-.581-.543-.044-.041-5.183-5.099-1.604-1.648-4.102-4.368-.977-1.059-4.945-5.726-1.383-1.698-4.355-5.618-.431-.572-3.31-4.827-.897-1.435-2.376-4.041-.691-1.254-2.077-4.341-.329-.85-1.192-3.322-.412-1.413-.335-1.368-.284-1.494-.227-1.67-.088-1.017-.041-1.906.008-.325.049-1.028.415-4.157.097-.536.945-4.15.021-.077.156-.464.661-1.917.204-.483 1.075-2.347.73-1.367 1.033-1.693 1.03-1.505.716-.939.844-1.005.922-1.009.752-.754 1.981-1.729 1.48-1.199 1.751-1.175 1.245-.791 2.642-1.38 3.748-1.541.187-.075 3.332-.964 1.308-.289 1.799-.359 1.22-.185 1.879-.232 1.27-.111 2.53-.137h.016l.94-.01h.095l.009-.001.071-.001.811.017zm163.901 83.345c4.272 0 7.743-3.471 7.743-7.655 0-4.272-3.471-7.832-7.743-7.832s-7.654 3.56-7.654 7.832c0 4.184 3.382 7.655 7.654 7.655zm29.014-21.628c0 11.748 9.701 21.628 21.45 21.628 11.748 0 21.36-9.88 21.36-21.628 0-11.571-9.612-21.361-21.36-21.361-11.749 0-21.45 9.79-21.45 21.361zm-115.529 20.69h-9.737c-.982 0-1.786-.893-1.786-1.965v-27.068h-6.196c-1.161 0-1.965-.893-1.965-1.965v-8.308c0-1.161.804-1.965 1.965-1.965h6.196v-2.323c0-13.221 8.397-19.832 18.938-19.832 7.951 0 11.703 2.591 14.74 5.717l1.251-2.858c.625-1.34 1.429-1.966 2.68-1.966h4.109c.983.001 1.965.983 1.965 1.966v58.602c0 1.072-.982 1.965-1.965 1.965h-9.648c-.983 0-1.965-.893-1.965-1.965v-42.522c-1.162-2.234-3.752-6.075-8.934-6.075-3.573 0-7.593 1.34-7.593 7.147v2.144h6.789c1.073 0 1.966.804 1.966 1.965v8.308c0 1.072-.893 1.965-1.966 1.965h-6.789v27.068c0 1.072-.982 1.965-2.055 1.965zm110.04-.041h-9.613c-1.068 0-1.958-.89-1.958-1.958v-37.204c0-1.157.89-1.958 1.958-1.958h9.613c1.068 0 1.958.801 1.958 1.958v37.204c0 1.067-.89 1.957-1.958 1.958zm-189.563-76.472c-.377.039-.752.091-1.124.163-.558.107-1.107.253-1.644.437-.579.198-1.143.438-1.687.718-.361.186-.713.388-1.055.606-2.55 1.621-4.496 4.045-5.93 6.676-.241.439-.466.886-.678 1.34-.253.539-.489 1.086-.709 1.64-.287.724-.546 1.458-.779 2.2-.288.909-.538 1.832-.755 2.76-.273 1.169-.494 2.35-.673 3.538-.226 1.509-.382 3.029-.48 4.552-.061.967-.099 1.937-.118 2.906-.022 1.114-.013 2.229.065 3.342.184 2.605.633 5.184 1.22 7.727.74 3.203 1.705 6.356 2.793 9.457 1.368 3.897 2.936 7.722 4.631 11.488 2.095 4.654 4.389 9.216 6.826 13.701l.184.338v-73.597l-.087.009zm9.636.185c1.696.35 3.367.817 4.995 1.411 2.317.846 4.543 1.95 6.592 3.327 2.775 1.866 5.207 4.236 7.088 7.005 1.111 1.634 2.029 3.397 2.745 5.239 1.054 2.714 1.667 5.591 1.911 8.49.064.761.103 1.522.119 2.285.016.709.011 1.42-.044 2.127-.126 1.587-.458 3.151-.899 4.679-.361 1.25-.803 2.478-1.296 3.682-.614 1.499-1.306 2.964-2.056 4.399-1.663 3.188-3.582 6.235-5.635 9.185-2.532 3.633-5.268 7.123-8.125 10.506-2.988 3.536-6.11 6.96-9.336 10.281l-.413.424c2.285-4.262 4.439-8.594 6.416-13.007 1.1-2.457 2.145-4.938 3.118-7.448 1.07-2.755 2.053-5.545 2.908-8.374.64-2.118 1.204-4.258 1.669-6.423.399-1.854.714-3.731.906-5.619.084-.822.145-1.646.173-2.472.026-.753.024-1.509.012-2.263-.016-.965-.051-1.93-.109-2.894-.234-3.882-.827-7.752-1.971-11.475-.245-.799-.522-1.59-.826-2.37-.233-.596-.483-1.185-.751-1.765-1.46-3.155-3.503-6.109-6.266-8.259-.3-.235-.609-.459-.925-.671zm198.232 55.637c0-4.717 3.828-8.722 8.634-8.722 4.717 0 8.544 4.005 8.544 8.722 0 4.806-3.827 8.9-8.544 8.9-4.806 0-8.634-4.094-8.634-8.9zm-23.2-26.167c4.272 0 7.743-3.471 7.743-7.654 0-4.272-3.471-7.833-7.743-7.833-4.273 0-7.655 3.561-7.655 7.833 0 4.183 3.382 7.654 7.655 7.654z" fill="url(#a)"/><defs><linearGradient id="a" x2="1" gradientUnits="userSpaceOnUse" gradientTransform="matrix(273.697 115.686 -115.686 273.697 0 0)"><stop offset="0" stop-color="#109cf8"/><stop offset="1" stop-color="#935ee9"/></linearGradient></defs></svg>