<?xml version="1.0" encoding="utf-8"?>
<!-- Generator: Adobe Illustrator 19.2.0, SVG Export Plug-In . SVG Version: 6.00 Build 0)  -->
<svg version="1.1" id="Layer_1" xmlns="http://www.w3.org/2000/svg" xmlns:xlink="http://www.w3.org/1999/xlink" x="0px" y="0px"
	 viewBox="0 0 467 121" style="enable-background:new 0 0 467 121;" xml:space="preserve">
<style type="text/css">
	.st0{fill:#07A6C4;}
</style>
<g>
	<g>
		<path class="st0" d="M262.6,60.8v12.6c-3.5,2.6-8.6,4.4-13.3,4.4c-10.1,0-17.9-7.6-17.9-17.3s7.9-17.2,18.3-17.2
			c4.9,0,9.7,1.9,13.1,4.8l-3.3,4.2c-2.6-2.4-6.3-3.9-9.8-3.9c-7,0-12.4,5.3-12.4,12.1c0,6.8,5.5,12.1,12.5,12.1
			c2.5,0,5.4-0.9,7.8-2.3v-9.5H262.6z"/>
		<path class="st0" d="M297,77.6l-18.2-24.5v24.5H273V43.5h5.7L297,68V43.5h5.7v34.1L297,77.6L297,77.6z"/>
		<path class="st0" d="M347.1,60.5c0,9.7-7.9,17.3-18.1,17.3c-10.2,0-18.1-7.6-18.1-17.3c0-9.8,7.9-17.2,18.1-17.2
			C339.2,43.3,347.1,50.8,347.1,60.5z M316.8,60.5c0,6.8,5.6,12.1,12.3,12.1c6.7,0,12.1-5.4,12.1-12.1c0-6.8-5.5-12-12.1-12
			C322.4,48.5,316.8,53.7,316.8,60.5z"/>
		<path class="st0" d="M378.6,46.7l-2.4,5.1c-3.7-2.2-7.4-3.2-10-3.2c-3.4,0-5.6,1.3-5.6,3.6c0,7.5,18.4,3.5,18.4,15.7
			c0,6.1-5.4,9.8-12.9,9.8c-5.4,0-10.4-2.2-13.9-5.4l2.5-5c3.5,3.2,7.9,5,11.5,5c4,0,6.4-1.5,6.4-4.1c0-7.6-18.4-3.4-18.4-15.5
			c0-5.8,5-9.5,12.4-9.5C371.1,43.2,375.5,44.6,378.6,46.7z"/>
		<path class="st0" d="M388,77.6V43.5h5.7v34.1H388z"/>
		<path class="st0" d="M428,46.7l-2.4,5.1c-3.7-2.2-7.4-3.2-10-3.2c-3.4,0-5.6,1.3-5.6,3.6c0,7.5,18.4,3.5,18.4,15.7
			c0,6.1-5.4,9.8-12.9,9.8c-5.4,0-10.4-2.2-13.9-5.4l2.5-5c3.5,3.2,7.9,5,11.5,5c4,0,6.4-1.5,6.4-4.1c0-7.6-18.4-3.4-18.4-15.5
			c0-5.8,5-9.5,12.4-9.5C420.5,43.2,424.9,44.6,428,46.7z"/>
	</g>
	<g>
		<path class="st0" d="M150.2,43.8l-2.4,2.4c2,3,2.5,6.9,1.2,10.6c-2.2,6.3-9.1,9.5-15.4,7.3c-0.9-0.3-1.7-0.7-2.5-1.2l-7.8,7.8
			l-6.9-6.9c-3.2,2.1-7.2,2.8-11.1,1.4c-6.4-2.3-9.8-9.4-7.5-15.8c0.4-1,0.8-1.9,1.4-2.7l-2.9-2.9l-0.6,0.9
			c-3.1,5-4.7,10.8-4.7,16.7c0,17.8,14.4,32.2,32.1,32.3h0.1c17.7,0,32.2-14.4,32.2-32.1c0-5.9-1.6-11.7-4.7-16.7L150.2,43.8z"/>
		<path class="st0" d="M103,50.3c-0.8,1.1-1.4,2.5-1.4,4c0,3.6,2.9,6.5,6.5,6.5c1.5,0,2.9-0.5,4-1.4L103,50.3z"/>
		<g>
			<path class="st0" d="M135.1,58.9c1,0.7,2.3,1.1,3.7,1.1c3.6,0,6.5-2.9,6.5-6.5c0-1.4-0.4-2.6-1.1-3.7L135.1,58.9z"/>
		</g>
		<g>
			<path class="st0" d="M123.5,65.8L96.9,39.2l1-1.1c6.6-7,15.6-10.9,25.2-10.9h0.1c9.7,0,19.1,4.2,25.6,11.4l1,1.1L123.5,65.8z
				 M101.3,39.1l22.2,22.3l21.9-21.9c-5.9-5.9-13.9-9.3-22.3-9.3h-0.1C114.9,30.3,107.2,33.4,101.3,39.1z"/>
		</g>
		<g>
			<g>
				<path class="st0" d="M94.2,83L91,82.8C77.8,81.9,59.5,78.7,47.7,68c-7.2-6.5-8.6-12.7-8.7-13l-0.3-1.8h48.1L86.6,55
					c-0.2,1.6-0.3,3.3-0.3,4.9c0,7.3,2.1,14.4,6.2,20.6L94.2,83z"/>
			</g>
			<g>
				<path class="st0" d="M152.4,83l1.7-2.6c4-6.1,6.2-13.1,6.2-20.4c0-1.7-0.1-3.4-0.3-5l-0.2-1.8h48.1l-0.4,1.9
					c-0.1,0.3-1.4,6.5-8.7,13c-11.8,10.6-30.1,13.9-43.3,14.8L152.4,83z"/>
			</g>
		</g>
	</g>
</g>
</svg>
