<?xml version="1.0" encoding="UTF-8"?>
<svg width="112px" height="112px" viewBox="0 0 112 112" version="1.1" xmlns="http://www.w3.org/2000/svg" xmlns:xlink="http://www.w3.org/1999/xlink">
    <!-- Generator: Sketch 44.1 (41455) - http://www.bohemiancoding.com/sketch -->
    <title>play</title>
    <desc>Created with Sketch.</desc>
    <defs></defs>
    <g id="Page-1" stroke="none" stroke-width="1" fill="none" fill-rule="evenodd">
        <g id="Inout-Main-site" transform="translate(-444.000000, -1211.000000)" fill="#FFFFFF">
            <g id="Group-2" transform="translate(263.000000, 1064.000000)">
                <g id="Icon-Play" transform="translate(185.000000, 149.000000)">
                    <path d="M52,104 C23.3278204,104 0,80.6721796 0,52 C0,23.3278204 23.3278204,0 52,0 C80.6721796,0 104,23.3278204 104,52 C104,80.6721796 80.6721796,104 52,104 L52,104 Z M52,5.71293562 C26.476078,5.71293562 5.71293562,26.476078 5.71293562,52 C5.71293562,77.523922 26.476078,98.2870644 52,98.2870644 C77.523922,98.2870644 98.2870644,77.523922 98.2870644,52 C98.2870644,26.476078 77.523922,5.71293562 52,5.71293562 L52,5.71293562 Z" id="Fill-124"></path>
                    <path d="M37,78 L37,25 L83,51.5 L37,78 L37,78 Z M43.1394728,35.5563437 L43.1394728,67.4436563 L70.8131465,51.5 L43.1394728,35.5563437 L43.1394728,35.5563437 Z" id="Fill-125"></path>
                </g>
            </g>
        </g>
    </g>
</svg>