<?xml version="1.0" encoding="UTF-8"?>
<svg width="542px" height="175px" viewBox="0 0 542 175" version="1.1" xmlns="http://www.w3.org/2000/svg" xmlns:xlink="http://www.w3.org/1999/xlink">
    <!-- Generator: Sketch 44.1 (41455) - http://www.bohemiancoding.com/sketch -->
    <title>Logo</title>
    <desc>Created with Sketch.</desc>
    <defs></defs>
    <g id="Page-1" stroke="none" stroke-width="1" fill="none" fill-rule="evenodd">
        <g id="Inout-Main-site" transform="translate(-242.000000, -206.000000)">
            <g id="Logo" transform="translate(242.000000, 206.000000)">
                <g id="Rectangle-1-Copy-+-logo_header-copy" transform="translate(261.000000, 23.000000)">
                    <rect id="Rectangle-1-Copy" fill="#1A1A1A" x="0" y="0" width="281" height="152"></rect>
                    <g id="logo_header-copy" transform="translate(30.000000, 22.000000)" fill="#FFFFFF">
                        <g id="Page-1-Copy@2x">
                            <path d="M146.623357,0.132695652 L128.872028,17.7883261 L164.377063,17.7883261 L146.623357,0.132695652 L146.623357,0.132695652 Z M0.834685315,8.41838676e-15 L0.834685315,14.8974565 C19.7391608,17.9873696 34.1142657,34.1715 34.1142657,53.8910217 C34.1142657,73.6034348 19.7391608,89.723587 0.834685315,92.7921739 L0.834685315,107.824696 C27.8492308,104.604457 48.9197203,81.6101957 48.9197203,53.8933913 C48.9197203,26.2002826 27.8492308,3.21786957 0.834685315,0 L0.834685315,8.41838676e-15 Z M60.6176224,22.4563696 L60.6176224,58.7604783 C60.6176224,73.6579348 72.8433566,85.7498261 87.7867133,85.7498261 C102.753846,85.7498261 115.100839,73.6508261 115.100839,58.7604783 L115.100839,22.4563696 L101.12042,22.4563696 L101.12042,58.7604783 C101.12042,66.179587 95.2500699,72.0181957 87.7867133,72.0181957 C80.34,72.0181957 74.4696503,66.1606304 74.4696503,58.7604783 L74.4696503,22.4563696 L60.6176224,22.4563696 L60.6176224,22.4563696 Z M129.00042,22.5085 L129.00042,37.0126087 L139.723497,37.0126087 L139.723497,107.786783 L153.513706,107.786783 L153.513706,37.0126087 L164.293846,37.0126087 L164.293846,22.5085 L129.002797,22.5085 L129.00042,22.5085 Z" id="Shape"></path>
                        </g>
                    </g>
                </g>
                <g id="Rectangle-1-+-logo_header">
                    <rect id="Rectangle-1" fill="#0080FB" x="0" y="0" width="281" height="152"></rect>
                    <g id="logo_header" transform="translate(91.000000, 21.000000)" fill="#FFFFFF">
                        <g id="Page-1-Copy@2x">
                            <path d="M10.8538462,0.132695652 L10.8538462,70.8997609 L0.068951049,70.8997609 L0.068951049,85.4773261 L35.36,85.4773261 L35.36,70.8997609 L24.6345455,70.8997609 L24.6345455,0.132695652 L10.8514685,0.132695652 L10.8514685,6.18930435 L10.8514685,0.132695652 L10.8538462,0.132695652 Z M163.330769,0.400456522 C136.342378,3.62780435 115.271888,26.612587 115.271888,54.3033261 C115.271888,81.9964348 136.342378,104.988326 163.330769,108.201457 L163.330769,93.3324348 C144.445315,90.252 130.041678,74.0323261 130.041678,54.3033261 C130.041678,34.5838043 144.445315,18.4968261 163.330769,15.4163913 L163.330769,0.400456522 L163.330769,0.400456522 Z M76.5832168,22.164913 C61.6398601,22.164913 49.2762238,34.2710217 49.2762238,49.1376739 L49.2762238,85.4607391 L63.2471329,85.4607391 L63.2471329,49.1376739 C63.2471329,41.7256739 69.1246154,35.8752174 76.5832168,35.8752174 C84.0204196,35.8752174 89.905035,41.7233043 89.905035,49.1376739 L89.905035,85.4607391 L103.747552,85.4607391 L103.747552,49.1376739 C103.747552,34.2733913 91.5360839,22.164913 76.5832168,22.164913 L76.5832168,22.164913 Z M-5.68434189e-14,90.1240435 L17.7560839,107.786783 L35.4836364,90.1240435 L-5.68434189e-14,90.1240435 L-5.68434189e-14,90.1240435 Z" id="Shape"></path>
                        </g>
                    </g>
                </g>
                <polygon id="Path-9" fill="#BDBDBD" points="261 175 281 152 261 152"></polygon>
            </g>
        </g>
    </g>
</svg>