<svg xmlns="http://www.w3.org/2000/svg" viewBox="0 0 111.6255 36.69277">
  <title>PhonePe Logo</title>
  <g id="Layer_2" data-name="Layer 2">
    <g id="Layer_1-2" data-name="Layer 1">
      <g>
        <g>
          <g>
            <path d="M44.5992,28.421h-.61783V25.06464h.61783Z"/>
            <path d="M48.91647,28.421h-.6203L46.705,26.03984V28.421h-.62023V25.06464H46.705l1.596,2.39051V25.06464h.61546Z"/>
            <path d="M50.37257,28.421V25.06464h1.05425a1.81657,1.81657,0,0,1,.65337.11294,1.42074,1.42074,0,0,1,.83729.82528,1.76768,1.76768,0,0,1,.11764.65936v.16592a1.77259,1.77259,0,0,1-.11642.658,1.41115,1.41115,0,0,1-.331.50144,1.47606,1.47606,0,0,1-.51737.3205,1.9133,1.9133,0,0,1-.673.11294Zm.62023-2.88593v2.42014h.40461a1.17618,1.17618,0,0,0,.44377-.07729.81991.81991,0,0,0,.31752-.22223.95842.95842,0,0,0,.18991-.35515,1.61963,1.61963,0,0,0,.06381-.47243v-.17061a1.23007,1.23007,0,0,0-.25257-.83457.9229.9229,0,0,0-.733-.28786Z"/>
            <path d="M55.03067,28.421h-.61787V25.06464h.61787Z"/>
            <path d="M58.5585,27.6394H57.17575l-.28926.78163h-.64487l1.34846-3.35638h.55653l1.351,3.35638h-.64728Zm-1.20869-.4701h1.03466L57.86711,25.777Z"/>
            <path d="M60.62259,25.16858l-.0637.90124H60.169V24.8804h.4536Z"/>
            <path d="M63.768,27.55644a.483.483,0,0,0-.03188-.18091.36185.36185,0,0,0-.11642-.14626.97777.97777,0,0,0-.23291-.12793,3.78275,3.78275,0,0,0-.38129-.12793,3.85393,3.85393,0,0,1-.47071-.16359,1.6477,1.6477,0,0,1-.37147-.21459.92948.92948,0,0,1-.24389-.28119.73656.73656,0,0,1-.08834-.36415.775.775,0,0,1,.092-.37347.89953.89953,0,0,1,.2587-.29489,1.26585,1.26585,0,0,1,.39966-.19389,1.80784,1.80784,0,0,1,.51479-.069,1.67277,1.67277,0,0,1,.54183.082,1.2297,1.2297,0,0,1,.40575.22223.97732.97732,0,0,1,.25382.3262.90907.90907,0,0,1,.08823.39546H63.768a.60627.60627,0,0,0-.04049-.22488.466.466,0,0,0-.12377-.17757.58279.58279,0,0,0-.21086-.11628.97806.97806,0,0,0-.30156-.04168,1.03681,1.03681,0,0,0-.28438.03465.57874.57874,0,0,0-.19985.097.38231.38231,0,0,0-.11764.14759.44643.44643,0,0,0-.038.18424.36534.36534,0,0,0,.18754.31117,2.06331,2.06331,0,0,0,.57249.23055,3.49157,3.49157,0,0,1,.52225.18424,1.51028,1.51028,0,0,1,.36652.22958.83124.83124,0,0,1,.217.28818.87905.87905,0,0,1,.07112.36049.804.804,0,0,1-.08945.38147.82784.82784,0,0,1-.25508.28822,1.22762,1.22762,0,0,1-.40077.18224,2.01554,2.01554,0,0,1-.52476.0633,1.99542,1.99542,0,0,1-.50743-.06563,1.48447,1.48447,0,0,1-.44872-.19823,1.05726,1.05726,0,0,1-.31993-.33086.87379.87379,0,0,1-.12137-.46543h.62034a.577.577,0,0,0,.06.27287.51489.51489,0,0,0,.16427.18693.71386.71386,0,0,0,.24636.10595,1.3359,1.3359,0,0,0,.30644.03328.8003.8003,0,0,0,.48674-.12327A.389.389,0,0,0,63.768,27.55644Z"/>
            <path d="M68.2493,27.174V28.421h-.62023V25.06464h1.36557a1.7672,1.7672,0,0,1,.55291.07962,1.19138,1.19138,0,0,1,.40823.22258.95013.95013,0,0,1,.25372.33883,1.03745,1.03745,0,0,1,.08708.42645,1.05556,1.05556,0,0,1-.08708.43778.8738.8738,0,0,1-.25372.32753,1.18322,1.18322,0,0,1-.40823.2049,1.95124,1.95124,0,0,1-.55291.07162Zm0-.46812h.74533a1.00972,1.00972,0,0,0,.30777-.04128.56909.56909,0,0,0,.212-.11764.44765.44765,0,0,0,.12137-.18091.67023.67023,0,0,0,.038-.22954.67845.67845,0,0,0-.038-.22588.51125.51125,0,0,0-.12137-.19224.59518.59518,0,0,0-.212-.134.859.859,0,0,0-.30777-.04928H68.2493Z"/>
            <path d="M73.12311,27.6394H71.74036l-.28926.78163h-.64484l1.34846-3.35638h.55653L74.06219,28.421H73.415Zm-1.20865-.4701h1.03466L72.43175,25.777Z"/>
            <path d="M75.98659,26.65519l.82133-1.59055h.68651L76.298,27.1853V28.421h-.62271V27.1853l-1.1989-2.12065h.68888Z"/>
            <path d="M79.409,25.06464l1.02972,2.57242L81.466,25.06464h.80164V28.421h-.61783V27.31456l.0613-1.47994L80.65689,28.421h-.44374l-1.05177-2.58408.0613,1.47761V28.421h-.61783V25.06464Z"/>
            <path d="M85.81031,26.92276H84.3441v1.03248h1.71383V28.421H83.72387V25.06464h2.31688v.47046H84.3441v.92653h1.46621Z"/>
            <path d="M90.11775,28.421h-.62034l-1.5912-2.38119V28.421H87.286V25.06464h.62023l1.59608,2.39051V25.06464h.61546Z"/>
            <path d="M94.082,25.5351H92.96889V28.421h-.61535V25.5351H91.25023v-.47046H94.082Z"/>
            <path d="M97.09988,27.55644a.4823.4823,0,0,0-.03192-.18091.36174.36174,0,0,0-.11639-.14626.97849.97849,0,0,0-.23291-.12793,3.78275,3.78275,0,0,0-.38129-.12793,3.85181,3.85181,0,0,1-.47071-.16359,1.6477,1.6477,0,0,1-.37147-.21459.92948.92948,0,0,1-.24389-.28119.73617.73617,0,0,1-.08834-.36415.775.775,0,0,1,.092-.37347.89912.89912,0,0,1,.2587-.29489,1.26565,1.26565,0,0,1,.39962-.19389,1.8081,1.8081,0,0,1,.51482-.069,1.67277,1.67277,0,0,1,.54183.082,1.2297,1.2297,0,0,1,.40575.22223.97732.97732,0,0,1,.25382.3262.90907.90907,0,0,1,.08823.39546h-.61783a.60627.60627,0,0,0-.04049-.22488.466.466,0,0,0-.12377-.17757.58279.58279,0,0,0-.21086-.11628.97806.97806,0,0,0-.30156-.04168,1.03681,1.03681,0,0,0-.28438.03465.57874.57874,0,0,0-.19985.097.38274.38274,0,0,0-.11768.14759.447.447,0,0,0-.038.18424.36534.36534,0,0,0,.18754.31117,2.06347,2.06347,0,0,0,.57246.23055,3.49067,3.49067,0,0,1,.52228.18424,1.50932,1.50932,0,0,1,.36648.22958.83091.83091,0,0,1,.217.28818.87905.87905,0,0,1,.07112.36049.80357.80357,0,0,1-.08949.38147.82773.82773,0,0,1-.255.28822,1.22748,1.22748,0,0,1-.4008.18224,2.09684,2.09684,0,0,1-1.03219-.00233,1.48526,1.48526,0,0,1-.44872-.19823,1.05753,1.05753,0,0,1-.31989-.33086.87379.87379,0,0,1-.12137-.46543h.6203a.577.577,0,0,0,.06008.27287.51489.51489,0,0,0,.16427.18693.71386.71386,0,0,0,.24636.10595,1.3359,1.3359,0,0,0,.30644.03328.8003.8003,0,0,0,.48674-.12327A.389.389,0,0,0,97.09988,27.55644Z"/>
            <path d="M102.959,27.6394h-1.38275l-.28926.78163h-.64487l1.34846-3.35638h.55653l1.351,3.35638h-.64728Zm-1.20869-.4701H102.785l-.51737-1.39232Z"/>
            <path d="M105.64591,27.174V28.421h-.62023V25.06464h1.36557a1.767,1.767,0,0,1,.55288.07962,1.19138,1.19138,0,0,1,.40823.22258.9498.9498,0,0,1,.25375.33883,1.03745,1.03745,0,0,1,.08708.42645,1.05556,1.05556,0,0,1-.08708.43778.87353.87353,0,0,1-.25375.32753,1.18322,1.18322,0,0,1-.40823.2049,1.951,1.951,0,0,1-.55288.07162Zm0-.46812h.74533a1.00988,1.00988,0,0,0,.30777-.04128.56864.56864,0,0,0,.212-.11764.44765.44765,0,0,0,.12137-.18091.66937.66937,0,0,0,.038-.22954.67754.67754,0,0,0-.038-.22588.51125.51125,0,0,0-.12137-.19224.5947.5947,0,0,0-.212-.134.85917.85917,0,0,0-.30777-.04928h-.74533Z"/>
            <path d="M109.57823,27.174V28.421H108.958V25.06464h1.36557a1.7672,1.7672,0,0,1,.55291.07962,1.19138,1.19138,0,0,1,.40823.22258.95012.95012,0,0,1,.25372.33883,1.03745,1.03745,0,0,1,.08708.42645,1.05556,1.05556,0,0,1-.08708.43778.8738.8738,0,0,1-.25372.32753,1.18322,1.18322,0,0,1-.40823.2049,1.95124,1.95124,0,0,1-.55291.07162Zm0-.46812h.74533a1.00988,1.00988,0,0,0,.30777-.04128.56909.56909,0,0,0,.212-.11764.448.448,0,0,0,.12137-.18091.67023.67023,0,0,0,.038-.22954.67845.67845,0,0,0-.038-.22588.5117.5117,0,0,0-.12137-.19224.59518.59518,0,0,0-.212-.134.85917.85917,0,0,0-.30777-.04928h-.74533Z"/>
          </g>
          <g>
            <path d="M45.55057,16.48729v4.97048h-1.5692V9.10793h4.64817a4.36763,4.36763,0,0,1,3.08324.9966,3.49744,3.49744,0,0,1,1.073,2.693,3.4913,3.4913,0,0,1-1.073,2.70151,4.39165,4.39165,0,0,1-3.08324.9882Zm0-1.26383h3.079a2.56154,2.56154,0,0,0,1.95513-.67436,2.435,2.435,0,0,0,.63188-1.73459,2.47718,2.47718,0,0,0-.63188-1.75152,2.54287,2.54287,0,0,0-1.95513-.68276h-3.079Z"/>
            <path d="M56.31426,13.527l.02541.00847a3.30265,3.30265,0,0,1,1.15359-1.05175,3.21665,3.21665,0,0,1,1.56066-.37319,2.95658,2.95658,0,0,1,2.29444.86516,3.9696,3.9696,0,0,1,.79306,2.73973v5.74234h-1.5692V15.69842a2.54494,2.54494,0,0,0-.492-1.73878,1.92705,1.92705,0,0,0-1.50131-.54285,2.4958,2.4958,0,0,0-1.31471.34771,2.80257,2.80257,0,0,0-.95.95853v6.73474H54.7366V8.22577h1.57767Z"/>
            <path d="M64.16011,16.77565a5.06774,5.06774,0,0,1,1.0857-3.3716,4.15645,4.15645,0,0,1,6.0265,0,5.05486,5.05486,0,0,1,1.09,3.3716v.2036a5.03047,5.03047,0,0,1-1.0857,3.36733,4.19,4.19,0,0,1-6.03077,0,5.03047,5.03047,0,0,1-1.0857-3.36733Zm1.57767.2036a4.32632,4.32632,0,0,0,.62768,2.44282,2.37614,2.37614,0,0,0,3.79148-.00427,4.28651,4.28651,0,0,0,.63615-2.43855v-.2036a4.29417,4.29417,0,0,0-.64041-2.43435,2.14006,2.14006,0,0,0-1.90418-.95846,2.10083,2.10083,0,0,0-1.883.95846,4.3608,4.3608,0,0,0-.62768,2.43435Z"/>
            <path d="M75.83137,12.2802l.11031,1.37406.02541.00847a3.27734,3.27734,0,0,1,1.14085-1.14505,3.0913,3.0913,0,0,1,1.59887-.40714,3.00269,3.00269,0,0,1,2.29864.84822,3.85877,3.85877,0,0,1,.79727,2.70571v5.79329H80.22506V15.69842a2.57413,2.57413,0,0,0-.47923-1.77273,1.98145,1.98145,0,0,0-1.50558-.5089,2.40574,2.40574,0,0,0-1.33592.36472,2.68362,2.68362,0,0,0-.91177,1.01781v6.65845H74.4149V12.2802Z"/>
            <path d="M88.02855,21.62735A3.89013,3.89013,0,0,1,84.975,20.37626a4.79313,4.79313,0,0,1-1.11957-3.32072v-.38166a4.72921,4.72921,0,0,1,1.14925-3.28258,3.59151,3.59151,0,0,1,2.7694-1.28076,3.48824,3.48824,0,0,1,2.80335,1.09417,4.45307,4.45307,0,0,1,.93725,2.99414V17.2252H85.433a3.78273,3.78273,0,0,0,.69977,2.27316,2.2511,2.2511,0,0,0,1.89578.86516,4.15544,4.15544,0,0,0,1.4801-.23748,3.73988,3.73988,0,0,0,1.12384-.67009l.61921,1.04328a3.89092,3.89092,0,0,1-1.285.81008A5.1777,5.1777,0,0,1,88.02855,21.62735Zm-.25449-8.24451a1.9111,1.9111,0,0,0-1.50558.71671,3.60073,3.60073,0,0,0-.78453,1.86183h4.4615v-.22054a2.59089,2.59089,0,0,0-.54285-1.69217A1.97759,1.97759,0,0,0,87.77406,13.38284Z"/>
            <path d="M95.28913,16.48729v4.97048H93.72V9.10793h4.6481a4.36762,4.36762,0,0,1,3.08324.9966,3.49718,3.49718,0,0,1,1.073,2.693,3.491,3.491,0,0,1-1.073,2.70151,4.39163,4.39163,0,0,1-3.08324.9882Zm0-1.26383h3.079a2.56132,2.56132,0,0,0,1.95513-.67436,2.43509,2.43509,0,0,0,.63195-1.73459,2.47723,2.47723,0,0,0-.63195-1.75152,2.54265,2.54265,0,0,0-1.95513-.68276h-3.079Z"/>
            <path d="M108.13939,21.62735a3.89,3.89,0,0,1-3.05349-1.25109,4.79282,4.79282,0,0,1-1.11965-3.32072v-.38166a4.72889,4.72889,0,0,1,1.14932-3.28258,3.59151,3.59151,0,0,1,2.7694-1.28076,3.48818,3.48818,0,0,1,2.80328,1.09417,4.45272,4.45272,0,0,1,.93725,2.99414V17.2252h-6.08158a3.78229,3.78229,0,0,0,.69977,2.27316,2.251,2.251,0,0,0,1.8957.86516,4.15588,4.15588,0,0,0,1.48017-.23748,3.74,3.74,0,0,0,1.12384-.67009l.61921,1.04328a3.89239,3.89239,0,0,1-1.285.81008A5.17831,5.17831,0,0,1,108.13939,21.62735Zm-.25442-8.24451a1.91109,1.91109,0,0,0-1.50558.71671,3.60138,3.60138,0,0,0-.7846,1.86183h4.46157v-.22054a2.59089,2.59089,0,0,0-.54285-1.69217A1.97759,1.97759,0,0,0,107.885,13.38284Z"/>
          </g>
        </g>
        <g>
          <path d="M20.96412,14.55663h-4.7808a.31009.31009,0,0,0-.24112.08661.38019.38019,0,0,0-.07986.26275v6.09318a2.355,2.355,0,0,0,.55389,1.7051,2.22158,2.22158,0,0,0,1.66178.56883h.78681a3.27753,3.27753,0,0,0,1.06756-.1568,1.84814,1.84814,0,0,0,.754-.47027,2.02862,2.02862,0,0,0,.44873-.73907,2.90458,2.90458,0,0,0,.15-.966V14.906a.3764.3764,0,0,0-.08065-.26275A.31042.31042,0,0,0,20.96412,14.55663Z" fill="#350c72"/>
          <path d="M18.34676,0A18.34639,18.34639,0,1,0,36.69353,18.346,18.34654,18.34654,0,0,0,18.34676,0Zm8.38951,13.37556v.62715a.49041.49041,0,0,1-.55389.55392h-1.9246a.31045.31045,0,0,0-.24032.08661.37993.37993,0,0,0-.07991.26275V29.83215a.48959.48959,0,0,1-.55389.55392H21.8391a.48955.48955,0,0,1-.55395-.55392v-5.393h-.11648a2.1955,2.1955,0,0,1-1.02126.91825,3.98527,3.98527,0,0,1-1.66178.30609h-.84507a5.22623,5.22623,0,0,1-1.81113-.29571,3.9035,3.9035,0,0,1-1.41093-.88538,3.77948,3.77948,0,0,1-.907-1.39451,5.17459,5.17459,0,0,1-.30235-1.826V14.906a.40615.40615,0,0,0-.06568-.24784.26576.26576,0,0,0-.1964-.10152H11.25619a.54787.54787,0,0,1-.41508-.14632.61069.61069,0,0,1-.13882-.43749V12.74848a.51339.51339,0,0,1,.13882-.39261.5806.5806,0,0,1,.41508-.13141h8.58813q-.93166-.96976-1.80441-2.05447Q17.16764,9.08375,16.358,7.88108l-.81665-1.21081-.81671-1.20942a.90008.90008,0,0,1-.08663-.21053.87813.87813,0,0,1-.0298-.22621.38665.38665,0,0,1,.43741-.43742h1.77827a.89746.89746,0,0,1,.45239.109.807.807,0,0,1,.30611.3284l2.08432,3.35271,2.08427,3.352a1.22841,1.22841,0,0,0,.35088.37176.73443.73443,0,0,0,.40761.12392h3.673a.5806.5806,0,0,1,.41508.13141.51319.51319,0,0,1,.13882.39261Z" fill="#350c72"/>
        </g>
      </g>
    </g>
  </g>
</svg>
