<svg xmlns="http://www.w3.org/2000/svg" viewBox="0 0 120.94542 25.30395">
  <title>YC Logos</title>
  <g id="Layer_2" data-name="Layer 2">
    <g id="Layer_1-2" data-name="Layer 1">
      <g id="eNLEmD.tif">
        <g>
          <path d="M25.00031.16525Q72.85138.08507,120.70243,0c.17433-.00032.20115.04038.20133.20553q.01324,12.33685.04165,24.67369c.0004.16974-.03345.20348-.20314.20374q-60.2507.09387-120.5014.19143c-.05393.00008-.1935.10367-.18846-.0775l.042-.01085c.08333.00345.16666.01005.25.00992q12.21771-.01976,24.43543-.03589c.2104-.00021.27459-.04269.274-.26692Q25.02357,12.64408,25.00708.395C25.00695.31839,25.00266.24182,25.00031.16525ZM53.19384,9.77866c-.00827-.12674-.01306-.2011-.018-.27545a2.88146,2.88146,0,0,0-.24612-.98821.17.17,0,0,0-.23872-.11432c-.36271.098-.73043.178-1.09728.26014-.10512.02355-.162.05453-.11649.17936a6.00971,6.00971,0,0,1,.28948,2.08014q.00512,3.3274.00856,6.65481c-.00006.15668.02777.2198.20168.21115a9.274,9.274,0,0,1,.96218-.00127c.20606.01119.26589-.04016.26454-.25823-.0132-2.12753-.01181-4.25516-.0191-6.38274a.36915.36915,0,0,1,.14036-.3215,9.05412,9.05412,0,0,1,.81134-.62459,2.4552,2.4552,0,0,1,1.563-.49535.93248.93248,0,0,1,.93522.81691,6.33529,6.33529,0,0,1,.04639.77136q.00677,3.09722.00743,6.19444c-.00016.16381.04135.21446.20835.20864.38322-.01335.76756-.01558,1.15069-.00147.18247.00672.2327-.04056.2317-.22826-.0111-2.0857-.00815-4.17148-.022-6.25715a.55084.55084,0,0,1,.22791-.47793c.28834-.2308.56756-.47322.85968-.699a2.15451,2.15451,0,0,1,1.46988-.503.986.986,0,0,1,.96957.79875,2.63,2.63,0,0,1,.06747.664q.005,3.24371.00712,6.48742c-.00013.16208.03819.21467.20612.20815.36222-.01405.72573-.0158,1.08788-.00156.18211.00716.21549-.05775.21458-.22508-.00872-1.60438-.0089-3.20881-.01171-4.81323-.00108-.61382.01093-1.228-.00716-1.84136a2.36547,2.36547,0,0,0-1.13272-2.1323,2.55913,2.55913,0,0,0-2.35454-.07829,4.958,4.958,0,0,0-1.55857,1.07055c-.19958.18959-.20468.19363-.3431-.05315a2.32213,2.32213,0,0,0-.63726-.7903,2.38878,2.38878,0,0,0-2.53344-.18251A4.66206,4.66206,0,0,0,53.19384,9.77866Zm14.48148-.1012c-.0002-.11747-.00018-.17757-.00041-.23767-.00427-1.12277-.00114-2.24563-.016-3.36825a7.91181,7.91181,0,0,0-.20528-1.65692c-.02108-.09237-.04155-.15865-.15991-.131q-.63112.14726-1.26413.28629c-.08992.01969-.09059.05591-.05976.131a5.85221,5.85221,0,0,1,.35912,2.21583c.01931,2.97056.01627,5.94128.01827,8.91194a6.7149,6.7149,0,0,1-.19975,1.88539c-.03239.11217.00875.13.107.12894.35565-.004.71178-.01279,1.06688.00146a.225.225,0,0,0,.26828-.20789c.05611-.25229.12283-.50221.19275-.784a2.86909,2.86909,0,0,0,1.03063.79174,3.19859,3.19859,0,0,0,3.43685-.28535,3.79087,3.79087,0,0,0,1.33047-1.95828,7.49291,7.49291,0,0,0,.216-3.73874,4.35841,4.35841,0,0,0-1.15168-2.32777,3.22958,3.22958,0,0,0-3.69452-.58434A5.00916,5.00916,0,0,0,67.67532,9.67746Zm28.08492,7.03293a1.8526,1.8526,0,0,0,1.11177,1.2719c.0964.04158.156.04686.22457-.04963.18968-.267.38864-.52747.58885-.78674.06165-.07983.05913-.12416-.03353-.1756a1.241,1.241,0,0,1-.629-1.151c-.01-.43213-.00971-.86468-.0052-1.29695.01309-1.255.09434-2.50893.06433-3.76442a2.51909,2.51909,0,0,0-.19362-1.10183,2.333,2.333,0,0,0-1.9353-1.31176A6.45139,6.45139,0,0,0,90.598,9.48791c-.1003.06451-.06436.11075-.01123.17979.19124.24847.38445.49594.56294.75347.08168.11783.14777.11142.25109.03827.1818-.12873.36953-.24919.55631-.37076a3.87606,3.87606,0,0,1,2.24112-.61359,1.36648,1.36648,0,0,1,1.34106,1.14282,9.20533,9.20533,0,0,1,.05174,1.29474c.0014.13024-.078.12214-.16464.12379-.35543.00677-.71091.01265-1.06621.02411a7.49957,7.49957,0,0,0-1.83468.27823,3.591,3.591,0,0,0-1.78148,1.078,2.92181,2.92181,0,0,0-.59973,2.45617,2.08025,2.08025,0,0,0,.79861,1.41972,3.49617,3.49617,0,0,0,3.94711.11722A5.97916,5.97916,0,0,0,95.76024,16.71039Zm17.82058-3.38767a7.9302,7.9302,0,0,0-.28511-2.28678,3.59956,3.59956,0,0,0-3.00314-2.7056,3.7196,3.7196,0,0,0-4.26044,2.5113,6.57083,6.57083,0,0,0,.08425,4.70727,3.50224,3.50224,0,0,0,3.163,2.44875,3.58047,3.58047,0,0,0,3.641-1.87005A5.64971,5.64971,0,0,0,113.58081,13.32272Zm-72.392-.01661c.01006.17671.01559.44219.04189.70559a5.11682,5.11682,0,0,0,.99593,2.7267,3.79733,3.79733,0,0,0,6.69518-1.74668,7.969,7.969,0,0,0-.01081-3.5268,3.71624,3.71624,0,0,0-3.09438-3.0297,3.82137,3.82137,0,0,0-4.138,2.19383A6.39966,6.39966,0,0,0,41.1888,13.30612ZM82.49989,9.73674a3.07642,3.07642,0,0,0-.26891-1.288c-.04747-.10621-.097-.12477-.20259-.09174-.36549.11435-.73121.22972-1.102.32463-.15652.04007-.17025.10042-.10266.22495a3.27588,3.27588,0,0,1,.3493,1.61408c-.0041,1.45734.0033,2.91472.006,4.37208.00163.88571.00621,1.77143.00128,2.65711-.00081.14522.03756.19158.18563.1862.32041-.01164.6415-.0028.96229-.00552.30174-.00256.26869.04008.26833-.265q-.00374-3.18018-.00967-6.36036a.31944.31944,0,0,1,.0708-.27073A4.5695,4.5695,0,0,1,84.938,9.59062a1.23349,1.23349,0,0,1,1.50859,1.04623,5.47291,5.47291,0,0,1,.06123.959c.00242,1.97366.00787,3.94732.00626,5.921-.00013.15681.02966.21947.20289.2112.32706-.01562.65587-.0166.98294-.00172.18914.00861.24289-.04352.2419-.23864-.01114-2.21075-.01125-4.42155-.01748-6.63232a2.95433,2.95433,0,0,0-.04019-.54143,2.27135,2.27135,0,0,0-1.59368-1.86932,3.10441,3.10441,0,0,0-2.44527.28136A5.57975,5.57975,0,0,0,82.49989,9.73674ZM31.28214,11.51406c.01931.2827.01552.65929.05571,1.03456A6.37436,6.37436,0,0,0,32.661,16.01218a4.63143,4.63143,0,0,0,2.28866,1.64695,6.12091,6.12091,0,0,0,4.88549-.70578c.1058-.06008.09712-.10222.02921-.18672q-.334-.41555-.65328-.84281c-.06624-.08862-.11473-.11636-.21488-.04128a3.70561,3.70561,0,0,1-1.96941.737,3.46023,3.46023,0,0,1-3.05992-1.05528,4.34481,4.34481,0,0,1-.99216-2.02377,10.97214,10.97214,0,0,1-.10908-3.47543,5.66378,5.66378,0,0,1,.63507-2.216A3.10089,3.10089,0,0,1,36.57221,6.1583a4.11625,4.11625,0,0,1,2.04421.722c.11291.07289.17755.0792.26724-.03958.193-.2556.401-.50045.61238-.74134.08347-.09512.091-.142-.023-.22076a5.04253,5.04253,0,0,0-4.17036-.75043A4.8646,4.8646,0,0,0,32.032,7.89709,7.74064,7.74064,0,0,0,31.28214,11.51406Zm69.13425,1.53637c.00158.94158.001,1.88317.00637,2.82473a6.21165,6.21165,0,0,0,.037.64653,1.59644,1.59644,0,0,0,1.22663,1.49262,3.651,3.651,0,0,0,2.04119-.08608c.37237-.11959.36835-.13123.29757-.51821-.02258-.1234-.0503-.24641-.06312-.37089-.01456-.14153-.06422-.17556-.20867-.13127a2.00981,2.00981,0,0,1-1.21253.04361.82493.82493,0,0,1-.61221-.62006,2.94009,2.94009,0,0,1-.08865-.70348q-.00568-2.877-.01352-5.75407c-.00057-.13811.03885-.17559.17479-.17391.53.00655,1.06016-.003,1.59015.00356a.181.181,0,0,0,.20711-.1482c.093-.28492.19064-.56887.3017-.84712.0647-.1621.00887-.18229-.13861-.18064-.64161.00715-1.28346-.00255-1.92488.01052-.18.00367-.216-.05152-.2141-.22062a15.79936,15.79936,0,0,1,.14942-2.27284c.02158-.138-.00856-.17605-.14534-.14377-.40016.09447-.80142.18434-1.20292.273-.08149.018-.13581.03707-.13732.14237-.01.69791-.12124,1.38839-.1582,2.08432-.006.11285-.04137.14-.14657.138-.28585-.00551-.572.00422-.85778-.003-.12318-.00313-.1734.0271-.1687.161.01.28563.00839.57192.00218.85773-.00253.11684.0327.15888.15372.15573.30669-.008.614.00486.92046-.00754.15158-.00614.18313.04648.1826.18851C100.41024,10.94407,100.41462,11.99725,100.4164,13.05043Zm17.3573-3.25895c-.05172-.0367-.036-.07469-.03569-.10577a3.01794,3.01794,0,0,0-.26283-1.27948c-.04634-.104-.08916-.1491-.21586-.10782-.37069.12078-.74549.22957-1.12123.33387-.11593.03218-.14732.07364-.0952.1879a2.4001,2.4001,0,0,1,.14407.43549,7.42943,7.42943,0,0,1,.13437,1.74623q.00625,3.31513.00836,6.63026c0,.154.02429.22207.20148.21358.34088-.01632.6833-.01371,1.02456-.00269.15365.005.20085-.03391.1987-.19438-.01023-.76681-.00694-1.53381-.00779-2.30074q-.00181-1.66282-.00212-3.32565a1.86782,1.86782,0,0,1,.80618-1.62946,1.91489,1.91489,0,0,1,1.59676-.42376c.11755.02674.12524-.05352.1507-.12263q.22381-.608.4457-1.21666c.08236-.22673.06708-.25028-.17663-.285A1.16264,1.16264,0,0,0,120.442,8.338a2.8104,2.8104,0,0,0-1.97471.71688A5.90971,5.90971,0,0,0,117.7737,9.79148ZM77.93047,13.04677q-.00373-2.22854-.00748-4.45707c-.00008-.04883-.00294-.09783.00023-.14644.00608-.093-.02556-.11777-.12244-.10027-.41147.07433-.82417.14216-1.23731.20673-.10808.01689-.14625.059-.14592.17413q.01253,4.42567.01427,8.85137c0,.1471.05455.17051.18237.16787.36953-.00766.73964-.01322,1.10884-.00017.17387.00615.22028-.04278.21912-.21817C77.93236,16.03212,77.933,14.53943,77.93047,13.04677ZM77.2494,6.90358a1.12268,1.12268,0,0,0,1.16878-1.153,1.16844,1.16844,0,1,0-2.33687-.00228A1.12774,1.12774,0,0,0,77.2494,6.90358Z" fill="#fefefe"/>
          <path d="M25.00031.16525c.00235.07657.00663.15314.00676.22972q.021,12.2491.04681,24.49818c.00055.22423-.06364.26671-.274.26692Q12.56213,25.17239.34442,25.196c-.08332.00013-.16665-.00646-.25-.00991L.0524.20706ZM12.61373,12.83278c-.02547-.04545-.04249-.07441-.05819-.10407-.1524-.28794-.24321-.60208-.3865-.89549-.09848-.20165-.24918-.36184-.34737-.56429C11.03961,9.6565,10.23979,8.05268,9.45035,6.4438a.26757.26757,0,0,0-.28371-.18029c-.52287.01141-1.04611.00565-1.56921.00678-.24083.00052-.24011.0005-.12466.21488q2.068,3.83988,4.13759,7.67892a.84068.84068,0,0,1,.102.4169c-.00077,1.60422.00563,3.20845.00228,4.81266-.00034.1633.04053.21431.2076.20907.41114-.01289.82318-.01436,1.2343-.00192.18073.00547.23659-.04.23524-.22994-.01084-1.52744-.00578-3.055-.01625-4.58244a1.39844,1.39844,0,0,1,.17208-.69392q2.03246-3.82317,4.05047-7.654a.26908.26908,0,0,0,.06152-.18712c-.52707.00088-1.05512.00954-1.58274-.00193a.293.293,0,0,0-.314.1976q-1.47337,3.01373-2.95914,6.02139C12.74582,12.58806,12.68206,12.70282,12.61373,12.83278Z" fill="#ec6623"/>
          <path d="M.0524.20706l.042,24.979-.042.01085Q.03164,12.7962.01345.39549C.01336.33423-.03507.25364.0524.20706Z" fill="#ec6724"/>
          <path d="M53.19384,9.77866a4.66206,4.66206,0,0,1,1.59489-1.14049,2.38878,2.38878,0,0,1,2.53344.18251,2.32213,2.32213,0,0,1,.63726.7903c.13842.24679.14352.24274.3431.05315A4.958,4.958,0,0,1,59.8611,8.59359a2.55913,2.55913,0,0,1,2.35454.07829,2.36547,2.36547,0,0,1,1.13272,2.1323c.01809.61332.00608,1.22754.00716,1.84136.00281,1.60442.003,3.20885.01171,4.81323.00091.16734-.03248.23224-.21458.22508-.36216-.01424-.72567-.01249-1.08788.00156-.16793.00651-.20625-.04607-.20612-.20815q.00257-3.24371-.00712-6.48742a2.63,2.63,0,0,0-.06747-.664.986.986,0,0,0-.96957-.79875,2.15451,2.15451,0,0,0-1.46988.503c-.29212.2258-.57134.46823-.85968.699a.55084.55084,0,0,0-.22791.47793c.01385,2.08567.01089,4.17145.022,6.25715.001.1877-.04923.235-.2317.22826-.38312-.01411-.76746-.01187-1.15069.00147-.167.00582-.20851-.04483-.20835-.20864q.003-3.09722-.00743-6.19444a6.33529,6.33529,0,0,0-.04639-.77136.93248.93248,0,0,0-.93522-.81691,2.4552,2.4552,0,0,0-1.563.49535,9.05412,9.05412,0,0,0-.81134.62459.36915.36915,0,0,0-.14036.3215c.00729,2.12758.0059,4.25521.0191,6.38274.00135.21807-.05848.26942-.26454.25823a9.274,9.274,0,0,0-.96218.00127c-.17391.00865-.20174-.05448-.20168-.21115q.00128-3.3274-.00856-6.65481a6.00971,6.00971,0,0,0-.28948-2.08014c-.04553-.12483.01136-.15581.11649-.17936.36684-.08218.73456-.1621,1.09728-.26014a.17.17,0,0,1,.23872.11432,2.88146,2.88146,0,0,1,.24612.98821C53.18078,9.57756,53.18557,9.65192,53.19384,9.77866Z" fill="#ec6724"/>
          <path d="M67.67532,9.67746a5.00916,5.00916,0,0,1,1.2748-.92766,3.22958,3.22958,0,0,1,3.69452.58434,4.35841,4.35841,0,0,1,1.15168,2.32777,7.49291,7.49291,0,0,1-.216,3.73874,3.79087,3.79087,0,0,1-1.33047,1.95828,3.19859,3.19859,0,0,1-3.43685.28535,2.86909,2.86909,0,0,1-1.03063-.79174c-.06991.28178-.13664.53171-.19275.784a.225.225,0,0,1-.26828.20789c-.35509-.01425-.71122-.00543-1.06688-.00146-.09827.0011-.13941-.01677-.107-.12894a6.7149,6.7149,0,0,0,.19975-1.88539c-.002-2.97066.001-5.94138-.01827-8.91194a5.85221,5.85221,0,0,0-.35912-2.21583c-.03083-.07507-.03017-.11129.05976-.131q.63307-.13859,1.26413-.28629c.11837-.02762.13884.03866.15991.131a7.91181,7.91181,0,0,1,.20528,1.65692c.01489,1.12262.01175,2.24549.016,3.36825C67.67514,9.49989,67.67513,9.56,67.67532,9.67746Zm.00587,3.60686q.00093.55451.00183,1.109c.00049.36968.00508.73944-.00134,1.109a.40959.40959,0,0,0,.114.29845,2.60583,2.60583,0,0,0,1.74894.92257,1.90228,1.90228,0,0,0,2.294-1.26249c.0192-.04488.04087-.08894.0567-.135a7.00783,7.00783,0,0,0,.15256-4.07752,1.8123,1.8123,0,0,0-1.25095-1.37584A3.51626,3.51626,0,0,0,69.619,9.74418a2.5929,2.5929,0,0,0-1.84765,1.057.3967.3967,0,0,0-.09595.286C67.68089,11.81953,67.68008,12.55193,67.68119,13.28432Z" fill="#ec6724"/>
          <path d="M95.76024,16.71039a5.97916,5.97916,0,0,1-.87026.6995,3.49617,3.49617,0,0,1-3.94711-.11722,2.08025,2.08025,0,0,1-.79861-1.41972,2.92181,2.92181,0,0,1,.59973-2.45617,3.591,3.591,0,0,1,1.78148-1.078,7.49957,7.49957,0,0,1,1.83468-.27823c.3553-.01145.71078-.01733,1.06621-.02411.08666-.00165.166.00645.16464-.12379a9.20533,9.20533,0,0,0-.05174-1.29474A1.36648,1.36648,0,0,0,94.1982,9.47509a3.87606,3.87606,0,0,0-2.24112.61359c-.18678.12157-.37451.242-.55631.37076-.10332.07315-.16941.07956-.25109-.03827-.17849-.25753-.37169-.505-.56294-.75347-.05313-.069-.08907-.11528.01123-.17979a6.45139,6.45139,0,0,1,4.35517-1.1436,2.333,2.333,0,0,1,1.9353,1.31176,2.51909,2.51909,0,0,1,.19362,1.10183c.03,1.25549-.05124,2.50944-.06433,3.76442-.00451.43227-.00485.86482.0052,1.29695a1.241,1.241,0,0,0,.629,1.151c.09265.05144.09518.09577.03353.1756-.2002.25927-.39917.51978-.58885.78674-.06856.09649-.12817.09121-.22457.04963A1.8526,1.8526,0,0,1,95.76024,16.71039Zm-.08032-2.42523.07411-.0002c-.00057-.34124-.01368-.6831.00333-1.02346.00914-.18255-.05-.22991-.22017-.21642-.17318.01373-.34829.00234-.52253.00408a5.56907,5.56907,0,0,0-1.87392.26121,1.74724,1.74724,0,0,0-1.17289,1.12994,2.71245,2.71245,0,0,0-.03685,1.52615,1.22467,1.22467,0,0,0,.90744.91709,2.56376,2.56376,0,0,0,2.81461-1.39245.36773.36773,0,0,0,.0274-.16145C95.68224,14.98149,95.6805,14.63333,95.67992,14.28517Z" fill="#ec6724"/>
          <path d="M113.58081,13.32272a5.64971,5.64971,0,0,1-.66044,2.80489,3.58047,3.58047,0,0,1-3.641,1.87005,3.50224,3.50224,0,0,1-3.163-2.44875,6.57083,6.57083,0,0,1-.08425-4.70727,3.7196,3.7196,0,0,1,4.26044-2.5113,3.59956,3.59956,0,0,1,3.00314,2.7056A7.9302,7.9302,0,0,1,113.58081,13.32272Zm-6.238-.396c.00027.16031-.003.32072.00142.48091a6.36,6.36,0,0,0,.29287,1.95654,2.217,2.217,0,0,0,3.11214,1.26461,2.14627,2.14627,0,0,0,1.12893-1.71116,9.711,9.711,0,0,0,.0321-2.89667,3.77028,3.77028,0,0,0-.36916-1.38621,2.20751,2.20751,0,0,0-4.06486.56587A7.81761,7.81761,0,0,0,107.34278,12.92671Z" fill="#ec6724"/>
          <path d="M41.1888,13.30612a6.39966,6.39966,0,0,1,.48979-2.67707,3.82137,3.82137,0,0,1,4.138-2.19383,3.71624,3.71624,0,0,1,3.09438,3.0297,7.969,7.969,0,0,1,.01081,3.5268,3.79733,3.79733,0,0,1-6.69518,1.74668,5.11682,5.11682,0,0,1-.99593-2.7267C41.20439,13.74831,41.19886,13.48283,41.1888,13.30612Zm1.58413-.33849a11.5282,11.5282,0,0,0,.08719,1.52639c.02955.22047.07432.43955.12395.65657A2.171,2.171,0,0,0,44.86635,16.938a2.03408,2.03408,0,0,0,2.36634-1.54511,10.26041,10.26041,0,0,0,.19529-3.097,3.45962,3.45962,0,0,0-.38843-1.464,2.10609,2.10609,0,0,0-2.26181-1.18882,2.06461,2.06461,0,0,0-1.86339,1.68509A7.60147,7.60147,0,0,0,42.77293,12.96763Z" fill="#ec6724"/>
          <path d="M82.49989,9.73674a5.57975,5.57975,0,0,1,1.34527-1.0108,3.10441,3.10441,0,0,1,2.44527-.28136,2.27135,2.27135,0,0,1,1.59368,1.86932,2.95433,2.95433,0,0,1,.04019.54143c.00623,2.21078.00634,4.42158.01748,6.63232.001.19513-.05277.24725-.2419.23864-.32707-.01489-.65588-.0139-.98294.00172-.17324.00827-.203-.05439-.20289-.2112.00161-1.97366-.00385-3.94731-.00626-5.921a5.47291,5.47291,0,0,0-.06123-.959A1.23349,1.23349,0,0,0,84.938,9.59062a4.5695,4.5695,0,0,0-2.28026,1.24384.31944.31944,0,0,0-.0708.27073q.00446,3.18018.00967,6.36036c.00036.305.03341.26241-.26833.265-.32079.00272-.64189-.00612-.96229.00552-.14807.00538-.18644-.041-.18563-.1862.00493-.88567.00035-1.7714-.00128-2.65711-.00267-1.45736-.01007-2.91474-.006-4.37208a3.27588,3.27588,0,0,0-.3493-1.61408c-.06759-.12452-.05386-.18488.10266-.22495.37077-.09491.73649-.21028,1.102-.32463.10559-.033.15512-.01447.20259.09174A3.07642,3.07642,0,0,1,82.49989,9.73674Z" fill="#ec6724"/>
          <path d="M31.28214,11.51406a7.74064,7.74064,0,0,1,.74987-3.617A4.8646,4.8646,0,0,1,35.30266,5.1282a5.04253,5.04253,0,0,1,4.17036.75043c.114.07872.1065.12564.023.22076-.21139.24089-.41937.48574-.61238.74134-.08969.11878-.15433.11247-.26724.03958a4.11625,4.11625,0,0,0-2.04421-.722,3.10089,3.10089,0,0,0-3.07152,1.69076,5.66378,5.66378,0,0,0-.63507,2.216,10.97214,10.97214,0,0,0,.10908,3.47543,4.34481,4.34481,0,0,0,.99216,2.02377,3.46023,3.46023,0,0,0,3.05992,1.05528,3.70561,3.70561,0,0,0,1.96941-.737c.10015-.07508.14863-.04734.21488.04128q.31919.427.65328.84281c.06791.0845.07659.12664-.02921.18672a6.12091,6.12091,0,0,1-4.88549.70578A4.63143,4.63143,0,0,1,32.661,16.01218a6.37436,6.37436,0,0,1-1.32312-3.46356C31.29767,12.17335,31.30146,11.79676,31.28214,11.51406Z" fill="#ec6724"/>
          <path d="M100.41639,13.05043c-.00176-1.05317-.00615-2.10636-.0022-3.15951.00053-.142-.031-.19465-.1826-.18851-.30641.0124-.61376-.00043-.92046.00754-.121.00315-.15625-.03889-.15372-.15573.0062-.28582.00782-.57211-.00218-.85773-.0047-.13391.04552-.16413.1687-.161.28576.00726.57193-.00248.85778.003.1052.002.14058-.02517.14657-.138.037-.69593.1482-1.38641.1582-2.08432.00151-.10531.05582-.12439.13732-.14237.4015-.08861.80276-.17848,1.20292-.273.13677-.03229.16691.00573.14534.14377a15.79936,15.79936,0,0,0-.14942,2.27284c-.00186.1691.03411.22429.2141.22062.64142-.01307,1.28328-.00337,1.92488-.01052.14748-.00164.20332.01855.13861.18064-.11106.27825-.20872.5622-.3017.84712a.181.181,0,0,1-.20711.1482c-.53-.00652-1.06016.003-1.59015-.00356-.13594-.00168-.17536.0358-.17479.17391q.01178,2.877.01352,5.75407a2.94009,2.94009,0,0,0,.08865.70348.82493.82493,0,0,0,.61221.62006,2.00981,2.00981,0,0,0,1.21253-.04361c.14445-.04429.1941-.01026.20867.13127.01282.12448.04055.24749.06312.37089.07077.387.0748.39862-.29757.51821a3.651,3.651,0,0,1-2.04119.08608,1.59644,1.59644,0,0,1-1.22663-1.49262,6.21165,6.21165,0,0,1-.037-.64653C100.41739,14.9336,100.418,13.992,100.41639,13.05043Z" fill="#ec6724"/>
          <path d="M117.7737,9.79148a5.90971,5.90971,0,0,1,.69359-.73662A2.8104,2.8104,0,0,1,120.442,8.338a1.16264,1.16264,0,0,1,.12522.00676c.24371.03476.259.05831.17663.285q-.22118.60893-.4457,1.21666c-.02545.06911-.03315.14937-.1507.12263a1.91489,1.91489,0,0,0-1.59676.42376,1.86782,1.86782,0,0,0-.80618,1.62946q-.002,1.66282.00212,3.32565c.00085.76693-.00244,1.53393.00779,2.30074.00215.16048-.04505.19935-.1987.19438-.34126-.011-.68368-.01363-1.02456.00269-.17719.00848-.20152-.05958-.20148-.21358q.001-3.31513-.00836-6.63026a7.42943,7.42943,0,0,0-.13437-1.74623,2.4001,2.4001,0,0,0-.14407-.43549c-.05213-.11425-.02073-.15572.0952-.1879.37574-.1043.75054-.21309,1.12123-.33387.1267-.04128.16953.00377.21586.10782a3.01794,3.01794,0,0,1,.26283,1.27948C117.73765,9.71679,117.722,9.75477,117.7737,9.79148Z" fill="#ec6724"/>
          <path d="M77.93047,13.04677c.0025,1.49267.00189,2.98535.01167,4.478.00115.17538-.04525.22431-.21912.21817-.3692-.01305-.73931-.00749-1.10884.00017-.12782.00265-.18234-.02076-.18237-.16787q-.00089-4.42569-.01427-8.85137c-.00033-.11518.03784-.15724.14592-.17413.41313-.06457.82583-.1324,1.23731-.20673.09688-.0175.12853.00725.12244.10027-.00317.04861-.00031.09761-.00023.14644Q77.92674,10.81823,77.93047,13.04677Z" fill="#ec6724"/>
          <path d="M77.2494,6.90358A1.12774,1.12774,0,0,1,76.0813,5.74829a1.16844,1.16844,0,1,1,2.33687.00228A1.12268,1.12268,0,0,1,77.2494,6.90358Z" fill="#ec6724"/>
          <path d="M12.61373,12.83278c.06833-.13.13209-.24472.19-.36236q1.482-3.00953,2.95914-6.02139a.293.293,0,0,1,.314-.1976c.52762.01147,1.05567.00281,1.58274.00193a.26908.26908,0,0,1-.06152.18712q-2.02238,3.82853-4.05047,7.654a1.39844,1.39844,0,0,0-.17208.69392c.01048,1.52745.00542,3.055.01625,4.58244.00135.19-.05452.23541-.23524.22994-.41112-.01244-.82317-.011-1.2343.00192-.16707.00524-.20794-.04577-.2076-.20907.00335-1.60421-.003-3.20844-.00228-4.81266a.84068.84068,0,0,0-.102-.4169Q9.53862,10.32621,7.47277,6.48516c-.11545-.21437-.11617-.21436.12466-.21488.5231-.00112,1.04634.00464,1.56921-.00678a.26757.26757,0,0,1,.28371.18029c.78944,1.60888,1.58926,3.2127,2.37131,4.82514.09819.20245.24889.36263.34737.56429.14329.29341.23411.60754.3865.89549C12.57124,12.75837,12.58826,12.78733,12.61373,12.83278Z" fill="#fdfdfc"/>
          <path d="M67.68125,13.28432c-.00117-.73239-.00036-1.46479-.0058-2.19714a.3967.3967,0,0,1,.09595-.286,2.5929,2.5929,0,0,1,1.84765-1.057,3.51626,3.51626,0,0,1,1.17786.12835,1.8123,1.8123,0,0,1,1.25095,1.37584,7.00783,7.00783,0,0,1-.15256,4.07752c-.01583.04605-.0375.09011-.0567.135a1.90228,1.90228,0,0,1-2.294,1.26249,2.60583,2.60583,0,0,1-1.74894-.92257.40959.40959,0,0,1-.114-.29845c.00642-.36956.00183-.73932.00134-1.109S67.68181,13.654,67.68125,13.28432Z" fill="#fdfdfd"/>
          <path d="M95.67992,14.28517c.00058.34816.00232.69633.00054,1.04448a.36773.36773,0,0,1-.0274.16145,2.56376,2.56376,0,0,1-2.81461,1.39245,1.22467,1.22467,0,0,1-.90744-.91709,2.71245,2.71245,0,0,1,.03685-1.52615,1.74724,1.74724,0,0,1,1.17289-1.12994,5.56907,5.56907,0,0,1,1.87392-.26121c.17424-.00173.34935.00966.52253-.00408.17013-.01349.22931.03387.22017.21642-.017.34036-.00391.68222-.00333,1.02346Z" fill="#fdfdfd"/>
          <path d="M107.34278,12.92671a7.81761,7.81761,0,0,1,.13345-1.72612,2.20751,2.20751,0,0,1,4.06486-.56587,3.77028,3.77028,0,0,1,.36916,1.38621,9.711,9.711,0,0,1-.0321,2.89667,2.14627,2.14627,0,0,1-1.12893,1.71116,2.217,2.217,0,0,1-3.11214-1.26461,6.36,6.36,0,0,1-.29287-1.95654C107.33975,13.24743,107.343,13.087,107.34278,12.92671Z" fill="#fdfdfd"/>
          <path d="M42.77293,12.96763a7.60147,7.60147,0,0,1,.14141-1.63946,2.06461,2.06461,0,0,1,1.86339-1.68509,2.10609,2.10609,0,0,1,2.26181,1.18882,3.45962,3.45962,0,0,1,.38843,1.464,10.26041,10.26041,0,0,1-.19529,3.097A2.03408,2.03408,0,0,1,44.86635,16.938a2.171,2.171,0,0,1-1.88228-1.78736c-.04963-.217-.0944-.4361-.12395-.65657A11.5282,11.5282,0,0,1,42.77293,12.96763Z" fill="#fdfdfd"/>
        </g>
      </g>
    </g>
  </g>
</svg>
